G04 (created by PCBNEW (2013-mar-13)-testing) date Sat 24 Aug 2013 07:59:04 PM PDT*
%MOIN*%
G04 Gerber Fmt 3.4, Leading zero omitted, Abs format*
%FSLAX34Y34*%
G01*
G70*
G90*
G04 APERTURE LIST*
%ADD10C,0.005906*%
%ADD11C,0.008000*%
%ADD12C,0.015000*%
%ADD13C,0.012000*%
G04 APERTURE END LIST*
G54D10*
G54D11*
X34295Y-27955D02*
X34295Y-27555D01*
X34447Y-27555D01*
X34485Y-27575D01*
X34504Y-27594D01*
X34523Y-27632D01*
X34523Y-27689D01*
X34504Y-27727D01*
X34485Y-27746D01*
X34447Y-27765D01*
X34295Y-27765D01*
X34771Y-27555D02*
X34809Y-27555D01*
X34847Y-27575D01*
X34866Y-27594D01*
X34885Y-27632D01*
X34904Y-27708D01*
X34904Y-27803D01*
X34885Y-27879D01*
X34866Y-27917D01*
X34847Y-27936D01*
X34809Y-27955D01*
X34771Y-27955D01*
X34733Y-27936D01*
X34714Y-27917D01*
X34695Y-27879D01*
X34676Y-27803D01*
X34676Y-27708D01*
X34695Y-27632D01*
X34714Y-27594D01*
X34733Y-27575D01*
X34771Y-27555D01*
X35057Y-27841D02*
X35247Y-27841D01*
X35019Y-27955D02*
X35152Y-27555D01*
X35285Y-27955D01*
X34295Y-26605D02*
X34295Y-26205D01*
X34447Y-26205D01*
X34485Y-26225D01*
X34504Y-26244D01*
X34523Y-26282D01*
X34523Y-26339D01*
X34504Y-26377D01*
X34485Y-26396D01*
X34447Y-26415D01*
X34295Y-26415D01*
X34771Y-26205D02*
X34809Y-26205D01*
X34847Y-26225D01*
X34866Y-26244D01*
X34885Y-26282D01*
X34904Y-26358D01*
X34904Y-26453D01*
X34885Y-26529D01*
X34866Y-26567D01*
X34847Y-26586D01*
X34809Y-26605D01*
X34771Y-26605D01*
X34733Y-26586D01*
X34714Y-26567D01*
X34695Y-26529D01*
X34676Y-26453D01*
X34676Y-26358D01*
X34695Y-26282D01*
X34714Y-26244D01*
X34733Y-26225D01*
X34771Y-26205D01*
X35038Y-26205D02*
X35133Y-26605D01*
X35209Y-26320D01*
X35285Y-26605D01*
X35380Y-26205D01*
X34295Y-25205D02*
X34295Y-24805D01*
X34447Y-24805D01*
X34485Y-24825D01*
X34504Y-24844D01*
X34523Y-24882D01*
X34523Y-24939D01*
X34504Y-24977D01*
X34485Y-24996D01*
X34447Y-25015D01*
X34295Y-25015D01*
X34771Y-24805D02*
X34809Y-24805D01*
X34847Y-24825D01*
X34866Y-24844D01*
X34885Y-24882D01*
X34904Y-24958D01*
X34904Y-25053D01*
X34885Y-25129D01*
X34866Y-25167D01*
X34847Y-25186D01*
X34809Y-25205D01*
X34771Y-25205D01*
X34733Y-25186D01*
X34714Y-25167D01*
X34695Y-25129D01*
X34676Y-25053D01*
X34676Y-24958D01*
X34695Y-24882D01*
X34714Y-24844D01*
X34733Y-24825D01*
X34771Y-24805D01*
X35209Y-24996D02*
X35266Y-25015D01*
X35285Y-25034D01*
X35304Y-25072D01*
X35304Y-25129D01*
X35285Y-25167D01*
X35266Y-25186D01*
X35228Y-25205D01*
X35076Y-25205D01*
X35076Y-24805D01*
X35209Y-24805D01*
X35247Y-24825D01*
X35266Y-24844D01*
X35285Y-24882D01*
X35285Y-24920D01*
X35266Y-24958D01*
X35247Y-24977D01*
X35209Y-24996D01*
X35076Y-24996D01*
X34295Y-23805D02*
X34295Y-23405D01*
X34447Y-23405D01*
X34485Y-23425D01*
X34504Y-23444D01*
X34523Y-23482D01*
X34523Y-23539D01*
X34504Y-23577D01*
X34485Y-23596D01*
X34447Y-23615D01*
X34295Y-23615D01*
X34904Y-23805D02*
X34676Y-23805D01*
X34790Y-23805D02*
X34790Y-23405D01*
X34752Y-23463D01*
X34714Y-23501D01*
X34676Y-23520D01*
X35057Y-23691D02*
X35247Y-23691D01*
X35019Y-23805D02*
X35152Y-23405D01*
X35285Y-23805D01*
X34295Y-22430D02*
X34295Y-22030D01*
X34447Y-22030D01*
X34485Y-22050D01*
X34504Y-22069D01*
X34523Y-22107D01*
X34523Y-22164D01*
X34504Y-22202D01*
X34485Y-22221D01*
X34447Y-22240D01*
X34295Y-22240D01*
X34904Y-22430D02*
X34676Y-22430D01*
X34790Y-22430D02*
X34790Y-22030D01*
X34752Y-22088D01*
X34714Y-22126D01*
X34676Y-22145D01*
X35038Y-22030D02*
X35133Y-22430D01*
X35209Y-22145D01*
X35285Y-22430D01*
X35380Y-22030D01*
X34295Y-21080D02*
X34295Y-20680D01*
X34447Y-20680D01*
X34485Y-20700D01*
X34504Y-20719D01*
X34523Y-20757D01*
X34523Y-20814D01*
X34504Y-20852D01*
X34485Y-20871D01*
X34447Y-20890D01*
X34295Y-20890D01*
X34904Y-21080D02*
X34676Y-21080D01*
X34790Y-21080D02*
X34790Y-20680D01*
X34752Y-20738D01*
X34714Y-20776D01*
X34676Y-20795D01*
X35209Y-20871D02*
X35266Y-20890D01*
X35285Y-20909D01*
X35304Y-20947D01*
X35304Y-21004D01*
X35285Y-21042D01*
X35266Y-21061D01*
X35228Y-21080D01*
X35076Y-21080D01*
X35076Y-20680D01*
X35209Y-20680D01*
X35247Y-20700D01*
X35266Y-20719D01*
X35285Y-20757D01*
X35285Y-20795D01*
X35266Y-20833D01*
X35247Y-20852D01*
X35209Y-20871D01*
X35076Y-20871D01*
X34295Y-19705D02*
X34295Y-19305D01*
X34447Y-19305D01*
X34485Y-19325D01*
X34504Y-19344D01*
X34523Y-19382D01*
X34523Y-19439D01*
X34504Y-19477D01*
X34485Y-19496D01*
X34447Y-19515D01*
X34295Y-19515D01*
X34676Y-19344D02*
X34695Y-19325D01*
X34733Y-19305D01*
X34828Y-19305D01*
X34866Y-19325D01*
X34885Y-19344D01*
X34904Y-19382D01*
X34904Y-19420D01*
X34885Y-19477D01*
X34657Y-19705D01*
X34904Y-19705D01*
X35057Y-19591D02*
X35247Y-19591D01*
X35019Y-19705D02*
X35152Y-19305D01*
X35285Y-19705D01*
X34295Y-18330D02*
X34295Y-17930D01*
X34447Y-17930D01*
X34485Y-17950D01*
X34504Y-17969D01*
X34523Y-18007D01*
X34523Y-18064D01*
X34504Y-18102D01*
X34485Y-18121D01*
X34447Y-18140D01*
X34295Y-18140D01*
X34676Y-17969D02*
X34695Y-17950D01*
X34733Y-17930D01*
X34828Y-17930D01*
X34866Y-17950D01*
X34885Y-17969D01*
X34904Y-18007D01*
X34904Y-18045D01*
X34885Y-18102D01*
X34657Y-18330D01*
X34904Y-18330D01*
X35038Y-17930D02*
X35133Y-18330D01*
X35209Y-18045D01*
X35285Y-18330D01*
X35380Y-17930D01*
X34295Y-16930D02*
X34295Y-16530D01*
X34447Y-16530D01*
X34485Y-16550D01*
X34504Y-16569D01*
X34523Y-16607D01*
X34523Y-16664D01*
X34504Y-16702D01*
X34485Y-16721D01*
X34447Y-16740D01*
X34295Y-16740D01*
X34676Y-16569D02*
X34695Y-16550D01*
X34733Y-16530D01*
X34828Y-16530D01*
X34866Y-16550D01*
X34885Y-16569D01*
X34904Y-16607D01*
X34904Y-16645D01*
X34885Y-16702D01*
X34657Y-16930D01*
X34904Y-16930D01*
X35209Y-16721D02*
X35266Y-16740D01*
X35285Y-16759D01*
X35304Y-16797D01*
X35304Y-16854D01*
X35285Y-16892D01*
X35266Y-16911D01*
X35228Y-16930D01*
X35076Y-16930D01*
X35076Y-16530D01*
X35209Y-16530D01*
X35247Y-16550D01*
X35266Y-16569D01*
X35285Y-16607D01*
X35285Y-16645D01*
X35266Y-16683D01*
X35247Y-16702D01*
X35209Y-16721D01*
X35076Y-16721D01*
X34295Y-15580D02*
X34295Y-15180D01*
X34447Y-15180D01*
X34485Y-15200D01*
X34504Y-15219D01*
X34523Y-15257D01*
X34523Y-15314D01*
X34504Y-15352D01*
X34485Y-15371D01*
X34447Y-15390D01*
X34295Y-15390D01*
X34657Y-15180D02*
X34904Y-15180D01*
X34771Y-15333D01*
X34828Y-15333D01*
X34866Y-15352D01*
X34885Y-15371D01*
X34904Y-15409D01*
X34904Y-15504D01*
X34885Y-15542D01*
X34866Y-15561D01*
X34828Y-15580D01*
X34714Y-15580D01*
X34676Y-15561D01*
X34657Y-15542D01*
X35057Y-15466D02*
X35247Y-15466D01*
X35019Y-15580D02*
X35152Y-15180D01*
X35285Y-15580D01*
X34295Y-14205D02*
X34295Y-13805D01*
X34447Y-13805D01*
X34485Y-13825D01*
X34504Y-13844D01*
X34523Y-13882D01*
X34523Y-13939D01*
X34504Y-13977D01*
X34485Y-13996D01*
X34447Y-14015D01*
X34295Y-14015D01*
X34657Y-13805D02*
X34904Y-13805D01*
X34771Y-13958D01*
X34828Y-13958D01*
X34866Y-13977D01*
X34885Y-13996D01*
X34904Y-14034D01*
X34904Y-14129D01*
X34885Y-14167D01*
X34866Y-14186D01*
X34828Y-14205D01*
X34714Y-14205D01*
X34676Y-14186D01*
X34657Y-14167D01*
X35038Y-13805D02*
X35133Y-14205D01*
X35209Y-13920D01*
X35285Y-14205D01*
X35380Y-13805D01*
X34295Y-12805D02*
X34295Y-12405D01*
X34447Y-12405D01*
X34485Y-12425D01*
X34504Y-12444D01*
X34523Y-12482D01*
X34523Y-12539D01*
X34504Y-12577D01*
X34485Y-12596D01*
X34447Y-12615D01*
X34295Y-12615D01*
X34657Y-12405D02*
X34904Y-12405D01*
X34771Y-12558D01*
X34828Y-12558D01*
X34866Y-12577D01*
X34885Y-12596D01*
X34904Y-12634D01*
X34904Y-12729D01*
X34885Y-12767D01*
X34866Y-12786D01*
X34828Y-12805D01*
X34714Y-12805D01*
X34676Y-12786D01*
X34657Y-12767D01*
X35209Y-12596D02*
X35266Y-12615D01*
X35285Y-12634D01*
X35304Y-12672D01*
X35304Y-12729D01*
X35285Y-12767D01*
X35266Y-12786D01*
X35228Y-12805D01*
X35076Y-12805D01*
X35076Y-12405D01*
X35209Y-12405D01*
X35247Y-12425D01*
X35266Y-12444D01*
X35285Y-12482D01*
X35285Y-12520D01*
X35266Y-12558D01*
X35247Y-12577D01*
X35209Y-12596D01*
X35076Y-12596D01*
G54D12*
X37120Y-13990D02*
X34960Y-13990D01*
G54D11*
X34504Y-11075D02*
X34466Y-11055D01*
X34409Y-11055D01*
X34352Y-11075D01*
X34314Y-11113D01*
X34295Y-11151D01*
X34276Y-11227D01*
X34276Y-11284D01*
X34295Y-11360D01*
X34314Y-11398D01*
X34352Y-11436D01*
X34409Y-11455D01*
X34447Y-11455D01*
X34504Y-11436D01*
X34523Y-11417D01*
X34523Y-11284D01*
X34447Y-11284D01*
X34695Y-11455D02*
X34695Y-11055D01*
X34923Y-11455D01*
X34923Y-11055D01*
X35114Y-11455D02*
X35114Y-11055D01*
X35209Y-11055D01*
X35266Y-11075D01*
X35304Y-11113D01*
X35323Y-11151D01*
X35342Y-11227D01*
X35342Y-11284D01*
X35323Y-11360D01*
X35304Y-11398D01*
X35266Y-11436D01*
X35209Y-11455D01*
X35114Y-11455D01*
G54D13*
X11711Y-26114D02*
X10911Y-26114D01*
X11483Y-25914D01*
X10911Y-25714D01*
X11711Y-25714D01*
X11635Y-25085D02*
X11673Y-25114D01*
X11711Y-25200D01*
X11711Y-25257D01*
X11673Y-25342D01*
X11597Y-25400D01*
X11521Y-25428D01*
X11369Y-25457D01*
X11254Y-25457D01*
X11102Y-25428D01*
X11026Y-25400D01*
X10950Y-25342D01*
X10911Y-25257D01*
X10911Y-25200D01*
X10950Y-25114D01*
X10988Y-25085D01*
X11711Y-24828D02*
X10911Y-24828D01*
X10911Y-24600D01*
X10950Y-24542D01*
X10988Y-24514D01*
X11064Y-24485D01*
X11178Y-24485D01*
X11254Y-24514D01*
X11292Y-24542D01*
X11330Y-24600D01*
X11330Y-24828D01*
X11178Y-23971D02*
X11711Y-23971D01*
X10873Y-24114D02*
X11445Y-24257D01*
X11445Y-23885D01*
X10988Y-23685D02*
X10950Y-23657D01*
X10911Y-23600D01*
X10911Y-23457D01*
X10950Y-23400D01*
X10988Y-23371D01*
X11064Y-23342D01*
X11140Y-23342D01*
X11254Y-23371D01*
X11711Y-23714D01*
X11711Y-23342D01*
X10911Y-22828D02*
X10911Y-22942D01*
X10950Y-23000D01*
X10988Y-23028D01*
X11102Y-23085D01*
X11254Y-23114D01*
X11559Y-23114D01*
X11635Y-23085D01*
X11673Y-23057D01*
X11711Y-23000D01*
X11711Y-22885D01*
X11673Y-22828D01*
X11635Y-22800D01*
X11559Y-22771D01*
X11369Y-22771D01*
X11292Y-22800D01*
X11254Y-22828D01*
X11216Y-22885D01*
X11216Y-23000D01*
X11254Y-23057D01*
X11292Y-23085D01*
X11369Y-23114D01*
X11711Y-22200D02*
X11711Y-22542D01*
X11711Y-22371D02*
X10911Y-22371D01*
X11026Y-22428D01*
X11102Y-22485D01*
X11140Y-22542D01*
X11711Y-21485D02*
X10911Y-21485D01*
X10911Y-21257D01*
X10950Y-21200D01*
X10988Y-21171D01*
X11064Y-21142D01*
X11178Y-21142D01*
X11254Y-21171D01*
X11292Y-21200D01*
X11330Y-21257D01*
X11330Y-21485D01*
X11711Y-20800D02*
X11673Y-20857D01*
X11635Y-20885D01*
X11559Y-20914D01*
X11330Y-20914D01*
X11254Y-20885D01*
X11216Y-20857D01*
X11178Y-20800D01*
X11178Y-20714D01*
X11216Y-20657D01*
X11254Y-20628D01*
X11330Y-20600D01*
X11559Y-20600D01*
X11635Y-20628D01*
X11673Y-20657D01*
X11711Y-20714D01*
X11711Y-20800D01*
X11178Y-20428D02*
X11178Y-20200D01*
X10911Y-20342D02*
X11597Y-20342D01*
X11673Y-20314D01*
X11711Y-20257D01*
X11711Y-20200D01*
X11673Y-19771D02*
X11711Y-19828D01*
X11711Y-19942D01*
X11673Y-20000D01*
X11597Y-20028D01*
X11292Y-20028D01*
X11216Y-20000D01*
X11178Y-19942D01*
X11178Y-19828D01*
X11216Y-19771D01*
X11292Y-19742D01*
X11369Y-19742D01*
X11445Y-20028D01*
X11178Y-19485D02*
X11711Y-19485D01*
X11254Y-19485D02*
X11216Y-19457D01*
X11178Y-19400D01*
X11178Y-19314D01*
X11216Y-19257D01*
X11292Y-19228D01*
X11711Y-19228D01*
X11178Y-19028D02*
X11178Y-18800D01*
X10911Y-18942D02*
X11597Y-18942D01*
X11673Y-18914D01*
X11711Y-18857D01*
X11711Y-18800D01*
X11711Y-18600D02*
X11178Y-18600D01*
X10911Y-18600D02*
X10950Y-18628D01*
X10988Y-18600D01*
X10950Y-18571D01*
X10911Y-18600D01*
X10988Y-18600D01*
X11711Y-18228D02*
X11673Y-18285D01*
X11635Y-18314D01*
X11559Y-18342D01*
X11330Y-18342D01*
X11254Y-18314D01*
X11216Y-18285D01*
X11178Y-18228D01*
X11178Y-18142D01*
X11216Y-18085D01*
X11254Y-18057D01*
X11330Y-18028D01*
X11559Y-18028D01*
X11635Y-18057D01*
X11673Y-18085D01*
X11711Y-18142D01*
X11711Y-18228D01*
X11711Y-17771D02*
X11178Y-17771D01*
X11254Y-17771D02*
X11216Y-17742D01*
X11178Y-17685D01*
X11178Y-17600D01*
X11216Y-17542D01*
X11292Y-17514D01*
X11711Y-17514D01*
X11292Y-17514D02*
X11216Y-17485D01*
X11178Y-17428D01*
X11178Y-17342D01*
X11216Y-17285D01*
X11292Y-17257D01*
X11711Y-17257D01*
X11673Y-16742D02*
X11711Y-16800D01*
X11711Y-16914D01*
X11673Y-16971D01*
X11597Y-17000D01*
X11292Y-17000D01*
X11216Y-16971D01*
X11178Y-16914D01*
X11178Y-16800D01*
X11216Y-16742D01*
X11292Y-16714D01*
X11369Y-16714D01*
X11445Y-17000D01*
X11178Y-16542D02*
X11178Y-16314D01*
X10911Y-16457D02*
X11597Y-16457D01*
X11673Y-16428D01*
X11711Y-16371D01*
X11711Y-16314D01*
X11673Y-15885D02*
X11711Y-15942D01*
X11711Y-16057D01*
X11673Y-16114D01*
X11597Y-16142D01*
X11292Y-16142D01*
X11216Y-16114D01*
X11178Y-16057D01*
X11178Y-15942D01*
X11216Y-15885D01*
X11292Y-15857D01*
X11369Y-15857D01*
X11445Y-16142D01*
X11711Y-15600D02*
X11178Y-15600D01*
X11330Y-15600D02*
X11254Y-15571D01*
X11216Y-15542D01*
X11178Y-15485D01*
X11178Y-15428D01*
X11673Y-14799D02*
X11711Y-14714D01*
X11711Y-14571D01*
X11673Y-14514D01*
X11635Y-14485D01*
X11559Y-14457D01*
X11483Y-14457D01*
X11407Y-14485D01*
X11369Y-14514D01*
X11330Y-14571D01*
X11292Y-14685D01*
X11254Y-14742D01*
X11216Y-14771D01*
X11140Y-14799D01*
X11064Y-14799D01*
X10988Y-14771D01*
X10950Y-14742D01*
X10911Y-14685D01*
X10911Y-14542D01*
X10950Y-14457D01*
X11711Y-14199D02*
X10911Y-14199D01*
X11711Y-13942D02*
X11292Y-13942D01*
X11216Y-13971D01*
X11178Y-14028D01*
X11178Y-14114D01*
X11216Y-14171D01*
X11254Y-14199D01*
X11711Y-13657D02*
X11178Y-13657D01*
X10911Y-13657D02*
X10950Y-13685D01*
X10988Y-13657D01*
X10950Y-13628D01*
X10911Y-13657D01*
X10988Y-13657D01*
X11673Y-13142D02*
X11711Y-13199D01*
X11711Y-13314D01*
X11673Y-13371D01*
X11597Y-13399D01*
X11292Y-13399D01*
X11216Y-13371D01*
X11178Y-13314D01*
X11178Y-13199D01*
X11216Y-13142D01*
X11292Y-13114D01*
X11369Y-13114D01*
X11445Y-13399D01*
X11711Y-12771D02*
X11673Y-12828D01*
X11597Y-12857D01*
X10911Y-12857D01*
X11711Y-12285D02*
X10911Y-12285D01*
X11673Y-12285D02*
X11711Y-12342D01*
X11711Y-12457D01*
X11673Y-12514D01*
X11635Y-12542D01*
X11559Y-12571D01*
X11330Y-12571D01*
X11254Y-12542D01*
X11216Y-12514D01*
X11178Y-12457D01*
X11178Y-12342D01*
X11216Y-12285D01*
X12951Y-23357D02*
X12151Y-23357D01*
X12151Y-22957D02*
X12151Y-22842D01*
X12190Y-22785D01*
X12266Y-22728D01*
X12418Y-22700D01*
X12685Y-22700D01*
X12837Y-22728D01*
X12913Y-22785D01*
X12951Y-22842D01*
X12951Y-22957D01*
X12913Y-23014D01*
X12837Y-23071D01*
X12685Y-23100D01*
X12418Y-23100D01*
X12266Y-23071D01*
X12190Y-23014D01*
X12151Y-22957D01*
X12951Y-21642D02*
X12570Y-21842D01*
X12951Y-21985D02*
X12151Y-21985D01*
X12151Y-21757D01*
X12190Y-21700D01*
X12228Y-21671D01*
X12304Y-21642D01*
X12418Y-21642D01*
X12494Y-21671D01*
X12532Y-21700D01*
X12570Y-21757D01*
X12570Y-21985D01*
X12951Y-21300D02*
X12913Y-21357D01*
X12875Y-21385D01*
X12799Y-21414D01*
X12570Y-21414D01*
X12494Y-21385D01*
X12456Y-21357D01*
X12418Y-21300D01*
X12418Y-21214D01*
X12456Y-21157D01*
X12494Y-21128D01*
X12570Y-21100D01*
X12799Y-21100D01*
X12875Y-21128D01*
X12913Y-21157D01*
X12951Y-21214D01*
X12951Y-21300D01*
X12951Y-20585D02*
X12151Y-20585D01*
X12913Y-20585D02*
X12951Y-20642D01*
X12951Y-20757D01*
X12913Y-20814D01*
X12875Y-20842D01*
X12799Y-20871D01*
X12570Y-20871D01*
X12494Y-20842D01*
X12456Y-20814D01*
X12418Y-20757D01*
X12418Y-20642D01*
X12456Y-20585D01*
X12913Y-20071D02*
X12951Y-20128D01*
X12951Y-20242D01*
X12913Y-20300D01*
X12837Y-20328D01*
X12532Y-20328D01*
X12456Y-20300D01*
X12418Y-20242D01*
X12418Y-20128D01*
X12456Y-20071D01*
X12532Y-20042D01*
X12609Y-20042D01*
X12685Y-20328D01*
X12951Y-19700D02*
X12913Y-19757D01*
X12875Y-19785D01*
X12799Y-19814D01*
X12570Y-19814D01*
X12494Y-19785D01*
X12456Y-19757D01*
X12418Y-19700D01*
X12418Y-19614D01*
X12456Y-19557D01*
X12494Y-19528D01*
X12570Y-19500D01*
X12799Y-19500D01*
X12875Y-19528D01*
X12913Y-19557D01*
X12951Y-19614D01*
X12951Y-19700D01*
X12951Y-18785D02*
X12151Y-18785D01*
X12418Y-18500D02*
X12951Y-18500D01*
X12494Y-18500D02*
X12456Y-18471D01*
X12418Y-18414D01*
X12418Y-18328D01*
X12456Y-18271D01*
X12532Y-18242D01*
X12951Y-18242D01*
X12913Y-17700D02*
X12951Y-17757D01*
X12951Y-17871D01*
X12913Y-17928D01*
X12875Y-17957D01*
X12799Y-17985D01*
X12570Y-17985D01*
X12494Y-17957D01*
X12456Y-17928D01*
X12418Y-17871D01*
X12418Y-17757D01*
X12456Y-17700D01*
X12875Y-17442D02*
X12913Y-17414D01*
X12951Y-17442D01*
X12913Y-17471D01*
X12875Y-17442D01*
X12951Y-17442D01*
X12151Y-16785D02*
X12951Y-16585D01*
X12151Y-16385D01*
X12151Y-16071D02*
X12151Y-16014D01*
X12190Y-15957D01*
X12228Y-15928D01*
X12304Y-15900D01*
X12456Y-15871D01*
X12647Y-15871D01*
X12799Y-15900D01*
X12875Y-15928D01*
X12913Y-15957D01*
X12951Y-16014D01*
X12951Y-16071D01*
X12913Y-16128D01*
X12875Y-16157D01*
X12799Y-16185D01*
X12647Y-16214D01*
X12456Y-16214D01*
X12304Y-16185D01*
X12228Y-16157D01*
X12190Y-16128D01*
X12151Y-16071D01*
X12875Y-15614D02*
X12913Y-15585D01*
X12951Y-15614D01*
X12913Y-15642D01*
X12875Y-15614D01*
X12951Y-15614D01*
X12951Y-15014D02*
X12951Y-15357D01*
X12951Y-15185D02*
X12151Y-15185D01*
X12266Y-15242D01*
X12342Y-15300D01*
X12380Y-15357D01*
G54D11*
X31600Y-28185D02*
X31600Y-27995D01*
X31771Y-28223D02*
X31171Y-28090D01*
X31771Y-27957D01*
X31771Y-27823D02*
X31171Y-27823D01*
X31171Y-27728D01*
X31200Y-27671D01*
X31257Y-27633D01*
X31314Y-27614D01*
X31428Y-27595D01*
X31514Y-27595D01*
X31628Y-27614D01*
X31685Y-27633D01*
X31742Y-27671D01*
X31771Y-27728D01*
X31771Y-27823D01*
X31171Y-27233D02*
X31171Y-27423D01*
X31457Y-27442D01*
X31428Y-27423D01*
X31400Y-27385D01*
X31400Y-27290D01*
X31428Y-27252D01*
X31457Y-27233D01*
X31514Y-27214D01*
X31657Y-27214D01*
X31714Y-27233D01*
X31742Y-27252D01*
X31771Y-27290D01*
X31771Y-27385D01*
X31742Y-27423D01*
X31714Y-27442D01*
X30600Y-28185D02*
X30600Y-27995D01*
X30771Y-28223D02*
X30171Y-28090D01*
X30771Y-27957D01*
X30771Y-27823D02*
X30171Y-27823D01*
X30171Y-27728D01*
X30200Y-27671D01*
X30257Y-27633D01*
X30314Y-27614D01*
X30428Y-27595D01*
X30514Y-27595D01*
X30628Y-27614D01*
X30685Y-27633D01*
X30742Y-27671D01*
X30771Y-27728D01*
X30771Y-27823D01*
X30371Y-27252D02*
X30771Y-27252D01*
X30142Y-27347D02*
X30571Y-27442D01*
X30571Y-27195D01*
X29600Y-28185D02*
X29600Y-27995D01*
X29771Y-28223D02*
X29171Y-28090D01*
X29771Y-27957D01*
X29771Y-27823D02*
X29171Y-27823D01*
X29171Y-27728D01*
X29200Y-27671D01*
X29257Y-27633D01*
X29314Y-27614D01*
X29428Y-27595D01*
X29514Y-27595D01*
X29628Y-27614D01*
X29685Y-27633D01*
X29742Y-27671D01*
X29771Y-27728D01*
X29771Y-27823D01*
X29171Y-27461D02*
X29171Y-27214D01*
X29400Y-27347D01*
X29400Y-27290D01*
X29428Y-27252D01*
X29457Y-27233D01*
X29514Y-27214D01*
X29657Y-27214D01*
X29714Y-27233D01*
X29742Y-27252D01*
X29771Y-27290D01*
X29771Y-27404D01*
X29742Y-27442D01*
X29714Y-27461D01*
X28600Y-28185D02*
X28600Y-27995D01*
X28771Y-28223D02*
X28171Y-28090D01*
X28771Y-27957D01*
X28771Y-27823D02*
X28171Y-27823D01*
X28171Y-27728D01*
X28200Y-27671D01*
X28257Y-27633D01*
X28314Y-27614D01*
X28428Y-27595D01*
X28514Y-27595D01*
X28628Y-27614D01*
X28685Y-27633D01*
X28742Y-27671D01*
X28771Y-27728D01*
X28771Y-27823D01*
X28228Y-27442D02*
X28200Y-27423D01*
X28171Y-27385D01*
X28171Y-27290D01*
X28200Y-27252D01*
X28228Y-27233D01*
X28285Y-27214D01*
X28342Y-27214D01*
X28428Y-27233D01*
X28771Y-27461D01*
X28771Y-27214D01*
X27600Y-28185D02*
X27600Y-27995D01*
X27771Y-28223D02*
X27171Y-28090D01*
X27771Y-27957D01*
X27771Y-27823D02*
X27171Y-27823D01*
X27171Y-27728D01*
X27200Y-27671D01*
X27257Y-27633D01*
X27314Y-27614D01*
X27428Y-27595D01*
X27514Y-27595D01*
X27628Y-27614D01*
X27685Y-27633D01*
X27742Y-27671D01*
X27771Y-27728D01*
X27771Y-27823D01*
X27771Y-27214D02*
X27771Y-27442D01*
X27771Y-27328D02*
X27171Y-27328D01*
X27257Y-27366D01*
X27314Y-27404D01*
X27342Y-27442D01*
X26600Y-28185D02*
X26600Y-27995D01*
X26771Y-28223D02*
X26171Y-28090D01*
X26771Y-27957D01*
X26771Y-27823D02*
X26171Y-27823D01*
X26171Y-27728D01*
X26200Y-27671D01*
X26257Y-27633D01*
X26314Y-27614D01*
X26428Y-27595D01*
X26514Y-27595D01*
X26628Y-27614D01*
X26685Y-27633D01*
X26742Y-27671D01*
X26771Y-27728D01*
X26771Y-27823D01*
X26171Y-27347D02*
X26171Y-27309D01*
X26200Y-27271D01*
X26228Y-27252D01*
X26285Y-27233D01*
X26400Y-27214D01*
X26542Y-27214D01*
X26657Y-27233D01*
X26714Y-27252D01*
X26742Y-27271D01*
X26771Y-27309D01*
X26771Y-27347D01*
X26742Y-27385D01*
X26714Y-27404D01*
X26657Y-27423D01*
X26542Y-27442D01*
X26400Y-27442D01*
X26285Y-27423D01*
X26228Y-27404D01*
X26200Y-27385D01*
X26171Y-27347D01*
X24221Y-28238D02*
X24821Y-28104D01*
X24221Y-27971D01*
X24821Y-27838D02*
X24221Y-27838D01*
X24821Y-27647D02*
X24221Y-27647D01*
X24821Y-27419D01*
X24221Y-27419D01*
X23250Y-28004D02*
X23221Y-28042D01*
X23221Y-28100D01*
X23250Y-28157D01*
X23307Y-28195D01*
X23364Y-28214D01*
X23478Y-28233D01*
X23564Y-28233D01*
X23678Y-28214D01*
X23735Y-28195D01*
X23792Y-28157D01*
X23821Y-28100D01*
X23821Y-28061D01*
X23792Y-28004D01*
X23764Y-27985D01*
X23564Y-27985D01*
X23564Y-28061D01*
X23821Y-27814D02*
X23221Y-27814D01*
X23821Y-27585D01*
X23221Y-27585D01*
X23821Y-27395D02*
X23221Y-27395D01*
X23221Y-27299D01*
X23250Y-27242D01*
X23307Y-27204D01*
X23364Y-27185D01*
X23478Y-27166D01*
X23564Y-27166D01*
X23678Y-27185D01*
X23735Y-27204D01*
X23792Y-27242D01*
X23821Y-27299D01*
X23821Y-27395D01*
X22250Y-28004D02*
X22221Y-28042D01*
X22221Y-28100D01*
X22250Y-28157D01*
X22307Y-28195D01*
X22364Y-28214D01*
X22478Y-28233D01*
X22564Y-28233D01*
X22678Y-28214D01*
X22735Y-28195D01*
X22792Y-28157D01*
X22821Y-28100D01*
X22821Y-28061D01*
X22792Y-28004D01*
X22764Y-27985D01*
X22564Y-27985D01*
X22564Y-28061D01*
X22821Y-27814D02*
X22221Y-27814D01*
X22821Y-27585D01*
X22221Y-27585D01*
X22821Y-27395D02*
X22221Y-27395D01*
X22221Y-27299D01*
X22250Y-27242D01*
X22307Y-27204D01*
X22364Y-27185D01*
X22478Y-27166D01*
X22564Y-27166D01*
X22678Y-27185D01*
X22735Y-27204D01*
X22792Y-27242D01*
X22821Y-27299D01*
X22821Y-27395D01*
X21221Y-27976D02*
X21221Y-28166D01*
X21507Y-28185D01*
X21478Y-28166D01*
X21450Y-28128D01*
X21450Y-28033D01*
X21478Y-27995D01*
X21507Y-27976D01*
X21564Y-27957D01*
X21707Y-27957D01*
X21764Y-27976D01*
X21792Y-27995D01*
X21821Y-28033D01*
X21821Y-28128D01*
X21792Y-28166D01*
X21764Y-28185D01*
X21221Y-27842D02*
X21821Y-27709D01*
X21221Y-27576D01*
X20271Y-28195D02*
X20271Y-27947D01*
X20500Y-28080D01*
X20500Y-28023D01*
X20528Y-27985D01*
X20557Y-27966D01*
X20614Y-27947D01*
X20757Y-27947D01*
X20814Y-27966D01*
X20842Y-27985D01*
X20871Y-28023D01*
X20871Y-28138D01*
X20842Y-28176D01*
X20814Y-28195D01*
X20271Y-27833D02*
X20871Y-27699D01*
X20271Y-27566D01*
X20271Y-27471D02*
X20271Y-27223D01*
X20500Y-27357D01*
X20500Y-27300D01*
X20528Y-27261D01*
X20557Y-27242D01*
X20614Y-27223D01*
X20757Y-27223D01*
X20814Y-27242D01*
X20842Y-27261D01*
X20871Y-27300D01*
X20871Y-27414D01*
X20842Y-27452D01*
X20814Y-27471D01*
X19821Y-27969D02*
X19535Y-28102D01*
X19821Y-28197D02*
X19221Y-28197D01*
X19221Y-28045D01*
X19250Y-28007D01*
X19278Y-27988D01*
X19335Y-27969D01*
X19421Y-27969D01*
X19478Y-27988D01*
X19507Y-28007D01*
X19535Y-28045D01*
X19535Y-28197D01*
X19792Y-27816D02*
X19821Y-27759D01*
X19821Y-27664D01*
X19792Y-27626D01*
X19764Y-27607D01*
X19707Y-27588D01*
X19650Y-27588D01*
X19592Y-27607D01*
X19564Y-27626D01*
X19535Y-27664D01*
X19507Y-27740D01*
X19478Y-27778D01*
X19450Y-27797D01*
X19392Y-27816D01*
X19335Y-27816D01*
X19278Y-27797D01*
X19250Y-27778D01*
X19221Y-27740D01*
X19221Y-27645D01*
X19250Y-27588D01*
X19221Y-27473D02*
X19221Y-27245D01*
X19821Y-27359D02*
X19221Y-27359D01*
X31821Y-11266D02*
X31535Y-11399D01*
X31821Y-11495D02*
X31221Y-11495D01*
X31221Y-11342D01*
X31250Y-11304D01*
X31278Y-11285D01*
X31335Y-11266D01*
X31421Y-11266D01*
X31478Y-11285D01*
X31507Y-11304D01*
X31535Y-11342D01*
X31535Y-11495D01*
X31221Y-11133D02*
X31821Y-10866D01*
X31221Y-10866D02*
X31821Y-11133D01*
X30221Y-11454D02*
X30221Y-11226D01*
X30821Y-11340D02*
X30221Y-11340D01*
X30221Y-11130D02*
X30821Y-10864D01*
X30221Y-10864D02*
X30821Y-11130D01*
X29821Y-11495D02*
X29221Y-11495D01*
X29221Y-11399D01*
X29250Y-11342D01*
X29307Y-11304D01*
X29364Y-11285D01*
X29478Y-11266D01*
X29564Y-11266D01*
X29678Y-11285D01*
X29735Y-11304D01*
X29792Y-11342D01*
X29821Y-11399D01*
X29821Y-11495D01*
X29278Y-11114D02*
X29250Y-11095D01*
X29221Y-11057D01*
X29221Y-10961D01*
X29250Y-10923D01*
X29278Y-10904D01*
X29335Y-10885D01*
X29392Y-10885D01*
X29478Y-10904D01*
X29821Y-11133D01*
X29821Y-10885D01*
X28821Y-11495D02*
X28221Y-11495D01*
X28221Y-11399D01*
X28250Y-11342D01*
X28307Y-11304D01*
X28364Y-11285D01*
X28478Y-11266D01*
X28564Y-11266D01*
X28678Y-11285D01*
X28735Y-11304D01*
X28792Y-11342D01*
X28821Y-11399D01*
X28821Y-11495D01*
X28221Y-11133D02*
X28221Y-10885D01*
X28450Y-11019D01*
X28450Y-10961D01*
X28478Y-10923D01*
X28507Y-10904D01*
X28564Y-10885D01*
X28707Y-10885D01*
X28764Y-10904D01*
X28792Y-10923D01*
X28821Y-10961D01*
X28821Y-11076D01*
X28792Y-11114D01*
X28764Y-11133D01*
X27821Y-11495D02*
X27221Y-11495D01*
X27221Y-11399D01*
X27250Y-11342D01*
X27307Y-11304D01*
X27364Y-11285D01*
X27478Y-11266D01*
X27564Y-11266D01*
X27678Y-11285D01*
X27735Y-11304D01*
X27792Y-11342D01*
X27821Y-11399D01*
X27821Y-11495D01*
X27421Y-10923D02*
X27821Y-10923D01*
X27192Y-11019D02*
X27621Y-11114D01*
X27621Y-10866D01*
X26764Y-11607D02*
X26792Y-11626D01*
X26821Y-11683D01*
X26821Y-11721D01*
X26792Y-11778D01*
X26735Y-11816D01*
X26678Y-11835D01*
X26564Y-11854D01*
X26478Y-11854D01*
X26364Y-11835D01*
X26307Y-11816D01*
X26250Y-11778D01*
X26221Y-11721D01*
X26221Y-11683D01*
X26250Y-11626D01*
X26278Y-11607D01*
X26792Y-11454D02*
X26821Y-11397D01*
X26821Y-11302D01*
X26792Y-11264D01*
X26764Y-11245D01*
X26707Y-11226D01*
X26650Y-11226D01*
X26592Y-11245D01*
X26564Y-11264D01*
X26535Y-11302D01*
X26507Y-11378D01*
X26478Y-11416D01*
X26450Y-11435D01*
X26392Y-11454D01*
X26335Y-11454D01*
X26278Y-11435D01*
X26250Y-11416D01*
X26221Y-11378D01*
X26221Y-11283D01*
X26250Y-11226D01*
X26221Y-10978D02*
X26221Y-10940D01*
X26250Y-10902D01*
X26278Y-10883D01*
X26335Y-10864D01*
X26450Y-10845D01*
X26592Y-10845D01*
X26707Y-10864D01*
X26764Y-10883D01*
X26792Y-10902D01*
X26821Y-10940D01*
X26821Y-10978D01*
X26792Y-11016D01*
X26764Y-11035D01*
X26707Y-11054D01*
X26592Y-11073D01*
X26450Y-11073D01*
X26335Y-11054D01*
X26278Y-11035D01*
X26250Y-11016D01*
X26221Y-10978D01*
X25764Y-11607D02*
X25792Y-11626D01*
X25821Y-11683D01*
X25821Y-11721D01*
X25792Y-11778D01*
X25735Y-11816D01*
X25678Y-11835D01*
X25564Y-11854D01*
X25478Y-11854D01*
X25364Y-11835D01*
X25307Y-11816D01*
X25250Y-11778D01*
X25221Y-11721D01*
X25221Y-11683D01*
X25250Y-11626D01*
X25278Y-11607D01*
X25792Y-11454D02*
X25821Y-11397D01*
X25821Y-11302D01*
X25792Y-11264D01*
X25764Y-11245D01*
X25707Y-11226D01*
X25650Y-11226D01*
X25592Y-11245D01*
X25564Y-11264D01*
X25535Y-11302D01*
X25507Y-11378D01*
X25478Y-11416D01*
X25450Y-11435D01*
X25392Y-11454D01*
X25335Y-11454D01*
X25278Y-11435D01*
X25250Y-11416D01*
X25221Y-11378D01*
X25221Y-11283D01*
X25250Y-11226D01*
X25821Y-10845D02*
X25821Y-11073D01*
X25821Y-10959D02*
X25221Y-10959D01*
X25307Y-10997D01*
X25364Y-11035D01*
X25392Y-11073D01*
X24821Y-11495D02*
X24221Y-11495D01*
X24221Y-11399D01*
X24250Y-11342D01*
X24307Y-11304D01*
X24364Y-11285D01*
X24478Y-11266D01*
X24564Y-11266D01*
X24678Y-11285D01*
X24735Y-11304D01*
X24792Y-11342D01*
X24821Y-11399D01*
X24821Y-11495D01*
X24221Y-11133D02*
X24221Y-10866D01*
X24821Y-11038D01*
X23221Y-11495D02*
X22621Y-11495D01*
X22621Y-11399D01*
X22650Y-11342D01*
X22707Y-11304D01*
X22764Y-11285D01*
X22878Y-11266D01*
X22964Y-11266D01*
X23078Y-11285D01*
X23135Y-11304D01*
X23192Y-11342D01*
X23221Y-11399D01*
X23221Y-11495D01*
X22878Y-11038D02*
X22850Y-11076D01*
X22821Y-11095D01*
X22764Y-11114D01*
X22735Y-11114D01*
X22678Y-11095D01*
X22650Y-11076D01*
X22621Y-11038D01*
X22621Y-10961D01*
X22650Y-10923D01*
X22678Y-10904D01*
X22735Y-10885D01*
X22764Y-10885D01*
X22821Y-10904D01*
X22850Y-10923D01*
X22878Y-10961D01*
X22878Y-11038D01*
X22907Y-11076D01*
X22935Y-11095D01*
X22992Y-11114D01*
X23107Y-11114D01*
X23164Y-11095D01*
X23192Y-11076D01*
X23221Y-11038D01*
X23221Y-10961D01*
X23192Y-10923D01*
X23164Y-10904D01*
X23107Y-10885D01*
X22992Y-10885D01*
X22935Y-10904D01*
X22907Y-10923D01*
X22878Y-10961D01*
X22271Y-11495D02*
X21671Y-11495D01*
X21671Y-11399D01*
X21700Y-11342D01*
X21757Y-11304D01*
X21814Y-11285D01*
X21928Y-11266D01*
X22014Y-11266D01*
X22128Y-11285D01*
X22185Y-11304D01*
X22242Y-11342D01*
X22271Y-11399D01*
X22271Y-11495D01*
X22271Y-11076D02*
X22271Y-10999D01*
X22242Y-10961D01*
X22214Y-10942D01*
X22128Y-10904D01*
X22014Y-10885D01*
X21785Y-10885D01*
X21728Y-10904D01*
X21700Y-10923D01*
X21671Y-10961D01*
X21671Y-11038D01*
X21700Y-11076D01*
X21728Y-11095D01*
X21785Y-11114D01*
X21928Y-11114D01*
X21985Y-11095D01*
X22014Y-11076D01*
X22042Y-11038D01*
X22042Y-10961D01*
X22014Y-10923D01*
X21985Y-10904D01*
X21928Y-10885D01*
X21221Y-11835D02*
X20621Y-11835D01*
X20621Y-11740D01*
X20650Y-11683D01*
X20707Y-11645D01*
X20764Y-11626D01*
X20878Y-11607D01*
X20964Y-11607D01*
X21078Y-11626D01*
X21135Y-11645D01*
X21192Y-11683D01*
X21221Y-11740D01*
X21221Y-11835D01*
X21221Y-11226D02*
X21221Y-11454D01*
X21221Y-11340D02*
X20621Y-11340D01*
X20707Y-11378D01*
X20764Y-11416D01*
X20792Y-11454D01*
X20621Y-10978D02*
X20621Y-10940D01*
X20650Y-10902D01*
X20678Y-10883D01*
X20735Y-10864D01*
X20850Y-10845D01*
X20992Y-10845D01*
X21107Y-10864D01*
X21164Y-10883D01*
X21192Y-10902D01*
X21221Y-10940D01*
X21221Y-10978D01*
X21192Y-11016D01*
X21164Y-11035D01*
X21107Y-11054D01*
X20992Y-11073D01*
X20850Y-11073D01*
X20735Y-11054D01*
X20678Y-11035D01*
X20650Y-11016D01*
X20621Y-10978D01*
X20221Y-12128D02*
X19621Y-12128D01*
X20050Y-11995D01*
X19621Y-11861D01*
X20221Y-11861D01*
X19621Y-11595D02*
X19621Y-11519D01*
X19650Y-11480D01*
X19707Y-11442D01*
X19821Y-11423D01*
X20021Y-11423D01*
X20135Y-11442D01*
X20192Y-11480D01*
X20221Y-11519D01*
X20221Y-11595D01*
X20192Y-11633D01*
X20135Y-11671D01*
X20021Y-11690D01*
X19821Y-11690D01*
X19707Y-11671D01*
X19650Y-11633D01*
X19621Y-11595D01*
X20192Y-11271D02*
X20221Y-11214D01*
X20221Y-11119D01*
X20192Y-11080D01*
X20164Y-11061D01*
X20107Y-11042D01*
X20050Y-11042D01*
X19992Y-11061D01*
X19964Y-11080D01*
X19935Y-11119D01*
X19907Y-11195D01*
X19878Y-11233D01*
X19850Y-11252D01*
X19792Y-11271D01*
X19735Y-11271D01*
X19678Y-11252D01*
X19650Y-11233D01*
X19621Y-11195D01*
X19621Y-11100D01*
X19650Y-11042D01*
X20221Y-10871D02*
X19621Y-10871D01*
X19221Y-12128D02*
X18621Y-12128D01*
X19050Y-11995D01*
X18621Y-11861D01*
X19221Y-11861D01*
X19221Y-11671D02*
X18621Y-11671D01*
X19192Y-11499D02*
X19221Y-11442D01*
X19221Y-11347D01*
X19192Y-11309D01*
X19164Y-11290D01*
X19107Y-11271D01*
X19050Y-11271D01*
X18992Y-11290D01*
X18964Y-11309D01*
X18935Y-11347D01*
X18907Y-11423D01*
X18878Y-11461D01*
X18850Y-11480D01*
X18792Y-11499D01*
X18735Y-11499D01*
X18678Y-11480D01*
X18650Y-11461D01*
X18621Y-11423D01*
X18621Y-11328D01*
X18650Y-11271D01*
X18621Y-11023D02*
X18621Y-10947D01*
X18650Y-10909D01*
X18707Y-10871D01*
X18821Y-10852D01*
X19021Y-10852D01*
X19135Y-10871D01*
X19192Y-10909D01*
X19221Y-10947D01*
X19221Y-11023D01*
X19192Y-11061D01*
X19135Y-11099D01*
X19021Y-11119D01*
X18821Y-11119D01*
X18707Y-11099D01*
X18650Y-11061D01*
X18621Y-11023D01*
X18192Y-11864D02*
X18221Y-11807D01*
X18221Y-11711D01*
X18192Y-11673D01*
X18164Y-11654D01*
X18107Y-11635D01*
X18050Y-11635D01*
X17992Y-11654D01*
X17964Y-11673D01*
X17935Y-11711D01*
X17907Y-11788D01*
X17878Y-11826D01*
X17850Y-11845D01*
X17792Y-11864D01*
X17735Y-11864D01*
X17678Y-11845D01*
X17650Y-11826D01*
X17621Y-11788D01*
X17621Y-11692D01*
X17650Y-11635D01*
X18164Y-11235D02*
X18192Y-11254D01*
X18221Y-11311D01*
X18221Y-11350D01*
X18192Y-11407D01*
X18135Y-11445D01*
X18078Y-11464D01*
X17964Y-11483D01*
X17878Y-11483D01*
X17764Y-11464D01*
X17707Y-11445D01*
X17650Y-11407D01*
X17621Y-11350D01*
X17621Y-11311D01*
X17650Y-11254D01*
X17678Y-11235D01*
X18221Y-11064D02*
X17621Y-11064D01*
X18221Y-10835D02*
X17878Y-11007D01*
X17621Y-10835D02*
X17964Y-11064D01*
X16650Y-11654D02*
X16621Y-11692D01*
X16621Y-11750D01*
X16650Y-11807D01*
X16707Y-11845D01*
X16764Y-11864D01*
X16878Y-11883D01*
X16964Y-11883D01*
X17078Y-11864D01*
X17135Y-11845D01*
X17192Y-11807D01*
X17221Y-11750D01*
X17221Y-11711D01*
X17192Y-11654D01*
X17164Y-11635D01*
X16964Y-11635D01*
X16964Y-11711D01*
X17221Y-11464D02*
X16621Y-11464D01*
X17221Y-11235D01*
X16621Y-11235D01*
X17221Y-11045D02*
X16621Y-11045D01*
X16621Y-10949D01*
X16650Y-10892D01*
X16707Y-10854D01*
X16764Y-10835D01*
X16878Y-10816D01*
X16964Y-10816D01*
X17078Y-10835D01*
X17135Y-10854D01*
X17192Y-10892D01*
X17221Y-10949D01*
X17221Y-11045D01*
X16050Y-12147D02*
X16050Y-11957D01*
X16221Y-12185D02*
X15621Y-12052D01*
X16221Y-11919D01*
X16221Y-11557D02*
X15935Y-11690D01*
X16221Y-11785D02*
X15621Y-11785D01*
X15621Y-11633D01*
X15650Y-11595D01*
X15678Y-11576D01*
X15735Y-11557D01*
X15821Y-11557D01*
X15878Y-11576D01*
X15907Y-11595D01*
X15935Y-11633D01*
X15935Y-11785D01*
X15907Y-11385D02*
X15907Y-11252D01*
X16221Y-11195D02*
X16221Y-11385D01*
X15621Y-11385D01*
X15621Y-11195D01*
X15907Y-10890D02*
X15907Y-11023D01*
X16221Y-11023D02*
X15621Y-11023D01*
X15621Y-10833D01*
G54D12*
X38500Y-9000D02*
X38500Y-30000D01*
X37500Y-30000D02*
X38500Y-30000D01*
X37500Y-9000D02*
X38500Y-9000D01*
X37500Y-9000D02*
X10000Y-9000D01*
X10000Y-30000D02*
X37500Y-30000D01*
X10000Y-30000D02*
X10000Y-9000D01*
X27250Y-24250D02*
X19250Y-24250D01*
X19250Y-22250D02*
X27250Y-22250D01*
X27250Y-22250D02*
X27250Y-24250D01*
X27250Y-23750D02*
X26750Y-23750D01*
X26750Y-23750D02*
X26750Y-22750D01*
X26750Y-22750D02*
X27250Y-22750D01*
X19250Y-24250D02*
X19250Y-22250D01*
X27250Y-16750D02*
X19250Y-16750D01*
X19250Y-14750D02*
X27250Y-14750D01*
X27250Y-14750D02*
X27250Y-16750D01*
X27250Y-16250D02*
X26750Y-16250D01*
X26750Y-16250D02*
X26750Y-15250D01*
X26750Y-15250D02*
X27250Y-15250D01*
X19250Y-16750D02*
X19250Y-14750D01*
G54D13*
X29600Y-25150D02*
X29600Y-22350D01*
X29600Y-22350D02*
X30400Y-22350D01*
X30400Y-22350D02*
X30400Y-25150D01*
X30400Y-25150D02*
X29600Y-25150D01*
X29800Y-25150D02*
X29600Y-24950D01*
X29600Y-17650D02*
X29600Y-14850D01*
X29600Y-14850D02*
X30400Y-14850D01*
X30400Y-14850D02*
X30400Y-17650D01*
X30400Y-17650D02*
X29600Y-17650D01*
X29800Y-17650D02*
X29600Y-17450D01*
G54D12*
X35708Y-10326D02*
X35708Y-28673D01*
X38502Y-10327D02*
X38502Y-28673D01*
X35707Y-28674D02*
X38463Y-28674D01*
X35708Y-10325D02*
X38503Y-10325D01*
G54D11*
X18145Y-23030D02*
X18145Y-23354D01*
X18164Y-23392D01*
X18183Y-23411D01*
X18221Y-23430D01*
X18297Y-23430D01*
X18335Y-23411D01*
X18354Y-23392D01*
X18373Y-23354D01*
X18373Y-23030D01*
X18773Y-23430D02*
X18545Y-23430D01*
X18659Y-23430D02*
X18659Y-23030D01*
X18621Y-23088D01*
X18583Y-23126D01*
X18545Y-23145D01*
X21011Y-23430D02*
X21011Y-23030D01*
X21145Y-23316D01*
X21278Y-23030D01*
X21278Y-23430D01*
X21697Y-23392D02*
X21678Y-23411D01*
X21621Y-23430D01*
X21583Y-23430D01*
X21526Y-23411D01*
X21488Y-23373D01*
X21469Y-23335D01*
X21450Y-23259D01*
X21450Y-23202D01*
X21469Y-23126D01*
X21488Y-23088D01*
X21526Y-23050D01*
X21583Y-23030D01*
X21621Y-23030D01*
X21678Y-23050D01*
X21697Y-23069D01*
X21869Y-23430D02*
X21869Y-23030D01*
X22021Y-23030D01*
X22059Y-23050D01*
X22078Y-23069D01*
X22097Y-23107D01*
X22097Y-23164D01*
X22078Y-23202D01*
X22059Y-23221D01*
X22021Y-23240D01*
X21869Y-23240D01*
X22440Y-23164D02*
X22440Y-23430D01*
X22345Y-23011D02*
X22250Y-23297D01*
X22497Y-23297D01*
X22630Y-23069D02*
X22650Y-23050D01*
X22688Y-23030D01*
X22783Y-23030D01*
X22821Y-23050D01*
X22840Y-23069D01*
X22859Y-23107D01*
X22859Y-23145D01*
X22840Y-23202D01*
X22611Y-23430D01*
X22859Y-23430D01*
X23202Y-23030D02*
X23126Y-23030D01*
X23088Y-23050D01*
X23069Y-23069D01*
X23030Y-23126D01*
X23011Y-23202D01*
X23011Y-23354D01*
X23030Y-23392D01*
X23050Y-23411D01*
X23088Y-23430D01*
X23164Y-23430D01*
X23202Y-23411D01*
X23221Y-23392D01*
X23240Y-23354D01*
X23240Y-23259D01*
X23221Y-23221D01*
X23202Y-23202D01*
X23164Y-23183D01*
X23088Y-23183D01*
X23050Y-23202D01*
X23030Y-23221D01*
X23011Y-23259D01*
X23621Y-23430D02*
X23392Y-23430D01*
X23507Y-23430D02*
X23507Y-23030D01*
X23469Y-23088D01*
X23430Y-23126D01*
X23392Y-23145D01*
X23792Y-23278D02*
X24097Y-23278D01*
X24288Y-23430D02*
X24288Y-23030D01*
X24440Y-23030D01*
X24478Y-23050D01*
X24497Y-23069D01*
X24516Y-23107D01*
X24516Y-23164D01*
X24497Y-23202D01*
X24478Y-23221D01*
X24440Y-23240D01*
X24288Y-23240D01*
X24688Y-23430D02*
X24688Y-23030D01*
X24783Y-23030D01*
X24840Y-23050D01*
X24878Y-23088D01*
X24897Y-23126D01*
X24916Y-23202D01*
X24916Y-23259D01*
X24897Y-23335D01*
X24878Y-23373D01*
X24840Y-23411D01*
X24783Y-23430D01*
X24688Y-23430D01*
X25088Y-23430D02*
X25088Y-23030D01*
X25278Y-23430D02*
X25278Y-23030D01*
X25430Y-23030D01*
X25469Y-23050D01*
X25488Y-23069D01*
X25507Y-23107D01*
X25507Y-23164D01*
X25488Y-23202D01*
X25469Y-23221D01*
X25430Y-23240D01*
X25278Y-23240D01*
X18320Y-15530D02*
X18320Y-15854D01*
X18339Y-15892D01*
X18358Y-15911D01*
X18396Y-15930D01*
X18472Y-15930D01*
X18510Y-15911D01*
X18529Y-15892D01*
X18548Y-15854D01*
X18548Y-15530D01*
X18720Y-15569D02*
X18739Y-15550D01*
X18777Y-15530D01*
X18872Y-15530D01*
X18910Y-15550D01*
X18929Y-15569D01*
X18948Y-15607D01*
X18948Y-15645D01*
X18929Y-15702D01*
X18701Y-15930D01*
X18948Y-15930D01*
X21036Y-15880D02*
X21036Y-15480D01*
X21170Y-15766D01*
X21303Y-15480D01*
X21303Y-15880D01*
X21722Y-15842D02*
X21703Y-15861D01*
X21646Y-15880D01*
X21608Y-15880D01*
X21551Y-15861D01*
X21513Y-15823D01*
X21494Y-15785D01*
X21475Y-15709D01*
X21475Y-15652D01*
X21494Y-15576D01*
X21513Y-15538D01*
X21551Y-15500D01*
X21608Y-15480D01*
X21646Y-15480D01*
X21703Y-15500D01*
X21722Y-15519D01*
X21894Y-15880D02*
X21894Y-15480D01*
X22046Y-15480D01*
X22084Y-15500D01*
X22103Y-15519D01*
X22122Y-15557D01*
X22122Y-15614D01*
X22103Y-15652D01*
X22084Y-15671D01*
X22046Y-15690D01*
X21894Y-15690D01*
X22465Y-15614D02*
X22465Y-15880D01*
X22370Y-15461D02*
X22275Y-15747D01*
X22522Y-15747D01*
X22655Y-15519D02*
X22675Y-15500D01*
X22713Y-15480D01*
X22808Y-15480D01*
X22846Y-15500D01*
X22865Y-15519D01*
X22884Y-15557D01*
X22884Y-15595D01*
X22865Y-15652D01*
X22636Y-15880D01*
X22884Y-15880D01*
X23227Y-15480D02*
X23151Y-15480D01*
X23113Y-15500D01*
X23094Y-15519D01*
X23055Y-15576D01*
X23036Y-15652D01*
X23036Y-15804D01*
X23055Y-15842D01*
X23075Y-15861D01*
X23113Y-15880D01*
X23189Y-15880D01*
X23227Y-15861D01*
X23246Y-15842D01*
X23265Y-15804D01*
X23265Y-15709D01*
X23246Y-15671D01*
X23227Y-15652D01*
X23189Y-15633D01*
X23113Y-15633D01*
X23075Y-15652D01*
X23055Y-15671D01*
X23036Y-15709D01*
X23646Y-15880D02*
X23417Y-15880D01*
X23532Y-15880D02*
X23532Y-15480D01*
X23494Y-15538D01*
X23455Y-15576D01*
X23417Y-15595D01*
X23817Y-15728D02*
X24122Y-15728D01*
X24313Y-15880D02*
X24313Y-15480D01*
X24465Y-15480D01*
X24503Y-15500D01*
X24522Y-15519D01*
X24541Y-15557D01*
X24541Y-15614D01*
X24522Y-15652D01*
X24503Y-15671D01*
X24465Y-15690D01*
X24313Y-15690D01*
X24713Y-15880D02*
X24713Y-15480D01*
X24808Y-15480D01*
X24865Y-15500D01*
X24903Y-15538D01*
X24922Y-15576D01*
X24941Y-15652D01*
X24941Y-15709D01*
X24922Y-15785D01*
X24903Y-15823D01*
X24865Y-15861D01*
X24808Y-15880D01*
X24713Y-15880D01*
X25113Y-15880D02*
X25113Y-15480D01*
X25303Y-15880D02*
X25303Y-15480D01*
X25455Y-15480D01*
X25494Y-15500D01*
X25513Y-15519D01*
X25532Y-15557D01*
X25532Y-15614D01*
X25513Y-15652D01*
X25494Y-15671D01*
X25455Y-15690D01*
X25303Y-15690D01*
X30142Y-25891D02*
X30161Y-25910D01*
X30180Y-25967D01*
X30180Y-26005D01*
X30161Y-26063D01*
X30123Y-26101D01*
X30085Y-26120D01*
X30009Y-26139D01*
X29952Y-26139D01*
X29876Y-26120D01*
X29838Y-26101D01*
X29800Y-26063D01*
X29780Y-26005D01*
X29780Y-25967D01*
X29800Y-25910D01*
X29819Y-25891D01*
X30180Y-25510D02*
X30180Y-25739D01*
X30180Y-25624D02*
X29780Y-25624D01*
X29838Y-25663D01*
X29876Y-25701D01*
X29895Y-25739D01*
X30705Y-24407D02*
X30705Y-24369D01*
X30725Y-24330D01*
X30744Y-24311D01*
X30782Y-24292D01*
X30858Y-24273D01*
X30953Y-24273D01*
X31029Y-24292D01*
X31067Y-24311D01*
X31086Y-24330D01*
X31105Y-24369D01*
X31105Y-24407D01*
X31086Y-24445D01*
X31067Y-24464D01*
X31029Y-24483D01*
X30953Y-24502D01*
X30858Y-24502D01*
X30782Y-24483D01*
X30744Y-24464D01*
X30725Y-24445D01*
X30705Y-24407D01*
X31067Y-24102D02*
X31086Y-24083D01*
X31105Y-24102D01*
X31086Y-24121D01*
X31067Y-24102D01*
X31105Y-24102D01*
X31105Y-23702D02*
X31105Y-23930D01*
X31105Y-23816D02*
X30705Y-23816D01*
X30763Y-23854D01*
X30801Y-23892D01*
X30820Y-23930D01*
X30839Y-23359D02*
X31105Y-23359D01*
X30839Y-23530D02*
X31048Y-23530D01*
X31086Y-23511D01*
X31105Y-23473D01*
X31105Y-23416D01*
X31086Y-23378D01*
X31067Y-23359D01*
X30896Y-23035D02*
X30896Y-23169D01*
X31105Y-23169D02*
X30705Y-23169D01*
X30705Y-22978D01*
X30142Y-18316D02*
X30161Y-18335D01*
X30180Y-18392D01*
X30180Y-18430D01*
X30161Y-18488D01*
X30123Y-18526D01*
X30085Y-18545D01*
X30009Y-18564D01*
X29952Y-18564D01*
X29876Y-18545D01*
X29838Y-18526D01*
X29800Y-18488D01*
X29780Y-18430D01*
X29780Y-18392D01*
X29800Y-18335D01*
X29819Y-18316D01*
X29819Y-18164D02*
X29800Y-18145D01*
X29780Y-18107D01*
X29780Y-18011D01*
X29800Y-17973D01*
X29819Y-17954D01*
X29857Y-17935D01*
X29895Y-17935D01*
X29952Y-17954D01*
X30180Y-18183D01*
X30180Y-17935D01*
X30630Y-16907D02*
X30630Y-16869D01*
X30650Y-16830D01*
X30669Y-16811D01*
X30707Y-16792D01*
X30783Y-16773D01*
X30878Y-16773D01*
X30954Y-16792D01*
X30992Y-16811D01*
X31011Y-16830D01*
X31030Y-16869D01*
X31030Y-16907D01*
X31011Y-16945D01*
X30992Y-16964D01*
X30954Y-16983D01*
X30878Y-17002D01*
X30783Y-17002D01*
X30707Y-16983D01*
X30669Y-16964D01*
X30650Y-16945D01*
X30630Y-16907D01*
X30992Y-16602D02*
X31011Y-16583D01*
X31030Y-16602D01*
X31011Y-16621D01*
X30992Y-16602D01*
X31030Y-16602D01*
X31030Y-16202D02*
X31030Y-16430D01*
X31030Y-16316D02*
X30630Y-16316D01*
X30688Y-16354D01*
X30726Y-16392D01*
X30745Y-16430D01*
X30764Y-15859D02*
X31030Y-15859D01*
X30764Y-16030D02*
X30973Y-16030D01*
X31011Y-16011D01*
X31030Y-15973D01*
X31030Y-15916D01*
X31011Y-15878D01*
X30992Y-15859D01*
X30821Y-15535D02*
X30821Y-15669D01*
X31030Y-15669D02*
X30630Y-15669D01*
X30630Y-15478D01*
X36754Y-29480D02*
X36754Y-29080D01*
X36907Y-29080D01*
X36945Y-29100D01*
X36964Y-29119D01*
X36983Y-29157D01*
X36983Y-29214D01*
X36964Y-29252D01*
X36945Y-29271D01*
X36907Y-29290D01*
X36754Y-29290D01*
X37364Y-29480D02*
X37135Y-29480D01*
X37250Y-29480D02*
X37250Y-29080D01*
X37211Y-29138D01*
X37173Y-29176D01*
X37135Y-29195D01*
M02*
