M48
;DRILL file {Pcbnew (2013-mar-13)-testing} date Sat 24 Aug 2013 07:59:07 PM PDT
;FORMAT={2:4/ absolute / inch / suppress trailing zeros}
FMAT,2
INCH,LZ
T1C0.032
T2C0.035
T3C0.125
%
G90
G05
M72
T1
X0159Y-01
X0169Y-01
X0179Y-01
X0189Y-01
X0195Y-029
X0199Y-01
X02025Y-01425
X02025Y-01725
X02025Y-02175
X02025Y-02475
X0205Y-029
X0209Y-01
X02125Y-01425
X02125Y-01725
X02125Y-02175
X02125Y-02475
X0215Y-029
X0219Y-01
X02225Y-01425
X02225Y-01725
X02225Y-02175
X02225Y-02475
X0225Y-029
X0229Y-01
X02325Y-01425
X02325Y-01725
X02325Y-02175
X02325Y-02475
X0235Y-029
X02425Y-01425
X02425Y-01725
X02425Y-02175
X02425Y-02475
X0245Y-01
X0245Y-029
X02525Y-01425
X02525Y-01725
X02525Y-02175
X02525Y-02475
X0255Y-01
X02625Y-01425
X02625Y-01725
X02625Y-02175
X02625Y-02475
X0265Y-01
X0265Y-029
X0275Y-01
X0275Y-029
X0285Y-01
X0285Y-029
X0295Y-01
X0295Y-029
X03Y-01525
X03Y-01725
X03Y-02275
X03Y-02475
X0305Y-01
X0305Y-029
X0315Y-01
X0315Y-029
T2
X037123Y-012611
X037124Y-011233
X037124Y-013989
X037124Y-015365
X037124Y-016745
X037124Y-018123
X037124Y-025011
X037125Y-019501
X037125Y-02088
X037125Y-022256
X037125Y-023634
X037125Y-026392
X037126Y-027769
T3
X012Y-029
X0125Y-01
X0325Y-016
X0325Y-027
T0
M30
