G04 (created by PCBNEW-RS274X (2011-aug-04)-testing) date Mon 24 Sep 2012 03:04:33 PM PDT*
G01*
G70*
G90*
%MOIN*%
G04 Gerber Fmt 3.4, Leading zero omitted, Abs format*
%FSLAX34Y34*%
G04 APERTURE LIST*
%ADD10C,0.006000*%
%ADD11R,0.075000X0.075000*%
%ADD12C,0.075000*%
%ADD13C,0.080000*%
%ADD14O,0.080000X0.120000*%
%ADD15C,0.175000*%
G04 APERTURE END LIST*
G54D10*
G54D11*
X25000Y-20820D03*
G54D12*
X24000Y-20820D03*
X23000Y-20820D03*
X22000Y-20820D03*
X21000Y-20820D03*
X20000Y-20820D03*
X19000Y-20820D03*
X19000Y-23820D03*
X20000Y-23820D03*
X21000Y-23820D03*
X22000Y-23820D03*
X23000Y-23820D03*
X24000Y-23820D03*
X25000Y-23820D03*
G54D11*
X25000Y-13680D03*
G54D12*
X24000Y-13680D03*
X23000Y-13680D03*
X22000Y-13680D03*
X21000Y-13680D03*
X20000Y-13680D03*
X19000Y-13680D03*
X19000Y-16680D03*
X20000Y-16680D03*
X21000Y-16680D03*
X22000Y-16680D03*
X23000Y-16680D03*
X24000Y-16680D03*
X25000Y-16680D03*
G54D13*
X36101Y-27769D03*
X36100Y-26392D03*
X36099Y-25011D03*
X36100Y-23634D03*
X36100Y-22256D03*
X36100Y-20880D03*
X36100Y-19501D03*
X36099Y-18123D03*
X36099Y-16745D03*
X36099Y-15365D03*
X36098Y-12611D03*
X36099Y-13989D03*
X36099Y-11233D03*
G54D12*
X23000Y-25750D03*
X25000Y-25750D03*
X23000Y-18750D03*
X25000Y-18750D03*
G54D14*
X31500Y-29000D03*
X30500Y-29000D03*
X29500Y-29000D03*
X26500Y-29000D03*
X27500Y-29000D03*
X28500Y-29000D03*
X24500Y-29000D03*
X23500Y-29000D03*
X22500Y-29000D03*
X20500Y-29000D03*
X19500Y-29000D03*
X31500Y-10000D03*
X30500Y-10000D03*
X29500Y-10000D03*
X28500Y-10000D03*
X27500Y-10000D03*
X26500Y-10000D03*
X25500Y-10000D03*
X24500Y-10000D03*
X22900Y-10000D03*
X21900Y-10000D03*
X20900Y-10000D03*
X19900Y-10000D03*
X18900Y-10000D03*
X17900Y-10000D03*
X16900Y-10000D03*
X15900Y-10000D03*
X21500Y-29000D03*
G54D15*
X32500Y-27000D03*
X32500Y-16000D03*
X12500Y-10000D03*
X12000Y-29000D03*
M02*
