G04 (created by PCBNEW (2013-mar-13)-testing) date Sat 24 Aug 2013 07:59:04 PM PDT*
%MOIN*%
G04 Gerber Fmt 3.4, Leading zero omitted, Abs format*
%FSLAX34Y34*%
G01*
G70*
G90*
G04 APERTURE LIST*
%ADD10C,0.005906*%
%ADD11O,0.060000X0.100000*%
%ADD12C,0.155000*%
%ADD13R,0.062000X0.090000*%
%ADD14O,0.062000X0.090000*%
%ADD15C,0.065000*%
%ADD16O,0.100000X0.065000*%
%ADD17C,0.020000*%
%ADD18C,0.010000*%
G04 APERTURE END LIST*
G54D10*
G54D11*
X31500Y-29000D03*
X30500Y-29000D03*
X29500Y-29000D03*
X26500Y-29000D03*
X27500Y-29000D03*
X28500Y-29000D03*
X24500Y-29000D03*
X23500Y-29000D03*
X22500Y-29000D03*
X20500Y-29000D03*
X19500Y-29000D03*
X31500Y-10000D03*
X30500Y-10000D03*
X29500Y-10000D03*
X28500Y-10000D03*
X27500Y-10000D03*
X26500Y-10000D03*
X25500Y-10000D03*
X24500Y-10000D03*
X22900Y-10000D03*
X21900Y-10000D03*
X20900Y-10000D03*
X19900Y-10000D03*
X18900Y-10000D03*
X17900Y-10000D03*
X16900Y-10000D03*
X15900Y-10000D03*
X21500Y-29000D03*
G54D12*
X32500Y-27000D03*
X32500Y-16000D03*
X12500Y-10000D03*
X12000Y-29000D03*
G54D13*
X26250Y-21750D03*
G54D14*
X25250Y-21750D03*
X24250Y-21750D03*
X23250Y-21750D03*
X22250Y-21750D03*
X21250Y-21750D03*
X20250Y-21750D03*
X20250Y-24750D03*
X21250Y-24750D03*
X22250Y-24750D03*
X23250Y-24750D03*
X24250Y-24750D03*
X25250Y-24750D03*
X26250Y-24750D03*
G54D13*
X26250Y-14250D03*
G54D14*
X25250Y-14250D03*
X24250Y-14250D03*
X23250Y-14250D03*
X22250Y-14250D03*
X21250Y-14250D03*
X20250Y-14250D03*
X20250Y-17250D03*
X21250Y-17250D03*
X22250Y-17250D03*
X23250Y-17250D03*
X24250Y-17250D03*
X25250Y-17250D03*
X26250Y-17250D03*
G54D15*
X30000Y-24750D03*
X30000Y-22750D03*
X30000Y-17250D03*
X30000Y-15250D03*
G54D16*
X37126Y-27769D03*
X37125Y-26392D03*
X37124Y-25011D03*
X37125Y-23634D03*
X37125Y-22256D03*
X37125Y-20880D03*
X37125Y-19501D03*
X37124Y-18123D03*
X37124Y-16745D03*
X37124Y-15365D03*
X37123Y-12611D03*
X37124Y-13989D03*
X37124Y-11233D03*
G54D17*
X30530Y-24220D02*
X30000Y-24750D01*
X30530Y-17780D02*
X30530Y-24220D01*
X30000Y-17250D02*
X30530Y-17780D01*
X24906Y-16593D02*
X24250Y-17250D01*
X25593Y-16593D02*
X24906Y-16593D01*
X26250Y-17250D02*
X25593Y-16593D01*
X21500Y-29000D02*
X21500Y-28299D01*
X25471Y-24091D02*
X26122Y-24741D01*
X24908Y-24091D02*
X25471Y-24091D01*
X24250Y-24750D02*
X24908Y-24091D01*
X26241Y-24741D02*
X26122Y-24741D01*
X26250Y-24750D02*
X26241Y-24741D01*
X22229Y-27570D02*
X21500Y-28299D01*
X23292Y-27570D02*
X22229Y-27570D01*
X26122Y-24741D02*
X23292Y-27570D01*
X27378Y-11578D02*
X26500Y-10700D01*
X27378Y-21131D02*
X27378Y-11578D01*
X26760Y-21750D02*
X27378Y-21131D01*
X26250Y-21750D02*
X26760Y-21750D01*
X26500Y-10000D02*
X26500Y-10700D01*
X26250Y-11450D02*
X25500Y-10700D01*
X26250Y-14250D02*
X26250Y-11450D01*
X25500Y-10000D02*
X25500Y-10700D01*
X24592Y-17907D02*
X20011Y-17907D01*
X25250Y-17250D02*
X24592Y-17907D01*
X18900Y-16795D02*
X18900Y-10000D01*
X20011Y-17907D02*
X18900Y-16795D01*
X19738Y-18179D02*
X20011Y-17907D01*
X19738Y-25113D02*
X19738Y-18179D01*
X20026Y-25401D02*
X19738Y-25113D01*
X24598Y-25401D02*
X20026Y-25401D01*
X25250Y-24750D02*
X24598Y-25401D01*
X24250Y-14250D02*
X24250Y-14700D01*
X24250Y-14700D02*
X25162Y-15612D01*
X25162Y-15612D02*
X25490Y-15612D01*
X25490Y-15612D02*
X26778Y-16900D01*
X26778Y-16900D02*
X26778Y-18471D01*
X26778Y-18471D02*
X24250Y-21000D01*
X24250Y-21000D02*
X24250Y-21750D01*
X19900Y-10000D02*
X19900Y-10700D01*
X19900Y-10700D02*
X21950Y-12750D01*
X21950Y-12750D02*
X23450Y-12750D01*
X23450Y-12750D02*
X24250Y-13550D01*
X24250Y-13550D02*
X24250Y-14250D01*
X25250Y-20510D02*
X25250Y-21750D01*
X27078Y-18682D02*
X25250Y-20510D01*
X27078Y-16728D02*
X27078Y-18682D01*
X25250Y-14900D02*
X27078Y-16728D01*
X25250Y-14250D02*
X25250Y-14900D01*
X30000Y-22750D02*
X29469Y-22219D01*
X29469Y-15780D02*
X30000Y-15250D01*
X29469Y-22219D02*
X29469Y-15780D01*
X22500Y-29000D02*
X22500Y-28299D01*
X23562Y-28299D02*
X22500Y-28299D01*
X26779Y-25083D02*
X23562Y-28299D01*
X26779Y-22403D02*
X26779Y-25083D01*
X29286Y-22403D02*
X26779Y-22403D01*
X29469Y-22219D02*
X29286Y-22403D01*
X23903Y-22403D02*
X23250Y-21750D01*
X26779Y-22403D02*
X23903Y-22403D01*
G54D10*
G36*
X38250Y-29750D02*
X38060Y-29750D01*
X38060Y-11378D01*
X38060Y-11087D01*
X38024Y-10959D01*
X37864Y-10702D01*
X37618Y-10526D01*
X37324Y-10458D01*
X37149Y-10458D01*
X37149Y-11208D01*
X37961Y-11208D01*
X38060Y-11087D01*
X38060Y-11378D01*
X37961Y-11258D01*
X37149Y-11258D01*
X37149Y-12008D01*
X37324Y-12008D01*
X37618Y-11939D01*
X37864Y-11763D01*
X38024Y-11506D01*
X38060Y-11378D01*
X38060Y-29750D01*
X37788Y-29750D01*
X37788Y-27769D01*
X37787Y-27763D01*
X37787Y-26392D01*
X37787Y-23634D01*
X37787Y-22256D01*
X37787Y-20880D01*
X37787Y-19501D01*
X37786Y-19495D01*
X37786Y-18123D01*
X37786Y-16745D01*
X37786Y-15365D01*
X37786Y-13989D01*
X37785Y-13983D01*
X37785Y-12611D01*
X37749Y-12429D01*
X37646Y-12275D01*
X37492Y-12172D01*
X37310Y-12136D01*
X37099Y-12136D01*
X37099Y-12008D01*
X37099Y-11258D01*
X37099Y-11208D01*
X37099Y-10458D01*
X36924Y-10458D01*
X36629Y-10526D01*
X36383Y-10702D01*
X36223Y-10959D01*
X36187Y-11087D01*
X36286Y-11208D01*
X37099Y-11208D01*
X37099Y-11258D01*
X36286Y-11258D01*
X36187Y-11378D01*
X36223Y-11506D01*
X36383Y-11763D01*
X36629Y-11939D01*
X36924Y-12008D01*
X37099Y-12008D01*
X37099Y-12136D01*
X36935Y-12136D01*
X36753Y-12172D01*
X36599Y-12275D01*
X36496Y-12429D01*
X36460Y-12611D01*
X36496Y-12792D01*
X36599Y-12946D01*
X36753Y-13049D01*
X36935Y-13086D01*
X37310Y-13086D01*
X37492Y-13049D01*
X37646Y-12946D01*
X37749Y-12792D01*
X37785Y-12611D01*
X37785Y-13983D01*
X37750Y-13807D01*
X37647Y-13653D01*
X37493Y-13550D01*
X37311Y-13514D01*
X36936Y-13514D01*
X36754Y-13550D01*
X36600Y-13653D01*
X36497Y-13807D01*
X36461Y-13989D01*
X36497Y-14170D01*
X36600Y-14324D01*
X36754Y-14427D01*
X36936Y-14464D01*
X37311Y-14464D01*
X37493Y-14427D01*
X37647Y-14324D01*
X37750Y-14170D01*
X37786Y-13989D01*
X37786Y-15365D01*
X37750Y-15183D01*
X37647Y-15029D01*
X37493Y-14926D01*
X37311Y-14890D01*
X36936Y-14890D01*
X36754Y-14926D01*
X36600Y-15029D01*
X36497Y-15183D01*
X36461Y-15365D01*
X36497Y-15546D01*
X36600Y-15700D01*
X36754Y-15803D01*
X36936Y-15840D01*
X37311Y-15840D01*
X37493Y-15803D01*
X37647Y-15700D01*
X37750Y-15546D01*
X37786Y-15365D01*
X37786Y-16745D01*
X37750Y-16563D01*
X37647Y-16409D01*
X37493Y-16306D01*
X37311Y-16270D01*
X36936Y-16270D01*
X36754Y-16306D01*
X36600Y-16409D01*
X36497Y-16563D01*
X36461Y-16745D01*
X36497Y-16926D01*
X36600Y-17080D01*
X36754Y-17183D01*
X36936Y-17220D01*
X37311Y-17220D01*
X37493Y-17183D01*
X37647Y-17080D01*
X37750Y-16926D01*
X37786Y-16745D01*
X37786Y-18123D01*
X37750Y-17941D01*
X37647Y-17787D01*
X37493Y-17684D01*
X37311Y-17648D01*
X36936Y-17648D01*
X36754Y-17684D01*
X36600Y-17787D01*
X36497Y-17941D01*
X36461Y-18123D01*
X36497Y-18304D01*
X36600Y-18458D01*
X36754Y-18561D01*
X36936Y-18598D01*
X37311Y-18598D01*
X37493Y-18561D01*
X37647Y-18458D01*
X37750Y-18304D01*
X37786Y-18123D01*
X37786Y-19495D01*
X37751Y-19319D01*
X37648Y-19165D01*
X37494Y-19062D01*
X37312Y-19026D01*
X36937Y-19026D01*
X36755Y-19062D01*
X36601Y-19165D01*
X36498Y-19319D01*
X36462Y-19501D01*
X36498Y-19682D01*
X36601Y-19836D01*
X36755Y-19939D01*
X36937Y-19976D01*
X37312Y-19976D01*
X37494Y-19939D01*
X37648Y-19836D01*
X37751Y-19682D01*
X37787Y-19501D01*
X37787Y-20880D01*
X37751Y-20698D01*
X37648Y-20544D01*
X37494Y-20441D01*
X37312Y-20405D01*
X36937Y-20405D01*
X36755Y-20441D01*
X36601Y-20544D01*
X36498Y-20698D01*
X36462Y-20880D01*
X36498Y-21061D01*
X36601Y-21215D01*
X36755Y-21318D01*
X36937Y-21355D01*
X37312Y-21355D01*
X37494Y-21318D01*
X37648Y-21215D01*
X37751Y-21061D01*
X37787Y-20880D01*
X37787Y-22256D01*
X37751Y-22074D01*
X37648Y-21920D01*
X37494Y-21817D01*
X37312Y-21781D01*
X36937Y-21781D01*
X36755Y-21817D01*
X36601Y-21920D01*
X36498Y-22074D01*
X36462Y-22256D01*
X36498Y-22437D01*
X36601Y-22591D01*
X36755Y-22694D01*
X36937Y-22731D01*
X37312Y-22731D01*
X37494Y-22694D01*
X37648Y-22591D01*
X37751Y-22437D01*
X37787Y-22256D01*
X37787Y-23634D01*
X37751Y-23452D01*
X37648Y-23298D01*
X37494Y-23195D01*
X37312Y-23159D01*
X36937Y-23159D01*
X36755Y-23195D01*
X36601Y-23298D01*
X36498Y-23452D01*
X36462Y-23634D01*
X36498Y-23815D01*
X36601Y-23969D01*
X36755Y-24072D01*
X36937Y-24109D01*
X37312Y-24109D01*
X37494Y-24072D01*
X37648Y-23969D01*
X37751Y-23815D01*
X37787Y-23634D01*
X37787Y-26392D01*
X37786Y-26386D01*
X37786Y-25011D01*
X37750Y-24829D01*
X37647Y-24675D01*
X37493Y-24572D01*
X37311Y-24536D01*
X36936Y-24536D01*
X36754Y-24572D01*
X36600Y-24675D01*
X36497Y-24829D01*
X36461Y-25011D01*
X36497Y-25192D01*
X36600Y-25346D01*
X36754Y-25449D01*
X36936Y-25486D01*
X37311Y-25486D01*
X37493Y-25449D01*
X37647Y-25346D01*
X37750Y-25192D01*
X37786Y-25011D01*
X37786Y-26386D01*
X37751Y-26210D01*
X37648Y-26056D01*
X37494Y-25953D01*
X37312Y-25917D01*
X36937Y-25917D01*
X36755Y-25953D01*
X36601Y-26056D01*
X36498Y-26210D01*
X36462Y-26392D01*
X36498Y-26573D01*
X36601Y-26727D01*
X36755Y-26830D01*
X36937Y-26867D01*
X37312Y-26867D01*
X37494Y-26830D01*
X37648Y-26727D01*
X37751Y-26573D01*
X37787Y-26392D01*
X37787Y-27763D01*
X37752Y-27587D01*
X37649Y-27433D01*
X37495Y-27330D01*
X37313Y-27294D01*
X36938Y-27294D01*
X36756Y-27330D01*
X36602Y-27433D01*
X36499Y-27587D01*
X36463Y-27769D01*
X36499Y-27950D01*
X36602Y-28104D01*
X36756Y-28207D01*
X36938Y-28244D01*
X37313Y-28244D01*
X37495Y-28207D01*
X37649Y-28104D01*
X37752Y-27950D01*
X37788Y-27769D01*
X37788Y-29750D01*
X33425Y-29750D01*
X33425Y-26816D01*
X33425Y-15816D01*
X33284Y-15476D01*
X33024Y-15216D01*
X32684Y-15075D01*
X32316Y-15074D01*
X31976Y-15215D01*
X31950Y-15242D01*
X31950Y-10212D01*
X31950Y-9787D01*
X31915Y-9615D01*
X31818Y-9469D01*
X31672Y-9371D01*
X31500Y-9337D01*
X31327Y-9371D01*
X31181Y-9469D01*
X31084Y-9615D01*
X31050Y-9787D01*
X31050Y-10212D01*
X31084Y-10384D01*
X31181Y-10530D01*
X31327Y-10628D01*
X31500Y-10662D01*
X31672Y-10628D01*
X31818Y-10530D01*
X31915Y-10384D01*
X31950Y-10212D01*
X31950Y-15242D01*
X31716Y-15475D01*
X31575Y-15815D01*
X31574Y-16183D01*
X31715Y-16523D01*
X31975Y-16783D01*
X32315Y-16924D01*
X32683Y-16925D01*
X33023Y-16784D01*
X33283Y-16524D01*
X33424Y-16184D01*
X33425Y-15816D01*
X33425Y-26816D01*
X33284Y-26476D01*
X33024Y-26216D01*
X32684Y-26075D01*
X32316Y-26074D01*
X31976Y-26215D01*
X31716Y-26475D01*
X31575Y-26815D01*
X31574Y-27183D01*
X31715Y-27523D01*
X31975Y-27783D01*
X32315Y-27924D01*
X32683Y-27925D01*
X33023Y-27784D01*
X33283Y-27524D01*
X33424Y-27184D01*
X33425Y-26816D01*
X33425Y-29750D01*
X31950Y-29750D01*
X31950Y-29212D01*
X31950Y-28787D01*
X31915Y-28615D01*
X31818Y-28469D01*
X31672Y-28371D01*
X31500Y-28337D01*
X31327Y-28371D01*
X31181Y-28469D01*
X31084Y-28615D01*
X31050Y-28787D01*
X31050Y-29212D01*
X31084Y-29384D01*
X31181Y-29530D01*
X31327Y-29628D01*
X31500Y-29662D01*
X31672Y-29628D01*
X31818Y-29530D01*
X31915Y-29384D01*
X31950Y-29212D01*
X31950Y-29750D01*
X30950Y-29750D01*
X30950Y-29212D01*
X30950Y-28787D01*
X30950Y-10212D01*
X30950Y-9787D01*
X30915Y-9615D01*
X30818Y-9469D01*
X30672Y-9371D01*
X30500Y-9337D01*
X30327Y-9371D01*
X30181Y-9469D01*
X30084Y-9615D01*
X30050Y-9787D01*
X30050Y-10212D01*
X30084Y-10384D01*
X30181Y-10530D01*
X30327Y-10628D01*
X30500Y-10662D01*
X30672Y-10628D01*
X30818Y-10530D01*
X30915Y-10384D01*
X30950Y-10212D01*
X30950Y-28787D01*
X30915Y-28615D01*
X30818Y-28469D01*
X30780Y-28443D01*
X30780Y-24220D01*
X30780Y-17780D01*
X30776Y-17760D01*
X30776Y-15101D01*
X30660Y-14816D01*
X30653Y-14806D01*
X30496Y-14788D01*
X30461Y-14824D01*
X30461Y-14753D01*
X30444Y-14596D01*
X30160Y-14476D01*
X29950Y-14474D01*
X29950Y-10212D01*
X29950Y-9787D01*
X29915Y-9615D01*
X29818Y-9469D01*
X29672Y-9371D01*
X29500Y-9337D01*
X29327Y-9371D01*
X29181Y-9469D01*
X29084Y-9615D01*
X29050Y-9787D01*
X29050Y-10212D01*
X29084Y-10384D01*
X29181Y-10530D01*
X29327Y-10628D01*
X29500Y-10662D01*
X29672Y-10628D01*
X29818Y-10530D01*
X29915Y-10384D01*
X29950Y-10212D01*
X29950Y-14474D01*
X29851Y-14473D01*
X29566Y-14589D01*
X29556Y-14596D01*
X29538Y-14753D01*
X30000Y-15214D01*
X30461Y-14753D01*
X30461Y-14824D01*
X30035Y-15250D01*
X30496Y-15711D01*
X30653Y-15694D01*
X30773Y-15410D01*
X30776Y-15101D01*
X30776Y-17760D01*
X30760Y-17684D01*
X30760Y-17684D01*
X30706Y-17603D01*
X30467Y-17363D01*
X30474Y-17344D01*
X30475Y-17155D01*
X30461Y-17122D01*
X30461Y-15746D01*
X30000Y-15285D01*
X29964Y-15320D01*
X29964Y-15250D01*
X29503Y-14788D01*
X29346Y-14806D01*
X29226Y-15089D01*
X29223Y-15398D01*
X29339Y-15683D01*
X29346Y-15694D01*
X29503Y-15711D01*
X29964Y-15250D01*
X29964Y-15320D01*
X29538Y-15746D01*
X29556Y-15903D01*
X29839Y-16023D01*
X30148Y-16026D01*
X30433Y-15910D01*
X30444Y-15903D01*
X30461Y-15746D01*
X30461Y-17122D01*
X30402Y-16981D01*
X30269Y-16847D01*
X30094Y-16775D01*
X29905Y-16774D01*
X29731Y-16847D01*
X29597Y-16980D01*
X29525Y-17155D01*
X29524Y-17344D01*
X29597Y-17518D01*
X29730Y-17652D01*
X29905Y-17724D01*
X30094Y-17725D01*
X30113Y-17717D01*
X30280Y-17883D01*
X30280Y-22026D01*
X30160Y-21976D01*
X29851Y-21973D01*
X29566Y-22089D01*
X29556Y-22096D01*
X29538Y-22253D01*
X30000Y-22714D01*
X30005Y-22709D01*
X30040Y-22744D01*
X30035Y-22750D01*
X30040Y-22755D01*
X30005Y-22790D01*
X30000Y-22785D01*
X29964Y-22820D01*
X29964Y-22750D01*
X29503Y-22288D01*
X29346Y-22306D01*
X29226Y-22589D01*
X29223Y-22898D01*
X29339Y-23183D01*
X29346Y-23194D01*
X29503Y-23211D01*
X29964Y-22750D01*
X29964Y-22820D01*
X29538Y-23246D01*
X29556Y-23403D01*
X29839Y-23523D01*
X30148Y-23526D01*
X30280Y-23472D01*
X30280Y-24116D01*
X30113Y-24282D01*
X30094Y-24275D01*
X29905Y-24274D01*
X29731Y-24347D01*
X29597Y-24480D01*
X29525Y-24655D01*
X29524Y-24844D01*
X29597Y-25018D01*
X29730Y-25152D01*
X29905Y-25224D01*
X30094Y-25225D01*
X30268Y-25152D01*
X30402Y-25019D01*
X30474Y-24844D01*
X30475Y-24655D01*
X30467Y-24636D01*
X30706Y-24396D01*
X30760Y-24315D01*
X30760Y-24315D01*
X30780Y-24220D01*
X30780Y-28443D01*
X30672Y-28371D01*
X30500Y-28337D01*
X30327Y-28371D01*
X30181Y-28469D01*
X30084Y-28615D01*
X30050Y-28787D01*
X30050Y-29212D01*
X30084Y-29384D01*
X30181Y-29530D01*
X30327Y-29628D01*
X30500Y-29662D01*
X30672Y-29628D01*
X30818Y-29530D01*
X30915Y-29384D01*
X30950Y-29212D01*
X30950Y-29750D01*
X29950Y-29750D01*
X29950Y-29212D01*
X29950Y-28787D01*
X29915Y-28615D01*
X29818Y-28469D01*
X29672Y-28371D01*
X29500Y-28337D01*
X29327Y-28371D01*
X29181Y-28469D01*
X29084Y-28615D01*
X29050Y-28787D01*
X29050Y-29212D01*
X29084Y-29384D01*
X29181Y-29530D01*
X29327Y-29628D01*
X29500Y-29662D01*
X29672Y-29628D01*
X29818Y-29530D01*
X29915Y-29384D01*
X29950Y-29212D01*
X29950Y-29750D01*
X28950Y-29750D01*
X28950Y-29212D01*
X28950Y-28787D01*
X28950Y-10212D01*
X28950Y-9787D01*
X28915Y-9615D01*
X28818Y-9469D01*
X28672Y-9371D01*
X28500Y-9337D01*
X28327Y-9371D01*
X28181Y-9469D01*
X28084Y-9615D01*
X28050Y-9787D01*
X28050Y-10212D01*
X28084Y-10384D01*
X28181Y-10530D01*
X28327Y-10628D01*
X28500Y-10662D01*
X28672Y-10628D01*
X28818Y-10530D01*
X28915Y-10384D01*
X28950Y-10212D01*
X28950Y-28787D01*
X28915Y-28615D01*
X28818Y-28469D01*
X28672Y-28371D01*
X28500Y-28337D01*
X28327Y-28371D01*
X28181Y-28469D01*
X28084Y-28615D01*
X28050Y-28787D01*
X28050Y-29212D01*
X28084Y-29384D01*
X28181Y-29530D01*
X28327Y-29628D01*
X28500Y-29662D01*
X28672Y-29628D01*
X28818Y-29530D01*
X28915Y-29384D01*
X28950Y-29212D01*
X28950Y-29750D01*
X27950Y-29750D01*
X27950Y-29212D01*
X27950Y-28787D01*
X27950Y-10212D01*
X27950Y-9787D01*
X27915Y-9615D01*
X27818Y-9469D01*
X27672Y-9371D01*
X27500Y-9337D01*
X27327Y-9371D01*
X27181Y-9469D01*
X27084Y-9615D01*
X27050Y-9787D01*
X27050Y-10212D01*
X27084Y-10384D01*
X27181Y-10530D01*
X27327Y-10628D01*
X27500Y-10662D01*
X27672Y-10628D01*
X27818Y-10530D01*
X27915Y-10384D01*
X27950Y-10212D01*
X27950Y-28787D01*
X27915Y-28615D01*
X27818Y-28469D01*
X27672Y-28371D01*
X27500Y-28337D01*
X27327Y-28371D01*
X27181Y-28469D01*
X27084Y-28615D01*
X27050Y-28787D01*
X27050Y-29212D01*
X27084Y-29384D01*
X27181Y-29530D01*
X27327Y-29628D01*
X27500Y-29662D01*
X27672Y-29628D01*
X27818Y-29530D01*
X27915Y-29384D01*
X27950Y-29212D01*
X27950Y-29750D01*
X26950Y-29750D01*
X26950Y-29212D01*
X26950Y-28787D01*
X26915Y-28615D01*
X26818Y-28469D01*
X26672Y-28371D01*
X26500Y-28337D01*
X26327Y-28371D01*
X26181Y-28469D01*
X26084Y-28615D01*
X26050Y-28787D01*
X26050Y-29212D01*
X26084Y-29384D01*
X26181Y-29530D01*
X26327Y-29628D01*
X26500Y-29662D01*
X26672Y-29628D01*
X26818Y-29530D01*
X26915Y-29384D01*
X26950Y-29212D01*
X26950Y-29750D01*
X24950Y-29750D01*
X24950Y-29212D01*
X24950Y-28787D01*
X24915Y-28615D01*
X24818Y-28469D01*
X24672Y-28371D01*
X24500Y-28337D01*
X24327Y-28371D01*
X24181Y-28469D01*
X24084Y-28615D01*
X24050Y-28787D01*
X24050Y-29212D01*
X24084Y-29384D01*
X24181Y-29530D01*
X24327Y-29628D01*
X24500Y-29662D01*
X24672Y-29628D01*
X24818Y-29530D01*
X24915Y-29384D01*
X24950Y-29212D01*
X24950Y-29750D01*
X23009Y-29750D01*
X23012Y-29748D01*
X23175Y-29521D01*
X23181Y-29530D01*
X23327Y-29628D01*
X23500Y-29662D01*
X23672Y-29628D01*
X23818Y-29530D01*
X23915Y-29384D01*
X23950Y-29212D01*
X23950Y-28787D01*
X23915Y-28615D01*
X23818Y-28469D01*
X23672Y-28371D01*
X23500Y-28337D01*
X23327Y-28371D01*
X23181Y-28469D01*
X23175Y-28478D01*
X23012Y-28251D01*
X22763Y-28097D01*
X22641Y-28063D01*
X22525Y-28162D01*
X22525Y-28975D01*
X22532Y-28975D01*
X22532Y-29025D01*
X22525Y-29025D01*
X22525Y-29032D01*
X22475Y-29032D01*
X22475Y-29025D01*
X22467Y-29025D01*
X22467Y-28975D01*
X22475Y-28975D01*
X22475Y-28162D01*
X22358Y-28063D01*
X22236Y-28097D01*
X21987Y-28251D01*
X21824Y-28478D01*
X21818Y-28469D01*
X21750Y-28423D01*
X21750Y-28403D01*
X22333Y-27820D01*
X23292Y-27820D01*
X23388Y-27801D01*
X23469Y-27747D01*
X25963Y-25253D01*
X26073Y-25326D01*
X26250Y-25361D01*
X26426Y-25326D01*
X26575Y-25227D01*
X26674Y-25077D01*
X26710Y-24901D01*
X26710Y-24598D01*
X26674Y-24422D01*
X26575Y-24272D01*
X26426Y-24173D01*
X26250Y-24138D01*
X26073Y-24173D01*
X25974Y-24239D01*
X25648Y-23914D01*
X25567Y-23860D01*
X25471Y-23841D01*
X24908Y-23841D01*
X24813Y-23860D01*
X24731Y-23914D01*
X24454Y-24192D01*
X24426Y-24173D01*
X24250Y-24138D01*
X24073Y-24173D01*
X23924Y-24272D01*
X23825Y-24422D01*
X23790Y-24598D01*
X23790Y-24901D01*
X23825Y-25077D01*
X23874Y-25151D01*
X23625Y-25151D01*
X23674Y-25077D01*
X23710Y-24901D01*
X23710Y-24598D01*
X23674Y-24422D01*
X23575Y-24272D01*
X23426Y-24173D01*
X23250Y-24138D01*
X23225Y-24143D01*
X23225Y-22537D01*
X23225Y-21775D01*
X23217Y-21775D01*
X23217Y-21725D01*
X23225Y-21725D01*
X23225Y-20962D01*
X23106Y-20863D01*
X22982Y-20898D01*
X22730Y-21054D01*
X22574Y-21272D01*
X22426Y-21173D01*
X22250Y-21138D01*
X22073Y-21173D01*
X21924Y-21272D01*
X21825Y-21422D01*
X21790Y-21598D01*
X21790Y-21901D01*
X21825Y-22077D01*
X21924Y-22227D01*
X22073Y-22326D01*
X22250Y-22361D01*
X22426Y-22326D01*
X22574Y-22227D01*
X22730Y-22445D01*
X22982Y-22601D01*
X23106Y-22636D01*
X23225Y-22537D01*
X23225Y-24143D01*
X23073Y-24173D01*
X22924Y-24272D01*
X22825Y-24422D01*
X22790Y-24598D01*
X22790Y-24901D01*
X22825Y-25077D01*
X22874Y-25151D01*
X22625Y-25151D01*
X22674Y-25077D01*
X22710Y-24901D01*
X22710Y-24598D01*
X22674Y-24422D01*
X22575Y-24272D01*
X22426Y-24173D01*
X22250Y-24138D01*
X22073Y-24173D01*
X21924Y-24272D01*
X21825Y-24422D01*
X21790Y-24598D01*
X21790Y-24901D01*
X21825Y-25077D01*
X21874Y-25151D01*
X21625Y-25151D01*
X21674Y-25077D01*
X21710Y-24901D01*
X21710Y-24598D01*
X21710Y-21901D01*
X21710Y-21598D01*
X21674Y-21422D01*
X21575Y-21272D01*
X21426Y-21173D01*
X21250Y-21138D01*
X21073Y-21173D01*
X20924Y-21272D01*
X20825Y-21422D01*
X20790Y-21598D01*
X20790Y-21901D01*
X20825Y-22077D01*
X20924Y-22227D01*
X21073Y-22326D01*
X21250Y-22361D01*
X21426Y-22326D01*
X21575Y-22227D01*
X21674Y-22077D01*
X21710Y-21901D01*
X21710Y-24598D01*
X21674Y-24422D01*
X21575Y-24272D01*
X21426Y-24173D01*
X21250Y-24138D01*
X21073Y-24173D01*
X20924Y-24272D01*
X20825Y-24422D01*
X20790Y-24598D01*
X20790Y-24901D01*
X20825Y-25077D01*
X20874Y-25151D01*
X20625Y-25151D01*
X20674Y-25077D01*
X20710Y-24901D01*
X20710Y-24598D01*
X20674Y-24422D01*
X20575Y-24272D01*
X20426Y-24173D01*
X20250Y-24138D01*
X20073Y-24173D01*
X19988Y-24230D01*
X19988Y-22269D01*
X20073Y-22326D01*
X20250Y-22361D01*
X20426Y-22326D01*
X20575Y-22227D01*
X20674Y-22077D01*
X20710Y-21901D01*
X20710Y-21598D01*
X20674Y-21422D01*
X20575Y-21272D01*
X20426Y-21173D01*
X20250Y-21138D01*
X20073Y-21173D01*
X19988Y-21230D01*
X19988Y-18282D01*
X20114Y-18157D01*
X24592Y-18157D01*
X24688Y-18137D01*
X24769Y-18083D01*
X25045Y-17807D01*
X25073Y-17826D01*
X25250Y-17861D01*
X25426Y-17826D01*
X25575Y-17727D01*
X25674Y-17577D01*
X25710Y-17401D01*
X25710Y-17098D01*
X25701Y-17054D01*
X25790Y-17143D01*
X25790Y-17401D01*
X25825Y-17577D01*
X25924Y-17727D01*
X26073Y-17826D01*
X26250Y-17861D01*
X26426Y-17826D01*
X26528Y-17758D01*
X26528Y-18368D01*
X24073Y-20823D01*
X24019Y-20904D01*
X24000Y-21000D01*
X24000Y-21222D01*
X23925Y-21272D01*
X23769Y-21054D01*
X23517Y-20898D01*
X23393Y-20863D01*
X23275Y-20962D01*
X23275Y-21725D01*
X23282Y-21725D01*
X23282Y-21775D01*
X23275Y-21775D01*
X23275Y-22537D01*
X23393Y-22636D01*
X23517Y-22601D01*
X23769Y-22445D01*
X23925Y-22227D01*
X24073Y-22326D01*
X24250Y-22361D01*
X24426Y-22326D01*
X24575Y-22227D01*
X24674Y-22077D01*
X24710Y-21901D01*
X24710Y-21598D01*
X24674Y-21422D01*
X24575Y-21272D01*
X24500Y-21222D01*
X24500Y-21103D01*
X25000Y-20603D01*
X25000Y-21222D01*
X24924Y-21272D01*
X24825Y-21422D01*
X24790Y-21598D01*
X24790Y-21901D01*
X24825Y-22077D01*
X24924Y-22227D01*
X25073Y-22326D01*
X25250Y-22361D01*
X25426Y-22326D01*
X25575Y-22227D01*
X25674Y-22077D01*
X25710Y-21901D01*
X25710Y-21598D01*
X25674Y-21422D01*
X25575Y-21272D01*
X25500Y-21222D01*
X25500Y-20614D01*
X27128Y-18985D01*
X27128Y-21028D01*
X26710Y-21446D01*
X26710Y-21270D01*
X26687Y-21215D01*
X26644Y-21172D01*
X26589Y-21150D01*
X26530Y-21150D01*
X25910Y-21150D01*
X25855Y-21172D01*
X25812Y-21215D01*
X25790Y-21270D01*
X25790Y-21329D01*
X25790Y-22229D01*
X25812Y-22284D01*
X25855Y-22327D01*
X25910Y-22350D01*
X25969Y-22350D01*
X26589Y-22350D01*
X26644Y-22327D01*
X26687Y-22284D01*
X26710Y-22229D01*
X26710Y-22170D01*
X26710Y-22000D01*
X26760Y-22000D01*
X26855Y-21980D01*
X26936Y-21926D01*
X27555Y-21308D01*
X27609Y-21227D01*
X27628Y-21131D01*
X27628Y-21131D01*
X27628Y-21131D01*
X27628Y-11578D01*
X27628Y-11578D01*
X27628Y-11578D01*
X27609Y-11482D01*
X27555Y-11401D01*
X27555Y-11401D01*
X27555Y-11401D01*
X26750Y-10596D01*
X26750Y-10576D01*
X26818Y-10530D01*
X26915Y-10384D01*
X26950Y-10212D01*
X26950Y-9787D01*
X26915Y-9615D01*
X26818Y-9469D01*
X26672Y-9371D01*
X26500Y-9337D01*
X26327Y-9371D01*
X26181Y-9469D01*
X26084Y-9615D01*
X26050Y-9787D01*
X26050Y-10212D01*
X26084Y-10384D01*
X26181Y-10530D01*
X26250Y-10576D01*
X26250Y-10700D01*
X26269Y-10795D01*
X26323Y-10876D01*
X27128Y-11682D01*
X27128Y-16425D01*
X26710Y-16006D01*
X26710Y-14729D01*
X26710Y-14670D01*
X26710Y-13770D01*
X26687Y-13715D01*
X26644Y-13672D01*
X26589Y-13650D01*
X26530Y-13650D01*
X26500Y-13650D01*
X26500Y-11450D01*
X26480Y-11354D01*
X26426Y-11273D01*
X25750Y-10596D01*
X25750Y-10576D01*
X25818Y-10530D01*
X25915Y-10384D01*
X25950Y-10212D01*
X25950Y-9787D01*
X25915Y-9615D01*
X25818Y-9469D01*
X25672Y-9371D01*
X25500Y-9337D01*
X25327Y-9371D01*
X25181Y-9469D01*
X25084Y-9615D01*
X25050Y-9787D01*
X25050Y-10212D01*
X25084Y-10384D01*
X25181Y-10530D01*
X25250Y-10576D01*
X25250Y-10700D01*
X25269Y-10795D01*
X25323Y-10876D01*
X26000Y-11553D01*
X26000Y-13650D01*
X25910Y-13650D01*
X25855Y-13672D01*
X25812Y-13715D01*
X25790Y-13770D01*
X25790Y-13829D01*
X25790Y-14729D01*
X25812Y-14784D01*
X25855Y-14827D01*
X25910Y-14850D01*
X25969Y-14850D01*
X26589Y-14850D01*
X26644Y-14827D01*
X26687Y-14784D01*
X26710Y-14729D01*
X26710Y-16006D01*
X25500Y-14796D01*
X25500Y-14777D01*
X25575Y-14727D01*
X25674Y-14577D01*
X25710Y-14401D01*
X25710Y-14098D01*
X25674Y-13922D01*
X25575Y-13772D01*
X25426Y-13673D01*
X25250Y-13638D01*
X25073Y-13673D01*
X24950Y-13756D01*
X24950Y-10212D01*
X24950Y-9787D01*
X24915Y-9615D01*
X24818Y-9469D01*
X24672Y-9371D01*
X24500Y-9337D01*
X24327Y-9371D01*
X24181Y-9469D01*
X24084Y-9615D01*
X24050Y-9787D01*
X24050Y-10212D01*
X24084Y-10384D01*
X24181Y-10530D01*
X24327Y-10628D01*
X24500Y-10662D01*
X24672Y-10628D01*
X24818Y-10530D01*
X24915Y-10384D01*
X24950Y-10212D01*
X24950Y-13756D01*
X24924Y-13772D01*
X24825Y-13922D01*
X24790Y-14098D01*
X24790Y-14401D01*
X24825Y-14577D01*
X24924Y-14727D01*
X25000Y-14777D01*
X25000Y-14900D01*
X25019Y-14995D01*
X25073Y-15076D01*
X25358Y-15362D01*
X25265Y-15362D01*
X24597Y-14693D01*
X24674Y-14577D01*
X24710Y-14401D01*
X24710Y-14098D01*
X24674Y-13922D01*
X24575Y-13772D01*
X24500Y-13722D01*
X24500Y-13550D01*
X24480Y-13454D01*
X24426Y-13373D01*
X23626Y-12573D01*
X23545Y-12519D01*
X23450Y-12500D01*
X23350Y-12500D01*
X23350Y-10212D01*
X23350Y-9787D01*
X23315Y-9615D01*
X23218Y-9469D01*
X23072Y-9371D01*
X22900Y-9337D01*
X22727Y-9371D01*
X22581Y-9469D01*
X22484Y-9615D01*
X22450Y-9787D01*
X22450Y-10212D01*
X22484Y-10384D01*
X22581Y-10530D01*
X22727Y-10628D01*
X22900Y-10662D01*
X23072Y-10628D01*
X23218Y-10530D01*
X23315Y-10384D01*
X23350Y-10212D01*
X23350Y-12500D01*
X22350Y-12500D01*
X22350Y-10212D01*
X22350Y-9787D01*
X22315Y-9615D01*
X22218Y-9469D01*
X22072Y-9371D01*
X21900Y-9337D01*
X21727Y-9371D01*
X21581Y-9469D01*
X21484Y-9615D01*
X21450Y-9787D01*
X21450Y-10212D01*
X21484Y-10384D01*
X21581Y-10530D01*
X21727Y-10628D01*
X21900Y-10662D01*
X22072Y-10628D01*
X22218Y-10530D01*
X22315Y-10384D01*
X22350Y-10212D01*
X22350Y-12500D01*
X22053Y-12500D01*
X21350Y-11796D01*
X21350Y-10212D01*
X21350Y-9787D01*
X21315Y-9615D01*
X21218Y-9469D01*
X21072Y-9371D01*
X20900Y-9337D01*
X20727Y-9371D01*
X20581Y-9469D01*
X20484Y-9615D01*
X20450Y-9787D01*
X20450Y-10212D01*
X20484Y-10384D01*
X20581Y-10530D01*
X20727Y-10628D01*
X20900Y-10662D01*
X21072Y-10628D01*
X21218Y-10530D01*
X21315Y-10384D01*
X21350Y-10212D01*
X21350Y-11796D01*
X20150Y-10596D01*
X20150Y-10576D01*
X20218Y-10530D01*
X20315Y-10384D01*
X20350Y-10212D01*
X20350Y-9787D01*
X20315Y-9615D01*
X20218Y-9469D01*
X20072Y-9371D01*
X19900Y-9337D01*
X19727Y-9371D01*
X19581Y-9469D01*
X19484Y-9615D01*
X19450Y-9787D01*
X19450Y-10212D01*
X19484Y-10384D01*
X19581Y-10530D01*
X19650Y-10576D01*
X19650Y-10700D01*
X19669Y-10795D01*
X19723Y-10876D01*
X21773Y-12926D01*
X21854Y-12980D01*
X21950Y-13000D01*
X23346Y-13000D01*
X24000Y-13653D01*
X24000Y-13722D01*
X23925Y-13772D01*
X23769Y-13554D01*
X23517Y-13398D01*
X23393Y-13363D01*
X23275Y-13462D01*
X23275Y-14225D01*
X23282Y-14225D01*
X23282Y-14275D01*
X23275Y-14275D01*
X23275Y-15037D01*
X23393Y-15136D01*
X23517Y-15101D01*
X23769Y-14945D01*
X23925Y-14727D01*
X24017Y-14789D01*
X24019Y-14795D01*
X24073Y-14876D01*
X24985Y-15788D01*
X25066Y-15843D01*
X25162Y-15862D01*
X25387Y-15862D01*
X26177Y-16652D01*
X26073Y-16673D01*
X26045Y-16692D01*
X25770Y-16417D01*
X25689Y-16362D01*
X25593Y-16343D01*
X24906Y-16343D01*
X24810Y-16362D01*
X24729Y-16417D01*
X24454Y-16692D01*
X24426Y-16673D01*
X24250Y-16638D01*
X24073Y-16673D01*
X23924Y-16772D01*
X23825Y-16922D01*
X23790Y-17098D01*
X23790Y-17401D01*
X23825Y-17577D01*
X23877Y-17657D01*
X23622Y-17657D01*
X23674Y-17577D01*
X23710Y-17401D01*
X23710Y-17098D01*
X23674Y-16922D01*
X23575Y-16772D01*
X23426Y-16673D01*
X23250Y-16638D01*
X23225Y-16643D01*
X23225Y-15037D01*
X23225Y-14275D01*
X23217Y-14275D01*
X23217Y-14225D01*
X23225Y-14225D01*
X23225Y-13462D01*
X23106Y-13363D01*
X22982Y-13398D01*
X22730Y-13554D01*
X22574Y-13772D01*
X22426Y-13673D01*
X22250Y-13638D01*
X22073Y-13673D01*
X21924Y-13772D01*
X21825Y-13922D01*
X21790Y-14098D01*
X21790Y-14401D01*
X21825Y-14577D01*
X21924Y-14727D01*
X22073Y-14826D01*
X22250Y-14861D01*
X22426Y-14826D01*
X22574Y-14727D01*
X22730Y-14945D01*
X22982Y-15101D01*
X23106Y-15136D01*
X23225Y-15037D01*
X23225Y-16643D01*
X23073Y-16673D01*
X22924Y-16772D01*
X22825Y-16922D01*
X22790Y-17098D01*
X22790Y-17401D01*
X22825Y-17577D01*
X22877Y-17657D01*
X22622Y-17657D01*
X22674Y-17577D01*
X22710Y-17401D01*
X22710Y-17098D01*
X22674Y-16922D01*
X22575Y-16772D01*
X22426Y-16673D01*
X22250Y-16638D01*
X22073Y-16673D01*
X21924Y-16772D01*
X21825Y-16922D01*
X21790Y-17098D01*
X21790Y-17401D01*
X21825Y-17577D01*
X21877Y-17657D01*
X21622Y-17657D01*
X21674Y-17577D01*
X21710Y-17401D01*
X21710Y-17098D01*
X21710Y-14401D01*
X21710Y-14098D01*
X21674Y-13922D01*
X21575Y-13772D01*
X21426Y-13673D01*
X21250Y-13638D01*
X21073Y-13673D01*
X20924Y-13772D01*
X20825Y-13922D01*
X20790Y-14098D01*
X20790Y-14401D01*
X20825Y-14577D01*
X20924Y-14727D01*
X21073Y-14826D01*
X21250Y-14861D01*
X21426Y-14826D01*
X21575Y-14727D01*
X21674Y-14577D01*
X21710Y-14401D01*
X21710Y-17098D01*
X21674Y-16922D01*
X21575Y-16772D01*
X21426Y-16673D01*
X21250Y-16638D01*
X21073Y-16673D01*
X20924Y-16772D01*
X20825Y-16922D01*
X20790Y-17098D01*
X20790Y-17401D01*
X20825Y-17577D01*
X20877Y-17657D01*
X20622Y-17657D01*
X20674Y-17577D01*
X20710Y-17401D01*
X20710Y-17098D01*
X20710Y-14401D01*
X20710Y-14098D01*
X20674Y-13922D01*
X20575Y-13772D01*
X20426Y-13673D01*
X20250Y-13638D01*
X20073Y-13673D01*
X19924Y-13772D01*
X19825Y-13922D01*
X19790Y-14098D01*
X19790Y-14401D01*
X19825Y-14577D01*
X19924Y-14727D01*
X20073Y-14826D01*
X20250Y-14861D01*
X20426Y-14826D01*
X20575Y-14727D01*
X20674Y-14577D01*
X20710Y-14401D01*
X20710Y-17098D01*
X20674Y-16922D01*
X20575Y-16772D01*
X20426Y-16673D01*
X20250Y-16638D01*
X20073Y-16673D01*
X19924Y-16772D01*
X19825Y-16922D01*
X19790Y-17098D01*
X19790Y-17332D01*
X19150Y-16692D01*
X19150Y-10576D01*
X19218Y-10530D01*
X19315Y-10384D01*
X19350Y-10212D01*
X19350Y-9787D01*
X19315Y-9615D01*
X19218Y-9469D01*
X19072Y-9371D01*
X18900Y-9337D01*
X18727Y-9371D01*
X18581Y-9469D01*
X18484Y-9615D01*
X18450Y-9787D01*
X18450Y-10212D01*
X18484Y-10384D01*
X18581Y-10530D01*
X18650Y-10576D01*
X18650Y-16795D01*
X18669Y-16891D01*
X18723Y-16972D01*
X19657Y-17907D01*
X19561Y-18002D01*
X19507Y-18083D01*
X19488Y-18179D01*
X19488Y-25113D01*
X19507Y-25208D01*
X19561Y-25289D01*
X19850Y-25577D01*
X19850Y-25577D01*
X19898Y-25610D01*
X19931Y-25632D01*
X19931Y-25632D01*
X20026Y-25651D01*
X24598Y-25651D01*
X24694Y-25632D01*
X24775Y-25577D01*
X25045Y-25307D01*
X25073Y-25326D01*
X25164Y-25344D01*
X23189Y-27320D01*
X22229Y-27320D01*
X22133Y-27339D01*
X22052Y-27393D01*
X21323Y-28123D01*
X21269Y-28204D01*
X21250Y-28299D01*
X21250Y-28423D01*
X21181Y-28469D01*
X21084Y-28615D01*
X21050Y-28787D01*
X21050Y-29212D01*
X21084Y-29384D01*
X21181Y-29530D01*
X21327Y-29628D01*
X21500Y-29662D01*
X21672Y-29628D01*
X21818Y-29530D01*
X21824Y-29521D01*
X21987Y-29748D01*
X21990Y-29750D01*
X20950Y-29750D01*
X20950Y-29212D01*
X20950Y-28787D01*
X20915Y-28615D01*
X20818Y-28469D01*
X20672Y-28371D01*
X20500Y-28337D01*
X20327Y-28371D01*
X20181Y-28469D01*
X20084Y-28615D01*
X20050Y-28787D01*
X20050Y-29212D01*
X20084Y-29384D01*
X20181Y-29530D01*
X20327Y-29628D01*
X20500Y-29662D01*
X20672Y-29628D01*
X20818Y-29530D01*
X20915Y-29384D01*
X20950Y-29212D01*
X20950Y-29750D01*
X19950Y-29750D01*
X19950Y-29212D01*
X19950Y-28787D01*
X19915Y-28615D01*
X19818Y-28469D01*
X19672Y-28371D01*
X19500Y-28337D01*
X19327Y-28371D01*
X19181Y-28469D01*
X19084Y-28615D01*
X19050Y-28787D01*
X19050Y-29212D01*
X19084Y-29384D01*
X19181Y-29530D01*
X19327Y-29628D01*
X19500Y-29662D01*
X19672Y-29628D01*
X19818Y-29530D01*
X19915Y-29384D01*
X19950Y-29212D01*
X19950Y-29750D01*
X18350Y-29750D01*
X18350Y-10212D01*
X18350Y-9787D01*
X18315Y-9615D01*
X18218Y-9469D01*
X18072Y-9371D01*
X17900Y-9337D01*
X17727Y-9371D01*
X17581Y-9469D01*
X17484Y-9615D01*
X17450Y-9787D01*
X17450Y-10212D01*
X17484Y-10384D01*
X17581Y-10530D01*
X17727Y-10628D01*
X17900Y-10662D01*
X18072Y-10628D01*
X18218Y-10530D01*
X18315Y-10384D01*
X18350Y-10212D01*
X18350Y-29750D01*
X17350Y-29750D01*
X17350Y-10212D01*
X17350Y-9787D01*
X17315Y-9615D01*
X17218Y-9469D01*
X17072Y-9371D01*
X16900Y-9337D01*
X16727Y-9371D01*
X16581Y-9469D01*
X16484Y-9615D01*
X16450Y-9787D01*
X16450Y-10212D01*
X16484Y-10384D01*
X16581Y-10530D01*
X16727Y-10628D01*
X16900Y-10662D01*
X17072Y-10628D01*
X17218Y-10530D01*
X17315Y-10384D01*
X17350Y-10212D01*
X17350Y-29750D01*
X16350Y-29750D01*
X16350Y-10212D01*
X16350Y-9787D01*
X16315Y-9615D01*
X16218Y-9469D01*
X16072Y-9371D01*
X15900Y-9337D01*
X15727Y-9371D01*
X15581Y-9469D01*
X15484Y-9615D01*
X15450Y-9787D01*
X15450Y-10212D01*
X15484Y-10384D01*
X15581Y-10530D01*
X15727Y-10628D01*
X15900Y-10662D01*
X16072Y-10628D01*
X16218Y-10530D01*
X16315Y-10384D01*
X16350Y-10212D01*
X16350Y-29750D01*
X12557Y-29750D01*
X12783Y-29524D01*
X12924Y-29184D01*
X12925Y-28816D01*
X12784Y-28476D01*
X12524Y-28216D01*
X12184Y-28075D01*
X11816Y-28074D01*
X11476Y-28215D01*
X11216Y-28475D01*
X11075Y-28815D01*
X11074Y-29183D01*
X11215Y-29523D01*
X11441Y-29750D01*
X10250Y-29750D01*
X10250Y-9250D01*
X11942Y-9250D01*
X11716Y-9475D01*
X11575Y-9815D01*
X11574Y-10183D01*
X11715Y-10523D01*
X11975Y-10783D01*
X12315Y-10924D01*
X12683Y-10925D01*
X13023Y-10784D01*
X13283Y-10524D01*
X13424Y-10184D01*
X13425Y-9816D01*
X13284Y-9476D01*
X13058Y-9250D01*
X38250Y-9250D01*
X38250Y-29750D01*
X38250Y-29750D01*
G37*
G54D18*
X38250Y-29750D02*
X38060Y-29750D01*
X38060Y-11378D01*
X38060Y-11087D01*
X38024Y-10959D01*
X37864Y-10702D01*
X37618Y-10526D01*
X37324Y-10458D01*
X37149Y-10458D01*
X37149Y-11208D01*
X37961Y-11208D01*
X38060Y-11087D01*
X38060Y-11378D01*
X37961Y-11258D01*
X37149Y-11258D01*
X37149Y-12008D01*
X37324Y-12008D01*
X37618Y-11939D01*
X37864Y-11763D01*
X38024Y-11506D01*
X38060Y-11378D01*
X38060Y-29750D01*
X37788Y-29750D01*
X37788Y-27769D01*
X37787Y-27763D01*
X37787Y-26392D01*
X37787Y-23634D01*
X37787Y-22256D01*
X37787Y-20880D01*
X37787Y-19501D01*
X37786Y-19495D01*
X37786Y-18123D01*
X37786Y-16745D01*
X37786Y-15365D01*
X37786Y-13989D01*
X37785Y-13983D01*
X37785Y-12611D01*
X37749Y-12429D01*
X37646Y-12275D01*
X37492Y-12172D01*
X37310Y-12136D01*
X37099Y-12136D01*
X37099Y-12008D01*
X37099Y-11258D01*
X37099Y-11208D01*
X37099Y-10458D01*
X36924Y-10458D01*
X36629Y-10526D01*
X36383Y-10702D01*
X36223Y-10959D01*
X36187Y-11087D01*
X36286Y-11208D01*
X37099Y-11208D01*
X37099Y-11258D01*
X36286Y-11258D01*
X36187Y-11378D01*
X36223Y-11506D01*
X36383Y-11763D01*
X36629Y-11939D01*
X36924Y-12008D01*
X37099Y-12008D01*
X37099Y-12136D01*
X36935Y-12136D01*
X36753Y-12172D01*
X36599Y-12275D01*
X36496Y-12429D01*
X36460Y-12611D01*
X36496Y-12792D01*
X36599Y-12946D01*
X36753Y-13049D01*
X36935Y-13086D01*
X37310Y-13086D01*
X37492Y-13049D01*
X37646Y-12946D01*
X37749Y-12792D01*
X37785Y-12611D01*
X37785Y-13983D01*
X37750Y-13807D01*
X37647Y-13653D01*
X37493Y-13550D01*
X37311Y-13514D01*
X36936Y-13514D01*
X36754Y-13550D01*
X36600Y-13653D01*
X36497Y-13807D01*
X36461Y-13989D01*
X36497Y-14170D01*
X36600Y-14324D01*
X36754Y-14427D01*
X36936Y-14464D01*
X37311Y-14464D01*
X37493Y-14427D01*
X37647Y-14324D01*
X37750Y-14170D01*
X37786Y-13989D01*
X37786Y-15365D01*
X37750Y-15183D01*
X37647Y-15029D01*
X37493Y-14926D01*
X37311Y-14890D01*
X36936Y-14890D01*
X36754Y-14926D01*
X36600Y-15029D01*
X36497Y-15183D01*
X36461Y-15365D01*
X36497Y-15546D01*
X36600Y-15700D01*
X36754Y-15803D01*
X36936Y-15840D01*
X37311Y-15840D01*
X37493Y-15803D01*
X37647Y-15700D01*
X37750Y-15546D01*
X37786Y-15365D01*
X37786Y-16745D01*
X37750Y-16563D01*
X37647Y-16409D01*
X37493Y-16306D01*
X37311Y-16270D01*
X36936Y-16270D01*
X36754Y-16306D01*
X36600Y-16409D01*
X36497Y-16563D01*
X36461Y-16745D01*
X36497Y-16926D01*
X36600Y-17080D01*
X36754Y-17183D01*
X36936Y-17220D01*
X37311Y-17220D01*
X37493Y-17183D01*
X37647Y-17080D01*
X37750Y-16926D01*
X37786Y-16745D01*
X37786Y-18123D01*
X37750Y-17941D01*
X37647Y-17787D01*
X37493Y-17684D01*
X37311Y-17648D01*
X36936Y-17648D01*
X36754Y-17684D01*
X36600Y-17787D01*
X36497Y-17941D01*
X36461Y-18123D01*
X36497Y-18304D01*
X36600Y-18458D01*
X36754Y-18561D01*
X36936Y-18598D01*
X37311Y-18598D01*
X37493Y-18561D01*
X37647Y-18458D01*
X37750Y-18304D01*
X37786Y-18123D01*
X37786Y-19495D01*
X37751Y-19319D01*
X37648Y-19165D01*
X37494Y-19062D01*
X37312Y-19026D01*
X36937Y-19026D01*
X36755Y-19062D01*
X36601Y-19165D01*
X36498Y-19319D01*
X36462Y-19501D01*
X36498Y-19682D01*
X36601Y-19836D01*
X36755Y-19939D01*
X36937Y-19976D01*
X37312Y-19976D01*
X37494Y-19939D01*
X37648Y-19836D01*
X37751Y-19682D01*
X37787Y-19501D01*
X37787Y-20880D01*
X37751Y-20698D01*
X37648Y-20544D01*
X37494Y-20441D01*
X37312Y-20405D01*
X36937Y-20405D01*
X36755Y-20441D01*
X36601Y-20544D01*
X36498Y-20698D01*
X36462Y-20880D01*
X36498Y-21061D01*
X36601Y-21215D01*
X36755Y-21318D01*
X36937Y-21355D01*
X37312Y-21355D01*
X37494Y-21318D01*
X37648Y-21215D01*
X37751Y-21061D01*
X37787Y-20880D01*
X37787Y-22256D01*
X37751Y-22074D01*
X37648Y-21920D01*
X37494Y-21817D01*
X37312Y-21781D01*
X36937Y-21781D01*
X36755Y-21817D01*
X36601Y-21920D01*
X36498Y-22074D01*
X36462Y-22256D01*
X36498Y-22437D01*
X36601Y-22591D01*
X36755Y-22694D01*
X36937Y-22731D01*
X37312Y-22731D01*
X37494Y-22694D01*
X37648Y-22591D01*
X37751Y-22437D01*
X37787Y-22256D01*
X37787Y-23634D01*
X37751Y-23452D01*
X37648Y-23298D01*
X37494Y-23195D01*
X37312Y-23159D01*
X36937Y-23159D01*
X36755Y-23195D01*
X36601Y-23298D01*
X36498Y-23452D01*
X36462Y-23634D01*
X36498Y-23815D01*
X36601Y-23969D01*
X36755Y-24072D01*
X36937Y-24109D01*
X37312Y-24109D01*
X37494Y-24072D01*
X37648Y-23969D01*
X37751Y-23815D01*
X37787Y-23634D01*
X37787Y-26392D01*
X37786Y-26386D01*
X37786Y-25011D01*
X37750Y-24829D01*
X37647Y-24675D01*
X37493Y-24572D01*
X37311Y-24536D01*
X36936Y-24536D01*
X36754Y-24572D01*
X36600Y-24675D01*
X36497Y-24829D01*
X36461Y-25011D01*
X36497Y-25192D01*
X36600Y-25346D01*
X36754Y-25449D01*
X36936Y-25486D01*
X37311Y-25486D01*
X37493Y-25449D01*
X37647Y-25346D01*
X37750Y-25192D01*
X37786Y-25011D01*
X37786Y-26386D01*
X37751Y-26210D01*
X37648Y-26056D01*
X37494Y-25953D01*
X37312Y-25917D01*
X36937Y-25917D01*
X36755Y-25953D01*
X36601Y-26056D01*
X36498Y-26210D01*
X36462Y-26392D01*
X36498Y-26573D01*
X36601Y-26727D01*
X36755Y-26830D01*
X36937Y-26867D01*
X37312Y-26867D01*
X37494Y-26830D01*
X37648Y-26727D01*
X37751Y-26573D01*
X37787Y-26392D01*
X37787Y-27763D01*
X37752Y-27587D01*
X37649Y-27433D01*
X37495Y-27330D01*
X37313Y-27294D01*
X36938Y-27294D01*
X36756Y-27330D01*
X36602Y-27433D01*
X36499Y-27587D01*
X36463Y-27769D01*
X36499Y-27950D01*
X36602Y-28104D01*
X36756Y-28207D01*
X36938Y-28244D01*
X37313Y-28244D01*
X37495Y-28207D01*
X37649Y-28104D01*
X37752Y-27950D01*
X37788Y-27769D01*
X37788Y-29750D01*
X33425Y-29750D01*
X33425Y-26816D01*
X33425Y-15816D01*
X33284Y-15476D01*
X33024Y-15216D01*
X32684Y-15075D01*
X32316Y-15074D01*
X31976Y-15215D01*
X31950Y-15242D01*
X31950Y-10212D01*
X31950Y-9787D01*
X31915Y-9615D01*
X31818Y-9469D01*
X31672Y-9371D01*
X31500Y-9337D01*
X31327Y-9371D01*
X31181Y-9469D01*
X31084Y-9615D01*
X31050Y-9787D01*
X31050Y-10212D01*
X31084Y-10384D01*
X31181Y-10530D01*
X31327Y-10628D01*
X31500Y-10662D01*
X31672Y-10628D01*
X31818Y-10530D01*
X31915Y-10384D01*
X31950Y-10212D01*
X31950Y-15242D01*
X31716Y-15475D01*
X31575Y-15815D01*
X31574Y-16183D01*
X31715Y-16523D01*
X31975Y-16783D01*
X32315Y-16924D01*
X32683Y-16925D01*
X33023Y-16784D01*
X33283Y-16524D01*
X33424Y-16184D01*
X33425Y-15816D01*
X33425Y-26816D01*
X33284Y-26476D01*
X33024Y-26216D01*
X32684Y-26075D01*
X32316Y-26074D01*
X31976Y-26215D01*
X31716Y-26475D01*
X31575Y-26815D01*
X31574Y-27183D01*
X31715Y-27523D01*
X31975Y-27783D01*
X32315Y-27924D01*
X32683Y-27925D01*
X33023Y-27784D01*
X33283Y-27524D01*
X33424Y-27184D01*
X33425Y-26816D01*
X33425Y-29750D01*
X31950Y-29750D01*
X31950Y-29212D01*
X31950Y-28787D01*
X31915Y-28615D01*
X31818Y-28469D01*
X31672Y-28371D01*
X31500Y-28337D01*
X31327Y-28371D01*
X31181Y-28469D01*
X31084Y-28615D01*
X31050Y-28787D01*
X31050Y-29212D01*
X31084Y-29384D01*
X31181Y-29530D01*
X31327Y-29628D01*
X31500Y-29662D01*
X31672Y-29628D01*
X31818Y-29530D01*
X31915Y-29384D01*
X31950Y-29212D01*
X31950Y-29750D01*
X30950Y-29750D01*
X30950Y-29212D01*
X30950Y-28787D01*
X30950Y-10212D01*
X30950Y-9787D01*
X30915Y-9615D01*
X30818Y-9469D01*
X30672Y-9371D01*
X30500Y-9337D01*
X30327Y-9371D01*
X30181Y-9469D01*
X30084Y-9615D01*
X30050Y-9787D01*
X30050Y-10212D01*
X30084Y-10384D01*
X30181Y-10530D01*
X30327Y-10628D01*
X30500Y-10662D01*
X30672Y-10628D01*
X30818Y-10530D01*
X30915Y-10384D01*
X30950Y-10212D01*
X30950Y-28787D01*
X30915Y-28615D01*
X30818Y-28469D01*
X30780Y-28443D01*
X30780Y-24220D01*
X30780Y-17780D01*
X30776Y-17760D01*
X30776Y-15101D01*
X30660Y-14816D01*
X30653Y-14806D01*
X30496Y-14788D01*
X30461Y-14824D01*
X30461Y-14753D01*
X30444Y-14596D01*
X30160Y-14476D01*
X29950Y-14474D01*
X29950Y-10212D01*
X29950Y-9787D01*
X29915Y-9615D01*
X29818Y-9469D01*
X29672Y-9371D01*
X29500Y-9337D01*
X29327Y-9371D01*
X29181Y-9469D01*
X29084Y-9615D01*
X29050Y-9787D01*
X29050Y-10212D01*
X29084Y-10384D01*
X29181Y-10530D01*
X29327Y-10628D01*
X29500Y-10662D01*
X29672Y-10628D01*
X29818Y-10530D01*
X29915Y-10384D01*
X29950Y-10212D01*
X29950Y-14474D01*
X29851Y-14473D01*
X29566Y-14589D01*
X29556Y-14596D01*
X29538Y-14753D01*
X30000Y-15214D01*
X30461Y-14753D01*
X30461Y-14824D01*
X30035Y-15250D01*
X30496Y-15711D01*
X30653Y-15694D01*
X30773Y-15410D01*
X30776Y-15101D01*
X30776Y-17760D01*
X30760Y-17684D01*
X30760Y-17684D01*
X30706Y-17603D01*
X30467Y-17363D01*
X30474Y-17344D01*
X30475Y-17155D01*
X30461Y-17122D01*
X30461Y-15746D01*
X30000Y-15285D01*
X29964Y-15320D01*
X29964Y-15250D01*
X29503Y-14788D01*
X29346Y-14806D01*
X29226Y-15089D01*
X29223Y-15398D01*
X29339Y-15683D01*
X29346Y-15694D01*
X29503Y-15711D01*
X29964Y-15250D01*
X29964Y-15320D01*
X29538Y-15746D01*
X29556Y-15903D01*
X29839Y-16023D01*
X30148Y-16026D01*
X30433Y-15910D01*
X30444Y-15903D01*
X30461Y-15746D01*
X30461Y-17122D01*
X30402Y-16981D01*
X30269Y-16847D01*
X30094Y-16775D01*
X29905Y-16774D01*
X29731Y-16847D01*
X29597Y-16980D01*
X29525Y-17155D01*
X29524Y-17344D01*
X29597Y-17518D01*
X29730Y-17652D01*
X29905Y-17724D01*
X30094Y-17725D01*
X30113Y-17717D01*
X30280Y-17883D01*
X30280Y-22026D01*
X30160Y-21976D01*
X29851Y-21973D01*
X29566Y-22089D01*
X29556Y-22096D01*
X29538Y-22253D01*
X30000Y-22714D01*
X30005Y-22709D01*
X30040Y-22744D01*
X30035Y-22750D01*
X30040Y-22755D01*
X30005Y-22790D01*
X30000Y-22785D01*
X29964Y-22820D01*
X29964Y-22750D01*
X29503Y-22288D01*
X29346Y-22306D01*
X29226Y-22589D01*
X29223Y-22898D01*
X29339Y-23183D01*
X29346Y-23194D01*
X29503Y-23211D01*
X29964Y-22750D01*
X29964Y-22820D01*
X29538Y-23246D01*
X29556Y-23403D01*
X29839Y-23523D01*
X30148Y-23526D01*
X30280Y-23472D01*
X30280Y-24116D01*
X30113Y-24282D01*
X30094Y-24275D01*
X29905Y-24274D01*
X29731Y-24347D01*
X29597Y-24480D01*
X29525Y-24655D01*
X29524Y-24844D01*
X29597Y-25018D01*
X29730Y-25152D01*
X29905Y-25224D01*
X30094Y-25225D01*
X30268Y-25152D01*
X30402Y-25019D01*
X30474Y-24844D01*
X30475Y-24655D01*
X30467Y-24636D01*
X30706Y-24396D01*
X30760Y-24315D01*
X30760Y-24315D01*
X30780Y-24220D01*
X30780Y-28443D01*
X30672Y-28371D01*
X30500Y-28337D01*
X30327Y-28371D01*
X30181Y-28469D01*
X30084Y-28615D01*
X30050Y-28787D01*
X30050Y-29212D01*
X30084Y-29384D01*
X30181Y-29530D01*
X30327Y-29628D01*
X30500Y-29662D01*
X30672Y-29628D01*
X30818Y-29530D01*
X30915Y-29384D01*
X30950Y-29212D01*
X30950Y-29750D01*
X29950Y-29750D01*
X29950Y-29212D01*
X29950Y-28787D01*
X29915Y-28615D01*
X29818Y-28469D01*
X29672Y-28371D01*
X29500Y-28337D01*
X29327Y-28371D01*
X29181Y-28469D01*
X29084Y-28615D01*
X29050Y-28787D01*
X29050Y-29212D01*
X29084Y-29384D01*
X29181Y-29530D01*
X29327Y-29628D01*
X29500Y-29662D01*
X29672Y-29628D01*
X29818Y-29530D01*
X29915Y-29384D01*
X29950Y-29212D01*
X29950Y-29750D01*
X28950Y-29750D01*
X28950Y-29212D01*
X28950Y-28787D01*
X28950Y-10212D01*
X28950Y-9787D01*
X28915Y-9615D01*
X28818Y-9469D01*
X28672Y-9371D01*
X28500Y-9337D01*
X28327Y-9371D01*
X28181Y-9469D01*
X28084Y-9615D01*
X28050Y-9787D01*
X28050Y-10212D01*
X28084Y-10384D01*
X28181Y-10530D01*
X28327Y-10628D01*
X28500Y-10662D01*
X28672Y-10628D01*
X28818Y-10530D01*
X28915Y-10384D01*
X28950Y-10212D01*
X28950Y-28787D01*
X28915Y-28615D01*
X28818Y-28469D01*
X28672Y-28371D01*
X28500Y-28337D01*
X28327Y-28371D01*
X28181Y-28469D01*
X28084Y-28615D01*
X28050Y-28787D01*
X28050Y-29212D01*
X28084Y-29384D01*
X28181Y-29530D01*
X28327Y-29628D01*
X28500Y-29662D01*
X28672Y-29628D01*
X28818Y-29530D01*
X28915Y-29384D01*
X28950Y-29212D01*
X28950Y-29750D01*
X27950Y-29750D01*
X27950Y-29212D01*
X27950Y-28787D01*
X27950Y-10212D01*
X27950Y-9787D01*
X27915Y-9615D01*
X27818Y-9469D01*
X27672Y-9371D01*
X27500Y-9337D01*
X27327Y-9371D01*
X27181Y-9469D01*
X27084Y-9615D01*
X27050Y-9787D01*
X27050Y-10212D01*
X27084Y-10384D01*
X27181Y-10530D01*
X27327Y-10628D01*
X27500Y-10662D01*
X27672Y-10628D01*
X27818Y-10530D01*
X27915Y-10384D01*
X27950Y-10212D01*
X27950Y-28787D01*
X27915Y-28615D01*
X27818Y-28469D01*
X27672Y-28371D01*
X27500Y-28337D01*
X27327Y-28371D01*
X27181Y-28469D01*
X27084Y-28615D01*
X27050Y-28787D01*
X27050Y-29212D01*
X27084Y-29384D01*
X27181Y-29530D01*
X27327Y-29628D01*
X27500Y-29662D01*
X27672Y-29628D01*
X27818Y-29530D01*
X27915Y-29384D01*
X27950Y-29212D01*
X27950Y-29750D01*
X26950Y-29750D01*
X26950Y-29212D01*
X26950Y-28787D01*
X26915Y-28615D01*
X26818Y-28469D01*
X26672Y-28371D01*
X26500Y-28337D01*
X26327Y-28371D01*
X26181Y-28469D01*
X26084Y-28615D01*
X26050Y-28787D01*
X26050Y-29212D01*
X26084Y-29384D01*
X26181Y-29530D01*
X26327Y-29628D01*
X26500Y-29662D01*
X26672Y-29628D01*
X26818Y-29530D01*
X26915Y-29384D01*
X26950Y-29212D01*
X26950Y-29750D01*
X24950Y-29750D01*
X24950Y-29212D01*
X24950Y-28787D01*
X24915Y-28615D01*
X24818Y-28469D01*
X24672Y-28371D01*
X24500Y-28337D01*
X24327Y-28371D01*
X24181Y-28469D01*
X24084Y-28615D01*
X24050Y-28787D01*
X24050Y-29212D01*
X24084Y-29384D01*
X24181Y-29530D01*
X24327Y-29628D01*
X24500Y-29662D01*
X24672Y-29628D01*
X24818Y-29530D01*
X24915Y-29384D01*
X24950Y-29212D01*
X24950Y-29750D01*
X23009Y-29750D01*
X23012Y-29748D01*
X23175Y-29521D01*
X23181Y-29530D01*
X23327Y-29628D01*
X23500Y-29662D01*
X23672Y-29628D01*
X23818Y-29530D01*
X23915Y-29384D01*
X23950Y-29212D01*
X23950Y-28787D01*
X23915Y-28615D01*
X23818Y-28469D01*
X23672Y-28371D01*
X23500Y-28337D01*
X23327Y-28371D01*
X23181Y-28469D01*
X23175Y-28478D01*
X23012Y-28251D01*
X22763Y-28097D01*
X22641Y-28063D01*
X22525Y-28162D01*
X22525Y-28975D01*
X22532Y-28975D01*
X22532Y-29025D01*
X22525Y-29025D01*
X22525Y-29032D01*
X22475Y-29032D01*
X22475Y-29025D01*
X22467Y-29025D01*
X22467Y-28975D01*
X22475Y-28975D01*
X22475Y-28162D01*
X22358Y-28063D01*
X22236Y-28097D01*
X21987Y-28251D01*
X21824Y-28478D01*
X21818Y-28469D01*
X21750Y-28423D01*
X21750Y-28403D01*
X22333Y-27820D01*
X23292Y-27820D01*
X23388Y-27801D01*
X23469Y-27747D01*
X25963Y-25253D01*
X26073Y-25326D01*
X26250Y-25361D01*
X26426Y-25326D01*
X26575Y-25227D01*
X26674Y-25077D01*
X26710Y-24901D01*
X26710Y-24598D01*
X26674Y-24422D01*
X26575Y-24272D01*
X26426Y-24173D01*
X26250Y-24138D01*
X26073Y-24173D01*
X25974Y-24239D01*
X25648Y-23914D01*
X25567Y-23860D01*
X25471Y-23841D01*
X24908Y-23841D01*
X24813Y-23860D01*
X24731Y-23914D01*
X24454Y-24192D01*
X24426Y-24173D01*
X24250Y-24138D01*
X24073Y-24173D01*
X23924Y-24272D01*
X23825Y-24422D01*
X23790Y-24598D01*
X23790Y-24901D01*
X23825Y-25077D01*
X23874Y-25151D01*
X23625Y-25151D01*
X23674Y-25077D01*
X23710Y-24901D01*
X23710Y-24598D01*
X23674Y-24422D01*
X23575Y-24272D01*
X23426Y-24173D01*
X23250Y-24138D01*
X23225Y-24143D01*
X23225Y-22537D01*
X23225Y-21775D01*
X23217Y-21775D01*
X23217Y-21725D01*
X23225Y-21725D01*
X23225Y-20962D01*
X23106Y-20863D01*
X22982Y-20898D01*
X22730Y-21054D01*
X22574Y-21272D01*
X22426Y-21173D01*
X22250Y-21138D01*
X22073Y-21173D01*
X21924Y-21272D01*
X21825Y-21422D01*
X21790Y-21598D01*
X21790Y-21901D01*
X21825Y-22077D01*
X21924Y-22227D01*
X22073Y-22326D01*
X22250Y-22361D01*
X22426Y-22326D01*
X22574Y-22227D01*
X22730Y-22445D01*
X22982Y-22601D01*
X23106Y-22636D01*
X23225Y-22537D01*
X23225Y-24143D01*
X23073Y-24173D01*
X22924Y-24272D01*
X22825Y-24422D01*
X22790Y-24598D01*
X22790Y-24901D01*
X22825Y-25077D01*
X22874Y-25151D01*
X22625Y-25151D01*
X22674Y-25077D01*
X22710Y-24901D01*
X22710Y-24598D01*
X22674Y-24422D01*
X22575Y-24272D01*
X22426Y-24173D01*
X22250Y-24138D01*
X22073Y-24173D01*
X21924Y-24272D01*
X21825Y-24422D01*
X21790Y-24598D01*
X21790Y-24901D01*
X21825Y-25077D01*
X21874Y-25151D01*
X21625Y-25151D01*
X21674Y-25077D01*
X21710Y-24901D01*
X21710Y-24598D01*
X21710Y-21901D01*
X21710Y-21598D01*
X21674Y-21422D01*
X21575Y-21272D01*
X21426Y-21173D01*
X21250Y-21138D01*
X21073Y-21173D01*
X20924Y-21272D01*
X20825Y-21422D01*
X20790Y-21598D01*
X20790Y-21901D01*
X20825Y-22077D01*
X20924Y-22227D01*
X21073Y-22326D01*
X21250Y-22361D01*
X21426Y-22326D01*
X21575Y-22227D01*
X21674Y-22077D01*
X21710Y-21901D01*
X21710Y-24598D01*
X21674Y-24422D01*
X21575Y-24272D01*
X21426Y-24173D01*
X21250Y-24138D01*
X21073Y-24173D01*
X20924Y-24272D01*
X20825Y-24422D01*
X20790Y-24598D01*
X20790Y-24901D01*
X20825Y-25077D01*
X20874Y-25151D01*
X20625Y-25151D01*
X20674Y-25077D01*
X20710Y-24901D01*
X20710Y-24598D01*
X20674Y-24422D01*
X20575Y-24272D01*
X20426Y-24173D01*
X20250Y-24138D01*
X20073Y-24173D01*
X19988Y-24230D01*
X19988Y-22269D01*
X20073Y-22326D01*
X20250Y-22361D01*
X20426Y-22326D01*
X20575Y-22227D01*
X20674Y-22077D01*
X20710Y-21901D01*
X20710Y-21598D01*
X20674Y-21422D01*
X20575Y-21272D01*
X20426Y-21173D01*
X20250Y-21138D01*
X20073Y-21173D01*
X19988Y-21230D01*
X19988Y-18282D01*
X20114Y-18157D01*
X24592Y-18157D01*
X24688Y-18137D01*
X24769Y-18083D01*
X25045Y-17807D01*
X25073Y-17826D01*
X25250Y-17861D01*
X25426Y-17826D01*
X25575Y-17727D01*
X25674Y-17577D01*
X25710Y-17401D01*
X25710Y-17098D01*
X25701Y-17054D01*
X25790Y-17143D01*
X25790Y-17401D01*
X25825Y-17577D01*
X25924Y-17727D01*
X26073Y-17826D01*
X26250Y-17861D01*
X26426Y-17826D01*
X26528Y-17758D01*
X26528Y-18368D01*
X24073Y-20823D01*
X24019Y-20904D01*
X24000Y-21000D01*
X24000Y-21222D01*
X23925Y-21272D01*
X23769Y-21054D01*
X23517Y-20898D01*
X23393Y-20863D01*
X23275Y-20962D01*
X23275Y-21725D01*
X23282Y-21725D01*
X23282Y-21775D01*
X23275Y-21775D01*
X23275Y-22537D01*
X23393Y-22636D01*
X23517Y-22601D01*
X23769Y-22445D01*
X23925Y-22227D01*
X24073Y-22326D01*
X24250Y-22361D01*
X24426Y-22326D01*
X24575Y-22227D01*
X24674Y-22077D01*
X24710Y-21901D01*
X24710Y-21598D01*
X24674Y-21422D01*
X24575Y-21272D01*
X24500Y-21222D01*
X24500Y-21103D01*
X25000Y-20603D01*
X25000Y-21222D01*
X24924Y-21272D01*
X24825Y-21422D01*
X24790Y-21598D01*
X24790Y-21901D01*
X24825Y-22077D01*
X24924Y-22227D01*
X25073Y-22326D01*
X25250Y-22361D01*
X25426Y-22326D01*
X25575Y-22227D01*
X25674Y-22077D01*
X25710Y-21901D01*
X25710Y-21598D01*
X25674Y-21422D01*
X25575Y-21272D01*
X25500Y-21222D01*
X25500Y-20614D01*
X27128Y-18985D01*
X27128Y-21028D01*
X26710Y-21446D01*
X26710Y-21270D01*
X26687Y-21215D01*
X26644Y-21172D01*
X26589Y-21150D01*
X26530Y-21150D01*
X25910Y-21150D01*
X25855Y-21172D01*
X25812Y-21215D01*
X25790Y-21270D01*
X25790Y-21329D01*
X25790Y-22229D01*
X25812Y-22284D01*
X25855Y-22327D01*
X25910Y-22350D01*
X25969Y-22350D01*
X26589Y-22350D01*
X26644Y-22327D01*
X26687Y-22284D01*
X26710Y-22229D01*
X26710Y-22170D01*
X26710Y-22000D01*
X26760Y-22000D01*
X26855Y-21980D01*
X26936Y-21926D01*
X27555Y-21308D01*
X27609Y-21227D01*
X27628Y-21131D01*
X27628Y-21131D01*
X27628Y-21131D01*
X27628Y-11578D01*
X27628Y-11578D01*
X27628Y-11578D01*
X27609Y-11482D01*
X27555Y-11401D01*
X27555Y-11401D01*
X27555Y-11401D01*
X26750Y-10596D01*
X26750Y-10576D01*
X26818Y-10530D01*
X26915Y-10384D01*
X26950Y-10212D01*
X26950Y-9787D01*
X26915Y-9615D01*
X26818Y-9469D01*
X26672Y-9371D01*
X26500Y-9337D01*
X26327Y-9371D01*
X26181Y-9469D01*
X26084Y-9615D01*
X26050Y-9787D01*
X26050Y-10212D01*
X26084Y-10384D01*
X26181Y-10530D01*
X26250Y-10576D01*
X26250Y-10700D01*
X26269Y-10795D01*
X26323Y-10876D01*
X27128Y-11682D01*
X27128Y-16425D01*
X26710Y-16006D01*
X26710Y-14729D01*
X26710Y-14670D01*
X26710Y-13770D01*
X26687Y-13715D01*
X26644Y-13672D01*
X26589Y-13650D01*
X26530Y-13650D01*
X26500Y-13650D01*
X26500Y-11450D01*
X26480Y-11354D01*
X26426Y-11273D01*
X25750Y-10596D01*
X25750Y-10576D01*
X25818Y-10530D01*
X25915Y-10384D01*
X25950Y-10212D01*
X25950Y-9787D01*
X25915Y-9615D01*
X25818Y-9469D01*
X25672Y-9371D01*
X25500Y-9337D01*
X25327Y-9371D01*
X25181Y-9469D01*
X25084Y-9615D01*
X25050Y-9787D01*
X25050Y-10212D01*
X25084Y-10384D01*
X25181Y-10530D01*
X25250Y-10576D01*
X25250Y-10700D01*
X25269Y-10795D01*
X25323Y-10876D01*
X26000Y-11553D01*
X26000Y-13650D01*
X25910Y-13650D01*
X25855Y-13672D01*
X25812Y-13715D01*
X25790Y-13770D01*
X25790Y-13829D01*
X25790Y-14729D01*
X25812Y-14784D01*
X25855Y-14827D01*
X25910Y-14850D01*
X25969Y-14850D01*
X26589Y-14850D01*
X26644Y-14827D01*
X26687Y-14784D01*
X26710Y-14729D01*
X26710Y-16006D01*
X25500Y-14796D01*
X25500Y-14777D01*
X25575Y-14727D01*
X25674Y-14577D01*
X25710Y-14401D01*
X25710Y-14098D01*
X25674Y-13922D01*
X25575Y-13772D01*
X25426Y-13673D01*
X25250Y-13638D01*
X25073Y-13673D01*
X24950Y-13756D01*
X24950Y-10212D01*
X24950Y-9787D01*
X24915Y-9615D01*
X24818Y-9469D01*
X24672Y-9371D01*
X24500Y-9337D01*
X24327Y-9371D01*
X24181Y-9469D01*
X24084Y-9615D01*
X24050Y-9787D01*
X24050Y-10212D01*
X24084Y-10384D01*
X24181Y-10530D01*
X24327Y-10628D01*
X24500Y-10662D01*
X24672Y-10628D01*
X24818Y-10530D01*
X24915Y-10384D01*
X24950Y-10212D01*
X24950Y-13756D01*
X24924Y-13772D01*
X24825Y-13922D01*
X24790Y-14098D01*
X24790Y-14401D01*
X24825Y-14577D01*
X24924Y-14727D01*
X25000Y-14777D01*
X25000Y-14900D01*
X25019Y-14995D01*
X25073Y-15076D01*
X25358Y-15362D01*
X25265Y-15362D01*
X24597Y-14693D01*
X24674Y-14577D01*
X24710Y-14401D01*
X24710Y-14098D01*
X24674Y-13922D01*
X24575Y-13772D01*
X24500Y-13722D01*
X24500Y-13550D01*
X24480Y-13454D01*
X24426Y-13373D01*
X23626Y-12573D01*
X23545Y-12519D01*
X23450Y-12500D01*
X23350Y-12500D01*
X23350Y-10212D01*
X23350Y-9787D01*
X23315Y-9615D01*
X23218Y-9469D01*
X23072Y-9371D01*
X22900Y-9337D01*
X22727Y-9371D01*
X22581Y-9469D01*
X22484Y-9615D01*
X22450Y-9787D01*
X22450Y-10212D01*
X22484Y-10384D01*
X22581Y-10530D01*
X22727Y-10628D01*
X22900Y-10662D01*
X23072Y-10628D01*
X23218Y-10530D01*
X23315Y-10384D01*
X23350Y-10212D01*
X23350Y-12500D01*
X22350Y-12500D01*
X22350Y-10212D01*
X22350Y-9787D01*
X22315Y-9615D01*
X22218Y-9469D01*
X22072Y-9371D01*
X21900Y-9337D01*
X21727Y-9371D01*
X21581Y-9469D01*
X21484Y-9615D01*
X21450Y-9787D01*
X21450Y-10212D01*
X21484Y-10384D01*
X21581Y-10530D01*
X21727Y-10628D01*
X21900Y-10662D01*
X22072Y-10628D01*
X22218Y-10530D01*
X22315Y-10384D01*
X22350Y-10212D01*
X22350Y-12500D01*
X22053Y-12500D01*
X21350Y-11796D01*
X21350Y-10212D01*
X21350Y-9787D01*
X21315Y-9615D01*
X21218Y-9469D01*
X21072Y-9371D01*
X20900Y-9337D01*
X20727Y-9371D01*
X20581Y-9469D01*
X20484Y-9615D01*
X20450Y-9787D01*
X20450Y-10212D01*
X20484Y-10384D01*
X20581Y-10530D01*
X20727Y-10628D01*
X20900Y-10662D01*
X21072Y-10628D01*
X21218Y-10530D01*
X21315Y-10384D01*
X21350Y-10212D01*
X21350Y-11796D01*
X20150Y-10596D01*
X20150Y-10576D01*
X20218Y-10530D01*
X20315Y-10384D01*
X20350Y-10212D01*
X20350Y-9787D01*
X20315Y-9615D01*
X20218Y-9469D01*
X20072Y-9371D01*
X19900Y-9337D01*
X19727Y-9371D01*
X19581Y-9469D01*
X19484Y-9615D01*
X19450Y-9787D01*
X19450Y-10212D01*
X19484Y-10384D01*
X19581Y-10530D01*
X19650Y-10576D01*
X19650Y-10700D01*
X19669Y-10795D01*
X19723Y-10876D01*
X21773Y-12926D01*
X21854Y-12980D01*
X21950Y-13000D01*
X23346Y-13000D01*
X24000Y-13653D01*
X24000Y-13722D01*
X23925Y-13772D01*
X23769Y-13554D01*
X23517Y-13398D01*
X23393Y-13363D01*
X23275Y-13462D01*
X23275Y-14225D01*
X23282Y-14225D01*
X23282Y-14275D01*
X23275Y-14275D01*
X23275Y-15037D01*
X23393Y-15136D01*
X23517Y-15101D01*
X23769Y-14945D01*
X23925Y-14727D01*
X24017Y-14789D01*
X24019Y-14795D01*
X24073Y-14876D01*
X24985Y-15788D01*
X25066Y-15843D01*
X25162Y-15862D01*
X25387Y-15862D01*
X26177Y-16652D01*
X26073Y-16673D01*
X26045Y-16692D01*
X25770Y-16417D01*
X25689Y-16362D01*
X25593Y-16343D01*
X24906Y-16343D01*
X24810Y-16362D01*
X24729Y-16417D01*
X24454Y-16692D01*
X24426Y-16673D01*
X24250Y-16638D01*
X24073Y-16673D01*
X23924Y-16772D01*
X23825Y-16922D01*
X23790Y-17098D01*
X23790Y-17401D01*
X23825Y-17577D01*
X23877Y-17657D01*
X23622Y-17657D01*
X23674Y-17577D01*
X23710Y-17401D01*
X23710Y-17098D01*
X23674Y-16922D01*
X23575Y-16772D01*
X23426Y-16673D01*
X23250Y-16638D01*
X23225Y-16643D01*
X23225Y-15037D01*
X23225Y-14275D01*
X23217Y-14275D01*
X23217Y-14225D01*
X23225Y-14225D01*
X23225Y-13462D01*
X23106Y-13363D01*
X22982Y-13398D01*
X22730Y-13554D01*
X22574Y-13772D01*
X22426Y-13673D01*
X22250Y-13638D01*
X22073Y-13673D01*
X21924Y-13772D01*
X21825Y-13922D01*
X21790Y-14098D01*
X21790Y-14401D01*
X21825Y-14577D01*
X21924Y-14727D01*
X22073Y-14826D01*
X22250Y-14861D01*
X22426Y-14826D01*
X22574Y-14727D01*
X22730Y-14945D01*
X22982Y-15101D01*
X23106Y-15136D01*
X23225Y-15037D01*
X23225Y-16643D01*
X23073Y-16673D01*
X22924Y-16772D01*
X22825Y-16922D01*
X22790Y-17098D01*
X22790Y-17401D01*
X22825Y-17577D01*
X22877Y-17657D01*
X22622Y-17657D01*
X22674Y-17577D01*
X22710Y-17401D01*
X22710Y-17098D01*
X22674Y-16922D01*
X22575Y-16772D01*
X22426Y-16673D01*
X22250Y-16638D01*
X22073Y-16673D01*
X21924Y-16772D01*
X21825Y-16922D01*
X21790Y-17098D01*
X21790Y-17401D01*
X21825Y-17577D01*
X21877Y-17657D01*
X21622Y-17657D01*
X21674Y-17577D01*
X21710Y-17401D01*
X21710Y-17098D01*
X21710Y-14401D01*
X21710Y-14098D01*
X21674Y-13922D01*
X21575Y-13772D01*
X21426Y-13673D01*
X21250Y-13638D01*
X21073Y-13673D01*
X20924Y-13772D01*
X20825Y-13922D01*
X20790Y-14098D01*
X20790Y-14401D01*
X20825Y-14577D01*
X20924Y-14727D01*
X21073Y-14826D01*
X21250Y-14861D01*
X21426Y-14826D01*
X21575Y-14727D01*
X21674Y-14577D01*
X21710Y-14401D01*
X21710Y-17098D01*
X21674Y-16922D01*
X21575Y-16772D01*
X21426Y-16673D01*
X21250Y-16638D01*
X21073Y-16673D01*
X20924Y-16772D01*
X20825Y-16922D01*
X20790Y-17098D01*
X20790Y-17401D01*
X20825Y-17577D01*
X20877Y-17657D01*
X20622Y-17657D01*
X20674Y-17577D01*
X20710Y-17401D01*
X20710Y-17098D01*
X20710Y-14401D01*
X20710Y-14098D01*
X20674Y-13922D01*
X20575Y-13772D01*
X20426Y-13673D01*
X20250Y-13638D01*
X20073Y-13673D01*
X19924Y-13772D01*
X19825Y-13922D01*
X19790Y-14098D01*
X19790Y-14401D01*
X19825Y-14577D01*
X19924Y-14727D01*
X20073Y-14826D01*
X20250Y-14861D01*
X20426Y-14826D01*
X20575Y-14727D01*
X20674Y-14577D01*
X20710Y-14401D01*
X20710Y-17098D01*
X20674Y-16922D01*
X20575Y-16772D01*
X20426Y-16673D01*
X20250Y-16638D01*
X20073Y-16673D01*
X19924Y-16772D01*
X19825Y-16922D01*
X19790Y-17098D01*
X19790Y-17332D01*
X19150Y-16692D01*
X19150Y-10576D01*
X19218Y-10530D01*
X19315Y-10384D01*
X19350Y-10212D01*
X19350Y-9787D01*
X19315Y-9615D01*
X19218Y-9469D01*
X19072Y-9371D01*
X18900Y-9337D01*
X18727Y-9371D01*
X18581Y-9469D01*
X18484Y-9615D01*
X18450Y-9787D01*
X18450Y-10212D01*
X18484Y-10384D01*
X18581Y-10530D01*
X18650Y-10576D01*
X18650Y-16795D01*
X18669Y-16891D01*
X18723Y-16972D01*
X19657Y-17907D01*
X19561Y-18002D01*
X19507Y-18083D01*
X19488Y-18179D01*
X19488Y-25113D01*
X19507Y-25208D01*
X19561Y-25289D01*
X19850Y-25577D01*
X19850Y-25577D01*
X19898Y-25610D01*
X19931Y-25632D01*
X19931Y-25632D01*
X20026Y-25651D01*
X24598Y-25651D01*
X24694Y-25632D01*
X24775Y-25577D01*
X25045Y-25307D01*
X25073Y-25326D01*
X25164Y-25344D01*
X23189Y-27320D01*
X22229Y-27320D01*
X22133Y-27339D01*
X22052Y-27393D01*
X21323Y-28123D01*
X21269Y-28204D01*
X21250Y-28299D01*
X21250Y-28423D01*
X21181Y-28469D01*
X21084Y-28615D01*
X21050Y-28787D01*
X21050Y-29212D01*
X21084Y-29384D01*
X21181Y-29530D01*
X21327Y-29628D01*
X21500Y-29662D01*
X21672Y-29628D01*
X21818Y-29530D01*
X21824Y-29521D01*
X21987Y-29748D01*
X21990Y-29750D01*
X20950Y-29750D01*
X20950Y-29212D01*
X20950Y-28787D01*
X20915Y-28615D01*
X20818Y-28469D01*
X20672Y-28371D01*
X20500Y-28337D01*
X20327Y-28371D01*
X20181Y-28469D01*
X20084Y-28615D01*
X20050Y-28787D01*
X20050Y-29212D01*
X20084Y-29384D01*
X20181Y-29530D01*
X20327Y-29628D01*
X20500Y-29662D01*
X20672Y-29628D01*
X20818Y-29530D01*
X20915Y-29384D01*
X20950Y-29212D01*
X20950Y-29750D01*
X19950Y-29750D01*
X19950Y-29212D01*
X19950Y-28787D01*
X19915Y-28615D01*
X19818Y-28469D01*
X19672Y-28371D01*
X19500Y-28337D01*
X19327Y-28371D01*
X19181Y-28469D01*
X19084Y-28615D01*
X19050Y-28787D01*
X19050Y-29212D01*
X19084Y-29384D01*
X19181Y-29530D01*
X19327Y-29628D01*
X19500Y-29662D01*
X19672Y-29628D01*
X19818Y-29530D01*
X19915Y-29384D01*
X19950Y-29212D01*
X19950Y-29750D01*
X18350Y-29750D01*
X18350Y-10212D01*
X18350Y-9787D01*
X18315Y-9615D01*
X18218Y-9469D01*
X18072Y-9371D01*
X17900Y-9337D01*
X17727Y-9371D01*
X17581Y-9469D01*
X17484Y-9615D01*
X17450Y-9787D01*
X17450Y-10212D01*
X17484Y-10384D01*
X17581Y-10530D01*
X17727Y-10628D01*
X17900Y-10662D01*
X18072Y-10628D01*
X18218Y-10530D01*
X18315Y-10384D01*
X18350Y-10212D01*
X18350Y-29750D01*
X17350Y-29750D01*
X17350Y-10212D01*
X17350Y-9787D01*
X17315Y-9615D01*
X17218Y-9469D01*
X17072Y-9371D01*
X16900Y-9337D01*
X16727Y-9371D01*
X16581Y-9469D01*
X16484Y-9615D01*
X16450Y-9787D01*
X16450Y-10212D01*
X16484Y-10384D01*
X16581Y-10530D01*
X16727Y-10628D01*
X16900Y-10662D01*
X17072Y-10628D01*
X17218Y-10530D01*
X17315Y-10384D01*
X17350Y-10212D01*
X17350Y-29750D01*
X16350Y-29750D01*
X16350Y-10212D01*
X16350Y-9787D01*
X16315Y-9615D01*
X16218Y-9469D01*
X16072Y-9371D01*
X15900Y-9337D01*
X15727Y-9371D01*
X15581Y-9469D01*
X15484Y-9615D01*
X15450Y-9787D01*
X15450Y-10212D01*
X15484Y-10384D01*
X15581Y-10530D01*
X15727Y-10628D01*
X15900Y-10662D01*
X16072Y-10628D01*
X16218Y-10530D01*
X16315Y-10384D01*
X16350Y-10212D01*
X16350Y-29750D01*
X12557Y-29750D01*
X12783Y-29524D01*
X12924Y-29184D01*
X12925Y-28816D01*
X12784Y-28476D01*
X12524Y-28216D01*
X12184Y-28075D01*
X11816Y-28074D01*
X11476Y-28215D01*
X11216Y-28475D01*
X11075Y-28815D01*
X11074Y-29183D01*
X11215Y-29523D01*
X11441Y-29750D01*
X10250Y-29750D01*
X10250Y-9250D01*
X11942Y-9250D01*
X11716Y-9475D01*
X11575Y-9815D01*
X11574Y-10183D01*
X11715Y-10523D01*
X11975Y-10783D01*
X12315Y-10924D01*
X12683Y-10925D01*
X13023Y-10784D01*
X13283Y-10524D01*
X13424Y-10184D01*
X13425Y-9816D01*
X13284Y-9476D01*
X13058Y-9250D01*
X38250Y-9250D01*
X38250Y-29750D01*
M02*
