G04 (created by PCBNEW-RS274X (2011-aug-04)-testing) date Mon 24 Sep 2012 03:04:33 PM PDT*
G01*
G70*
G90*
%MOIN*%
G04 Gerber Fmt 3.4, Leading zero omitted, Abs format*
%FSLAX34Y34*%
G04 APERTURE LIST*
%ADD10C,0.006000*%
%ADD11R,0.055000X0.055000*%
%ADD12C,0.055000*%
%ADD13C,0.060000*%
%ADD14O,0.060000X0.100000*%
%ADD15C,0.155000*%
%ADD16C,0.015000*%
%ADD17C,0.010000*%
G04 APERTURE END LIST*
G54D10*
G54D11*
X25000Y-20820D03*
G54D12*
X24000Y-20820D03*
X23000Y-20820D03*
X22000Y-20820D03*
X21000Y-20820D03*
X20000Y-20820D03*
X19000Y-20820D03*
X19000Y-23820D03*
X20000Y-23820D03*
X21000Y-23820D03*
X22000Y-23820D03*
X23000Y-23820D03*
X24000Y-23820D03*
X25000Y-23820D03*
G54D11*
X25000Y-13680D03*
G54D12*
X24000Y-13680D03*
X23000Y-13680D03*
X22000Y-13680D03*
X21000Y-13680D03*
X20000Y-13680D03*
X19000Y-13680D03*
X19000Y-16680D03*
X20000Y-16680D03*
X21000Y-16680D03*
X22000Y-16680D03*
X23000Y-16680D03*
X24000Y-16680D03*
X25000Y-16680D03*
G54D13*
X36101Y-27769D03*
X36100Y-26392D03*
X36099Y-25011D03*
X36100Y-23634D03*
X36100Y-22256D03*
X36100Y-20880D03*
X36100Y-19501D03*
X36099Y-18123D03*
X36099Y-16745D03*
X36099Y-15365D03*
X36098Y-12611D03*
X36099Y-13989D03*
X36099Y-11233D03*
G54D12*
X23000Y-25750D03*
X25000Y-25750D03*
X23000Y-18750D03*
X25000Y-18750D03*
G54D14*
X31500Y-29000D03*
X30500Y-29000D03*
X29500Y-29000D03*
X26500Y-29000D03*
X27500Y-29000D03*
X28500Y-29000D03*
X24500Y-29000D03*
X23500Y-29000D03*
X22500Y-29000D03*
X20500Y-29000D03*
X19500Y-29000D03*
X31500Y-10000D03*
X30500Y-10000D03*
X29500Y-10000D03*
X28500Y-10000D03*
X27500Y-10000D03*
X26500Y-10000D03*
X25500Y-10000D03*
X24500Y-10000D03*
X22900Y-10000D03*
X21900Y-10000D03*
X20900Y-10000D03*
X19900Y-10000D03*
X18900Y-10000D03*
X17900Y-10000D03*
X16900Y-10000D03*
X15900Y-10000D03*
X21500Y-29000D03*
G54D15*
X32500Y-27000D03*
X32500Y-16000D03*
X12500Y-10000D03*
X12000Y-29000D03*
G54D16*
X23515Y-17195D02*
X23000Y-16680D01*
X24485Y-17195D02*
X23515Y-17195D01*
X25000Y-16680D02*
X24485Y-17195D01*
X23000Y-16680D02*
X22000Y-16680D01*
X23000Y-23820D02*
X22000Y-23820D01*
X24541Y-24279D02*
X25000Y-23820D01*
X23459Y-24279D02*
X24541Y-24279D01*
X23000Y-23820D02*
X23459Y-24279D01*
X20226Y-25046D02*
X19000Y-23820D01*
X33378Y-25046D02*
X20226Y-25046D01*
X36101Y-27769D02*
X33378Y-25046D01*
X21713Y-24533D02*
X21000Y-23820D01*
X35621Y-24533D02*
X21713Y-24533D01*
X36099Y-25011D02*
X35621Y-24533D01*
X34494Y-24786D02*
X36100Y-26392D01*
X20966Y-24786D02*
X34494Y-24786D01*
X20000Y-23820D02*
X20966Y-24786D01*
X20449Y-22269D02*
X19000Y-20820D01*
X34735Y-22269D02*
X20449Y-22269D01*
X36100Y-23634D02*
X34735Y-22269D01*
X21782Y-21602D02*
X21000Y-20820D01*
X35378Y-21602D02*
X21782Y-21602D01*
X36100Y-20880D02*
X35378Y-21602D01*
X21183Y-22003D02*
X20000Y-20820D01*
X35847Y-22003D02*
X21183Y-22003D01*
X36100Y-22256D02*
X35847Y-22003D01*
X20568Y-18248D02*
X19000Y-16680D01*
X34847Y-18248D02*
X20568Y-18248D01*
X36100Y-19501D02*
X34847Y-18248D01*
X21785Y-17465D02*
X21000Y-16680D01*
X35379Y-17465D02*
X21785Y-17465D01*
X36099Y-16745D02*
X35379Y-17465D01*
X21190Y-17870D02*
X20000Y-16680D01*
X35846Y-17870D02*
X21190Y-17870D01*
X36099Y-18123D02*
X35846Y-17870D01*
X20500Y-15180D02*
X19000Y-13680D01*
X27360Y-15180D02*
X20500Y-15180D01*
X29215Y-17035D02*
X27360Y-15180D01*
X34429Y-17035D02*
X29215Y-17035D01*
X36099Y-15365D02*
X34429Y-17035D01*
X21769Y-14449D02*
X21000Y-13680D01*
X34260Y-14449D02*
X21769Y-14449D01*
X36098Y-12611D02*
X34260Y-14449D01*
X21157Y-14837D02*
X20000Y-13680D01*
X35251Y-14837D02*
X21157Y-14837D01*
X36099Y-13989D02*
X35251Y-14837D01*
X20998Y-10678D02*
X24000Y-13680D01*
X17900Y-10678D02*
X20998Y-10678D01*
X17900Y-10000D02*
X17900Y-10678D01*
X24070Y-18750D02*
X25000Y-18750D01*
X22000Y-20820D02*
X24070Y-18750D01*
X22454Y-14134D02*
X22000Y-13680D01*
X33198Y-14134D02*
X22454Y-14134D01*
X36099Y-11233D02*
X33198Y-14134D01*
G54D10*
G36*
X37250Y-29750D02*
X36650Y-29750D01*
X36650Y-27878D01*
X36650Y-27660D01*
X36566Y-27458D01*
X36412Y-27304D01*
X36210Y-27220D01*
X36011Y-27220D01*
X33902Y-25111D01*
X34359Y-25111D01*
X35551Y-26303D01*
X35551Y-26501D01*
X35635Y-26703D01*
X35789Y-26857D01*
X35991Y-26941D01*
X36209Y-26941D01*
X36411Y-26857D01*
X36565Y-26703D01*
X36649Y-26501D01*
X36649Y-26283D01*
X36649Y-23743D01*
X36649Y-23525D01*
X36565Y-23323D01*
X36411Y-23169D01*
X36209Y-23085D01*
X36011Y-23085D01*
X35254Y-22328D01*
X35551Y-22328D01*
X35551Y-22365D01*
X35635Y-22567D01*
X35789Y-22721D01*
X35991Y-22805D01*
X36209Y-22805D01*
X36411Y-22721D01*
X36565Y-22567D01*
X36649Y-22365D01*
X36649Y-22147D01*
X36565Y-21945D01*
X36411Y-21791D01*
X36209Y-21707D01*
X35991Y-21707D01*
X35982Y-21710D01*
X35971Y-21703D01*
X35847Y-21678D01*
X35762Y-21678D01*
X36011Y-21429D01*
X36209Y-21429D01*
X36411Y-21345D01*
X36565Y-21191D01*
X36649Y-20989D01*
X36649Y-20771D01*
X36565Y-20569D01*
X36411Y-20415D01*
X36209Y-20331D01*
X35991Y-20331D01*
X35789Y-20415D01*
X35635Y-20569D01*
X35551Y-20771D01*
X35551Y-20969D01*
X35243Y-21277D01*
X25445Y-21277D01*
X25486Y-21236D01*
X25524Y-21145D01*
X25524Y-21046D01*
X25524Y-20496D01*
X25486Y-20404D01*
X25416Y-20334D01*
X25325Y-20296D01*
X25270Y-20296D01*
X25270Y-19027D01*
X25000Y-18757D01*
X24730Y-19027D01*
X24755Y-19096D01*
X24906Y-19164D01*
X25071Y-19168D01*
X25226Y-19109D01*
X25245Y-19096D01*
X25270Y-19027D01*
X25270Y-20296D01*
X25226Y-20296D01*
X24676Y-20296D01*
X24584Y-20334D01*
X24514Y-20404D01*
X24476Y-20495D01*
X24476Y-20594D01*
X24476Y-20597D01*
X24445Y-20523D01*
X24298Y-20375D01*
X24105Y-20295D01*
X23896Y-20295D01*
X23703Y-20375D01*
X23555Y-20522D01*
X23499Y-20655D01*
X23445Y-20523D01*
X23298Y-20375D01*
X23105Y-20295D01*
X22896Y-20295D01*
X22703Y-20375D01*
X22555Y-20522D01*
X22475Y-20715D01*
X22475Y-20924D01*
X22555Y-21117D01*
X22702Y-21265D01*
X22730Y-21277D01*
X22418Y-21277D01*
X22418Y-20749D01*
X22359Y-20594D01*
X22346Y-20575D01*
X22277Y-20550D01*
X22270Y-20557D01*
X22270Y-20543D01*
X22245Y-20474D01*
X22094Y-20406D01*
X21929Y-20402D01*
X21774Y-20461D01*
X21755Y-20474D01*
X21730Y-20543D01*
X22000Y-20813D01*
X22270Y-20543D01*
X22270Y-20557D01*
X22007Y-20820D01*
X22277Y-21090D01*
X22346Y-21065D01*
X22414Y-20914D01*
X22418Y-20749D01*
X22418Y-21277D01*
X21916Y-21277D01*
X21846Y-21207D01*
X21906Y-21234D01*
X22071Y-21238D01*
X22226Y-21179D01*
X22245Y-21166D01*
X22270Y-21097D01*
X22035Y-20862D01*
X22000Y-20827D01*
X21993Y-20820D01*
X21958Y-20785D01*
X21723Y-20550D01*
X21654Y-20575D01*
X21586Y-20726D01*
X21582Y-20891D01*
X21613Y-20974D01*
X21525Y-20885D01*
X21525Y-20716D01*
X21445Y-20523D01*
X21298Y-20375D01*
X21105Y-20295D01*
X20896Y-20295D01*
X20703Y-20375D01*
X20555Y-20522D01*
X20499Y-20655D01*
X20445Y-20523D01*
X20298Y-20375D01*
X20105Y-20295D01*
X19896Y-20295D01*
X19703Y-20375D01*
X19555Y-20522D01*
X19499Y-20655D01*
X19445Y-20523D01*
X19298Y-20375D01*
X19105Y-20295D01*
X18896Y-20295D01*
X18703Y-20375D01*
X18555Y-20522D01*
X18475Y-20715D01*
X18475Y-20924D01*
X18555Y-21117D01*
X18702Y-21265D01*
X18895Y-21345D01*
X19065Y-21345D01*
X20219Y-22499D01*
X20324Y-22569D01*
X20325Y-22569D01*
X20449Y-22594D01*
X34600Y-22594D01*
X35551Y-23545D01*
X35551Y-23743D01*
X35635Y-23945D01*
X35789Y-24099D01*
X35991Y-24183D01*
X36209Y-24183D01*
X36411Y-24099D01*
X36565Y-23945D01*
X36649Y-23743D01*
X36649Y-26283D01*
X36565Y-26081D01*
X36411Y-25927D01*
X36209Y-25843D01*
X36011Y-25843D01*
X35026Y-24858D01*
X35486Y-24858D01*
X35550Y-24922D01*
X35550Y-25120D01*
X35634Y-25322D01*
X35788Y-25476D01*
X35990Y-25560D01*
X36208Y-25560D01*
X36410Y-25476D01*
X36564Y-25322D01*
X36648Y-25120D01*
X36648Y-24902D01*
X36564Y-24700D01*
X36410Y-24546D01*
X36208Y-24462D01*
X36010Y-24462D01*
X35851Y-24303D01*
X35745Y-24233D01*
X35621Y-24208D01*
X25354Y-24208D01*
X25445Y-24118D01*
X25525Y-23925D01*
X25525Y-23716D01*
X25445Y-23523D01*
X25298Y-23375D01*
X25105Y-23295D01*
X24896Y-23295D01*
X24703Y-23375D01*
X24555Y-23522D01*
X24499Y-23655D01*
X24445Y-23523D01*
X24298Y-23375D01*
X24105Y-23295D01*
X23896Y-23295D01*
X23703Y-23375D01*
X23555Y-23522D01*
X23499Y-23655D01*
X23445Y-23523D01*
X23298Y-23375D01*
X23105Y-23295D01*
X22896Y-23295D01*
X22703Y-23375D01*
X22582Y-23495D01*
X22417Y-23495D01*
X22298Y-23375D01*
X22105Y-23295D01*
X21896Y-23295D01*
X21703Y-23375D01*
X21555Y-23522D01*
X21499Y-23655D01*
X21445Y-23523D01*
X21298Y-23375D01*
X21105Y-23295D01*
X20896Y-23295D01*
X20703Y-23375D01*
X20555Y-23522D01*
X20499Y-23655D01*
X20445Y-23523D01*
X20298Y-23375D01*
X20105Y-23295D01*
X19896Y-23295D01*
X19703Y-23375D01*
X19555Y-23522D01*
X19499Y-23655D01*
X19445Y-23523D01*
X19298Y-23375D01*
X19105Y-23295D01*
X18896Y-23295D01*
X18703Y-23375D01*
X18555Y-23522D01*
X18475Y-23715D01*
X18475Y-23924D01*
X18555Y-24117D01*
X18702Y-24265D01*
X18895Y-24345D01*
X19065Y-24345D01*
X19994Y-25273D01*
X19996Y-25276D01*
X20101Y-25345D01*
X20102Y-25346D01*
X20200Y-25365D01*
X20225Y-25371D01*
X20225Y-25370D01*
X20226Y-25371D01*
X22636Y-25371D01*
X22555Y-25452D01*
X22475Y-25645D01*
X22475Y-25854D01*
X22555Y-26047D01*
X22702Y-26195D01*
X22895Y-26275D01*
X23104Y-26275D01*
X23297Y-26195D01*
X23445Y-26048D01*
X23525Y-25855D01*
X23525Y-25646D01*
X23445Y-25453D01*
X23363Y-25371D01*
X24826Y-25371D01*
X24774Y-25391D01*
X24755Y-25404D01*
X24730Y-25473D01*
X25000Y-25743D01*
X25270Y-25473D01*
X25245Y-25404D01*
X25171Y-25371D01*
X33243Y-25371D01*
X35552Y-27679D01*
X35552Y-27878D01*
X35636Y-28080D01*
X35790Y-28234D01*
X35992Y-28318D01*
X36210Y-28318D01*
X36412Y-28234D01*
X36566Y-28080D01*
X36650Y-27878D01*
X36650Y-29750D01*
X33525Y-29750D01*
X33525Y-27205D01*
X33525Y-26797D01*
X33369Y-26420D01*
X33081Y-26132D01*
X32705Y-25975D01*
X32297Y-25975D01*
X31920Y-26131D01*
X31632Y-26419D01*
X31475Y-26795D01*
X31475Y-27203D01*
X31631Y-27580D01*
X31919Y-27868D01*
X32295Y-28025D01*
X32703Y-28025D01*
X33080Y-27869D01*
X33368Y-27581D01*
X33525Y-27205D01*
X33525Y-29750D01*
X31616Y-29750D01*
X31806Y-29672D01*
X31957Y-29520D01*
X32040Y-29322D01*
X32040Y-29107D01*
X32040Y-28679D01*
X31958Y-28480D01*
X31806Y-28329D01*
X31608Y-28246D01*
X31393Y-28246D01*
X31194Y-28328D01*
X31043Y-28480D01*
X31000Y-28582D01*
X30958Y-28480D01*
X30806Y-28329D01*
X30608Y-28246D01*
X30393Y-28246D01*
X30194Y-28328D01*
X30043Y-28480D01*
X30000Y-28582D01*
X29958Y-28480D01*
X29806Y-28329D01*
X29608Y-28246D01*
X29393Y-28246D01*
X29194Y-28328D01*
X29043Y-28480D01*
X29000Y-28582D01*
X28958Y-28480D01*
X28806Y-28329D01*
X28608Y-28246D01*
X28393Y-28246D01*
X28194Y-28328D01*
X28043Y-28480D01*
X28000Y-28582D01*
X27958Y-28480D01*
X27806Y-28329D01*
X27608Y-28246D01*
X27393Y-28246D01*
X27194Y-28328D01*
X27043Y-28480D01*
X27000Y-28582D01*
X26958Y-28480D01*
X26806Y-28329D01*
X26608Y-28246D01*
X26393Y-28246D01*
X26194Y-28328D01*
X26043Y-28480D01*
X25960Y-28678D01*
X25960Y-28893D01*
X25960Y-29321D01*
X26042Y-29520D01*
X26194Y-29671D01*
X26382Y-29750D01*
X25418Y-29750D01*
X25418Y-25679D01*
X25359Y-25524D01*
X25346Y-25505D01*
X25277Y-25480D01*
X25007Y-25750D01*
X25277Y-26020D01*
X25346Y-25995D01*
X25414Y-25844D01*
X25418Y-25679D01*
X25418Y-29750D01*
X25270Y-29750D01*
X25270Y-26027D01*
X25000Y-25757D01*
X24993Y-25764D01*
X24993Y-25750D01*
X24723Y-25480D01*
X24654Y-25505D01*
X24586Y-25656D01*
X24582Y-25821D01*
X24641Y-25976D01*
X24654Y-25995D01*
X24723Y-26020D01*
X24993Y-25750D01*
X24993Y-25764D01*
X24730Y-26027D01*
X24755Y-26096D01*
X24906Y-26164D01*
X25071Y-26168D01*
X25226Y-26109D01*
X25245Y-26096D01*
X25270Y-26027D01*
X25270Y-29750D01*
X24616Y-29750D01*
X24806Y-29672D01*
X24957Y-29520D01*
X25040Y-29322D01*
X25040Y-29107D01*
X25040Y-28679D01*
X24958Y-28480D01*
X24806Y-28329D01*
X24608Y-28246D01*
X24393Y-28246D01*
X24194Y-28328D01*
X24043Y-28480D01*
X24000Y-28582D01*
X23958Y-28480D01*
X23806Y-28329D01*
X23608Y-28246D01*
X23393Y-28246D01*
X23194Y-28328D01*
X23043Y-28480D01*
X22960Y-28678D01*
X22960Y-28893D01*
X22960Y-29321D01*
X23042Y-29520D01*
X23194Y-29671D01*
X23382Y-29750D01*
X22950Y-29750D01*
X22950Y-29295D01*
X22950Y-29005D01*
X22950Y-28995D01*
X22950Y-28705D01*
X22879Y-28540D01*
X22751Y-28415D01*
X22575Y-28357D01*
X22505Y-28388D01*
X22505Y-28995D01*
X22950Y-28995D01*
X22950Y-29005D01*
X22505Y-29005D01*
X22505Y-29612D01*
X22575Y-29643D01*
X22751Y-29585D01*
X22879Y-29460D01*
X22950Y-29295D01*
X22950Y-29750D01*
X22495Y-29750D01*
X22495Y-29612D01*
X22495Y-29005D01*
X22495Y-28995D01*
X22495Y-28388D01*
X22425Y-28357D01*
X22249Y-28415D01*
X22121Y-28540D01*
X22050Y-28705D01*
X22050Y-28995D01*
X22495Y-28995D01*
X22495Y-29005D01*
X22050Y-29005D01*
X22050Y-29295D01*
X22121Y-29460D01*
X22249Y-29585D01*
X22425Y-29643D01*
X22495Y-29612D01*
X22495Y-29750D01*
X21616Y-29750D01*
X21806Y-29672D01*
X21957Y-29520D01*
X22040Y-29322D01*
X22040Y-29107D01*
X22040Y-28679D01*
X21958Y-28480D01*
X21806Y-28329D01*
X21608Y-28246D01*
X21393Y-28246D01*
X21194Y-28328D01*
X21043Y-28480D01*
X21000Y-28582D01*
X20958Y-28480D01*
X20806Y-28329D01*
X20608Y-28246D01*
X20393Y-28246D01*
X20194Y-28328D01*
X20043Y-28480D01*
X20000Y-28582D01*
X19958Y-28480D01*
X19806Y-28329D01*
X19608Y-28246D01*
X19393Y-28246D01*
X19194Y-28328D01*
X19043Y-28480D01*
X18960Y-28678D01*
X18960Y-28893D01*
X18960Y-29321D01*
X19042Y-29520D01*
X19194Y-29671D01*
X19382Y-29750D01*
X12699Y-29750D01*
X12868Y-29581D01*
X13025Y-29205D01*
X13025Y-28797D01*
X12869Y-28420D01*
X12581Y-28132D01*
X12205Y-27975D01*
X11797Y-27975D01*
X11420Y-28131D01*
X11132Y-28419D01*
X10975Y-28795D01*
X10975Y-29203D01*
X11131Y-29580D01*
X11301Y-29750D01*
X10250Y-29750D01*
X10250Y-09250D01*
X11801Y-09250D01*
X11632Y-09419D01*
X11475Y-09795D01*
X11475Y-10203D01*
X11631Y-10580D01*
X11919Y-10868D01*
X12295Y-11025D01*
X12703Y-11025D01*
X13080Y-10869D01*
X13368Y-10581D01*
X13525Y-10205D01*
X13525Y-09797D01*
X13369Y-09420D01*
X13199Y-09250D01*
X15783Y-09250D01*
X15594Y-09328D01*
X15443Y-09480D01*
X15360Y-09678D01*
X15360Y-09893D01*
X15360Y-10321D01*
X15442Y-10520D01*
X15594Y-10671D01*
X15792Y-10754D01*
X16007Y-10754D01*
X16206Y-10672D01*
X16357Y-10520D01*
X16399Y-10417D01*
X16442Y-10520D01*
X16594Y-10671D01*
X16792Y-10754D01*
X17007Y-10754D01*
X17206Y-10672D01*
X17357Y-10520D01*
X17399Y-10417D01*
X17442Y-10520D01*
X17575Y-10652D01*
X17575Y-10678D01*
X17600Y-10802D01*
X17670Y-10908D01*
X17776Y-10978D01*
X17900Y-11003D01*
X20863Y-11003D01*
X23015Y-13155D01*
X22896Y-13155D01*
X22703Y-13235D01*
X22555Y-13382D01*
X22475Y-13575D01*
X22475Y-13784D01*
X22555Y-13977D01*
X22701Y-14124D01*
X22418Y-14124D01*
X22418Y-13609D01*
X22359Y-13454D01*
X22346Y-13435D01*
X22277Y-13410D01*
X22270Y-13417D01*
X22270Y-13403D01*
X22245Y-13334D01*
X22094Y-13266D01*
X21929Y-13262D01*
X21774Y-13321D01*
X21755Y-13334D01*
X21730Y-13403D01*
X22000Y-13673D01*
X22270Y-13403D01*
X22270Y-13417D01*
X22007Y-13680D01*
X22277Y-13950D01*
X22346Y-13925D01*
X22414Y-13774D01*
X22418Y-13609D01*
X22418Y-14124D01*
X21903Y-14124D01*
X21846Y-14067D01*
X21906Y-14094D01*
X22071Y-14098D01*
X22226Y-14039D01*
X22245Y-14026D01*
X22270Y-13957D01*
X22035Y-13722D01*
X22000Y-13687D01*
X21993Y-13680D01*
X21958Y-13645D01*
X21723Y-13410D01*
X21654Y-13435D01*
X21586Y-13586D01*
X21582Y-13751D01*
X21613Y-13834D01*
X21525Y-13745D01*
X21525Y-13576D01*
X21445Y-13383D01*
X21298Y-13235D01*
X21105Y-13155D01*
X20896Y-13155D01*
X20703Y-13235D01*
X20555Y-13382D01*
X20499Y-13515D01*
X20445Y-13383D01*
X20298Y-13235D01*
X20105Y-13155D01*
X19896Y-13155D01*
X19703Y-13235D01*
X19555Y-13382D01*
X19499Y-13515D01*
X19445Y-13383D01*
X19298Y-13235D01*
X19105Y-13155D01*
X18896Y-13155D01*
X18703Y-13235D01*
X18555Y-13382D01*
X18475Y-13575D01*
X18475Y-13784D01*
X18555Y-13977D01*
X18702Y-14125D01*
X18895Y-14205D01*
X19065Y-14205D01*
X20270Y-15410D01*
X20375Y-15480D01*
X20376Y-15480D01*
X20500Y-15505D01*
X27225Y-15505D01*
X28860Y-17140D01*
X25260Y-17140D01*
X25297Y-17125D01*
X25445Y-16978D01*
X25525Y-16785D01*
X25525Y-16576D01*
X25445Y-16383D01*
X25298Y-16235D01*
X25105Y-16155D01*
X24896Y-16155D01*
X24703Y-16235D01*
X24555Y-16382D01*
X24499Y-16515D01*
X24445Y-16383D01*
X24298Y-16235D01*
X24105Y-16155D01*
X23896Y-16155D01*
X23703Y-16235D01*
X23555Y-16382D01*
X23499Y-16515D01*
X23445Y-16383D01*
X23298Y-16235D01*
X23105Y-16155D01*
X22896Y-16155D01*
X22703Y-16235D01*
X22582Y-16355D01*
X22417Y-16355D01*
X22298Y-16235D01*
X22105Y-16155D01*
X21896Y-16155D01*
X21703Y-16235D01*
X21555Y-16382D01*
X21499Y-16515D01*
X21445Y-16383D01*
X21298Y-16235D01*
X21105Y-16155D01*
X20896Y-16155D01*
X20703Y-16235D01*
X20555Y-16382D01*
X20499Y-16515D01*
X20445Y-16383D01*
X20298Y-16235D01*
X20105Y-16155D01*
X19896Y-16155D01*
X19703Y-16235D01*
X19555Y-16382D01*
X19499Y-16515D01*
X19445Y-16383D01*
X19298Y-16235D01*
X19105Y-16155D01*
X18896Y-16155D01*
X18703Y-16235D01*
X18555Y-16382D01*
X18475Y-16575D01*
X18475Y-16784D01*
X18555Y-16977D01*
X18702Y-17125D01*
X18895Y-17205D01*
X19065Y-17205D01*
X20336Y-18475D01*
X20338Y-18478D01*
X20443Y-18547D01*
X20444Y-18548D01*
X20568Y-18573D01*
X22504Y-18573D01*
X22475Y-18645D01*
X22475Y-18854D01*
X22555Y-19047D01*
X22702Y-19195D01*
X22895Y-19275D01*
X23104Y-19275D01*
X23297Y-19195D01*
X23445Y-19048D01*
X23525Y-18855D01*
X23525Y-18646D01*
X23494Y-18573D01*
X24623Y-18573D01*
X24586Y-18656D01*
X24582Y-18821D01*
X24641Y-18976D01*
X24654Y-18995D01*
X24723Y-19020D01*
X24958Y-18785D01*
X24993Y-18750D01*
X25000Y-18743D01*
X25007Y-18750D01*
X25042Y-18785D01*
X25277Y-19020D01*
X25346Y-18995D01*
X25414Y-18844D01*
X25418Y-18679D01*
X25377Y-18573D01*
X34712Y-18573D01*
X35551Y-19412D01*
X35551Y-19610D01*
X35635Y-19812D01*
X35789Y-19966D01*
X35991Y-20050D01*
X36209Y-20050D01*
X36411Y-19966D01*
X36565Y-19812D01*
X36649Y-19610D01*
X36649Y-19392D01*
X36565Y-19190D01*
X36411Y-19036D01*
X36209Y-18952D01*
X36011Y-18952D01*
X35254Y-18195D01*
X35550Y-18195D01*
X35550Y-18232D01*
X35634Y-18434D01*
X35788Y-18588D01*
X35990Y-18672D01*
X36208Y-18672D01*
X36410Y-18588D01*
X36564Y-18434D01*
X36648Y-18232D01*
X36648Y-18014D01*
X36564Y-17812D01*
X36410Y-17658D01*
X36208Y-17574D01*
X35990Y-17574D01*
X35981Y-17577D01*
X35970Y-17570D01*
X35846Y-17545D01*
X35759Y-17545D01*
X36010Y-17294D01*
X36208Y-17294D01*
X36410Y-17210D01*
X36564Y-17056D01*
X36648Y-16854D01*
X36648Y-16636D01*
X36564Y-16434D01*
X36410Y-16280D01*
X36208Y-16196D01*
X35990Y-16196D01*
X35788Y-16280D01*
X35634Y-16434D01*
X35550Y-16636D01*
X35550Y-16834D01*
X35244Y-17140D01*
X34783Y-17140D01*
X36009Y-15914D01*
X36208Y-15914D01*
X36410Y-15830D01*
X36564Y-15676D01*
X36648Y-15474D01*
X36648Y-15256D01*
X36564Y-15054D01*
X36410Y-14900D01*
X36208Y-14816D01*
X35990Y-14816D01*
X35788Y-14900D01*
X35634Y-15054D01*
X35550Y-15256D01*
X35550Y-15454D01*
X34294Y-16710D01*
X33239Y-16710D01*
X33368Y-16581D01*
X33525Y-16205D01*
X33525Y-15797D01*
X33369Y-15420D01*
X33111Y-15162D01*
X35251Y-15162D01*
X35375Y-15137D01*
X35481Y-15067D01*
X36010Y-14538D01*
X36208Y-14538D01*
X36410Y-14454D01*
X36564Y-14300D01*
X36648Y-14098D01*
X36648Y-13880D01*
X36564Y-13678D01*
X36410Y-13524D01*
X36208Y-13440D01*
X35990Y-13440D01*
X35788Y-13524D01*
X35634Y-13678D01*
X35550Y-13880D01*
X35550Y-14078D01*
X35116Y-14512D01*
X34657Y-14512D01*
X36009Y-13160D01*
X36207Y-13160D01*
X36409Y-13076D01*
X36563Y-12922D01*
X36647Y-12720D01*
X36647Y-12502D01*
X36563Y-12300D01*
X36543Y-12280D01*
X36543Y-11158D01*
X36481Y-10994D01*
X36465Y-10973D01*
X36394Y-10945D01*
X36387Y-10952D01*
X36387Y-10938D01*
X36359Y-10867D01*
X36199Y-10795D01*
X36024Y-10789D01*
X35860Y-10851D01*
X35839Y-10867D01*
X35811Y-10938D01*
X36099Y-11226D01*
X36387Y-10938D01*
X36387Y-10952D01*
X36106Y-11233D01*
X36394Y-11521D01*
X36465Y-11493D01*
X36537Y-11333D01*
X36543Y-11158D01*
X36543Y-12280D01*
X36409Y-12146D01*
X36387Y-12136D01*
X36387Y-11528D01*
X36099Y-11240D01*
X36092Y-11247D01*
X36092Y-11233D01*
X35804Y-10945D01*
X35733Y-10973D01*
X35661Y-11133D01*
X35655Y-11308D01*
X35717Y-11472D01*
X35733Y-11493D01*
X35804Y-11521D01*
X36092Y-11233D01*
X36092Y-11247D01*
X35811Y-11528D01*
X35839Y-11599D01*
X35999Y-11671D01*
X36174Y-11677D01*
X36338Y-11615D01*
X36359Y-11599D01*
X36387Y-11528D01*
X36387Y-12136D01*
X36207Y-12062D01*
X35989Y-12062D01*
X35787Y-12146D01*
X35633Y-12300D01*
X35549Y-12502D01*
X35549Y-12700D01*
X34125Y-14124D01*
X25458Y-14124D01*
X25486Y-14096D01*
X25524Y-14005D01*
X25524Y-13906D01*
X25524Y-13356D01*
X25486Y-13264D01*
X25416Y-13194D01*
X25325Y-13156D01*
X25226Y-13156D01*
X24676Y-13156D01*
X24584Y-13194D01*
X24514Y-13264D01*
X24476Y-13355D01*
X24476Y-13454D01*
X24476Y-13457D01*
X24445Y-13383D01*
X24298Y-13235D01*
X24105Y-13155D01*
X23934Y-13155D01*
X21328Y-10548D01*
X21357Y-10520D01*
X21399Y-10417D01*
X21442Y-10520D01*
X21594Y-10671D01*
X21792Y-10754D01*
X22007Y-10754D01*
X22206Y-10672D01*
X22357Y-10520D01*
X22399Y-10417D01*
X22442Y-10520D01*
X22594Y-10671D01*
X22792Y-10754D01*
X23007Y-10754D01*
X23206Y-10672D01*
X23357Y-10520D01*
X23440Y-10322D01*
X23440Y-10107D01*
X23440Y-09679D01*
X23358Y-09480D01*
X23206Y-09329D01*
X23017Y-09250D01*
X24383Y-09250D01*
X24194Y-09328D01*
X24043Y-09480D01*
X23960Y-09678D01*
X23960Y-09893D01*
X23960Y-10321D01*
X24042Y-10520D01*
X24194Y-10671D01*
X24392Y-10754D01*
X24607Y-10754D01*
X24806Y-10672D01*
X24957Y-10520D01*
X24999Y-10417D01*
X25042Y-10520D01*
X25194Y-10671D01*
X25392Y-10754D01*
X25607Y-10754D01*
X25806Y-10672D01*
X25957Y-10520D01*
X25999Y-10417D01*
X26042Y-10520D01*
X26194Y-10671D01*
X26392Y-10754D01*
X26607Y-10754D01*
X26806Y-10672D01*
X26957Y-10520D01*
X26999Y-10417D01*
X27042Y-10520D01*
X27194Y-10671D01*
X27392Y-10754D01*
X27607Y-10754D01*
X27806Y-10672D01*
X27957Y-10520D01*
X27999Y-10417D01*
X28042Y-10520D01*
X28194Y-10671D01*
X28392Y-10754D01*
X28607Y-10754D01*
X28806Y-10672D01*
X28957Y-10520D01*
X28999Y-10417D01*
X29042Y-10520D01*
X29194Y-10671D01*
X29392Y-10754D01*
X29607Y-10754D01*
X29806Y-10672D01*
X29957Y-10520D01*
X29999Y-10417D01*
X30042Y-10520D01*
X30194Y-10671D01*
X30392Y-10754D01*
X30607Y-10754D01*
X30806Y-10672D01*
X30957Y-10520D01*
X30999Y-10417D01*
X31042Y-10520D01*
X31194Y-10671D01*
X31392Y-10754D01*
X31607Y-10754D01*
X31806Y-10672D01*
X31957Y-10520D01*
X32040Y-10322D01*
X32040Y-10107D01*
X32040Y-09679D01*
X31958Y-09480D01*
X31806Y-09329D01*
X31617Y-09250D01*
X37250Y-09250D01*
X37250Y-29750D01*
X37250Y-29750D01*
G37*
G54D17*
X37250Y-29750D02*
X36650Y-29750D01*
X36650Y-27878D01*
X36650Y-27660D01*
X36566Y-27458D01*
X36412Y-27304D01*
X36210Y-27220D01*
X36011Y-27220D01*
X33902Y-25111D01*
X34359Y-25111D01*
X35551Y-26303D01*
X35551Y-26501D01*
X35635Y-26703D01*
X35789Y-26857D01*
X35991Y-26941D01*
X36209Y-26941D01*
X36411Y-26857D01*
X36565Y-26703D01*
X36649Y-26501D01*
X36649Y-26283D01*
X36649Y-23743D01*
X36649Y-23525D01*
X36565Y-23323D01*
X36411Y-23169D01*
X36209Y-23085D01*
X36011Y-23085D01*
X35254Y-22328D01*
X35551Y-22328D01*
X35551Y-22365D01*
X35635Y-22567D01*
X35789Y-22721D01*
X35991Y-22805D01*
X36209Y-22805D01*
X36411Y-22721D01*
X36565Y-22567D01*
X36649Y-22365D01*
X36649Y-22147D01*
X36565Y-21945D01*
X36411Y-21791D01*
X36209Y-21707D01*
X35991Y-21707D01*
X35982Y-21710D01*
X35971Y-21703D01*
X35847Y-21678D01*
X35762Y-21678D01*
X36011Y-21429D01*
X36209Y-21429D01*
X36411Y-21345D01*
X36565Y-21191D01*
X36649Y-20989D01*
X36649Y-20771D01*
X36565Y-20569D01*
X36411Y-20415D01*
X36209Y-20331D01*
X35991Y-20331D01*
X35789Y-20415D01*
X35635Y-20569D01*
X35551Y-20771D01*
X35551Y-20969D01*
X35243Y-21277D01*
X25445Y-21277D01*
X25486Y-21236D01*
X25524Y-21145D01*
X25524Y-21046D01*
X25524Y-20496D01*
X25486Y-20404D01*
X25416Y-20334D01*
X25325Y-20296D01*
X25270Y-20296D01*
X25270Y-19027D01*
X25000Y-18757D01*
X24730Y-19027D01*
X24755Y-19096D01*
X24906Y-19164D01*
X25071Y-19168D01*
X25226Y-19109D01*
X25245Y-19096D01*
X25270Y-19027D01*
X25270Y-20296D01*
X25226Y-20296D01*
X24676Y-20296D01*
X24584Y-20334D01*
X24514Y-20404D01*
X24476Y-20495D01*
X24476Y-20594D01*
X24476Y-20597D01*
X24445Y-20523D01*
X24298Y-20375D01*
X24105Y-20295D01*
X23896Y-20295D01*
X23703Y-20375D01*
X23555Y-20522D01*
X23499Y-20655D01*
X23445Y-20523D01*
X23298Y-20375D01*
X23105Y-20295D01*
X22896Y-20295D01*
X22703Y-20375D01*
X22555Y-20522D01*
X22475Y-20715D01*
X22475Y-20924D01*
X22555Y-21117D01*
X22702Y-21265D01*
X22730Y-21277D01*
X22418Y-21277D01*
X22418Y-20749D01*
X22359Y-20594D01*
X22346Y-20575D01*
X22277Y-20550D01*
X22270Y-20557D01*
X22270Y-20543D01*
X22245Y-20474D01*
X22094Y-20406D01*
X21929Y-20402D01*
X21774Y-20461D01*
X21755Y-20474D01*
X21730Y-20543D01*
X22000Y-20813D01*
X22270Y-20543D01*
X22270Y-20557D01*
X22007Y-20820D01*
X22277Y-21090D01*
X22346Y-21065D01*
X22414Y-20914D01*
X22418Y-20749D01*
X22418Y-21277D01*
X21916Y-21277D01*
X21846Y-21207D01*
X21906Y-21234D01*
X22071Y-21238D01*
X22226Y-21179D01*
X22245Y-21166D01*
X22270Y-21097D01*
X22035Y-20862D01*
X22000Y-20827D01*
X21993Y-20820D01*
X21958Y-20785D01*
X21723Y-20550D01*
X21654Y-20575D01*
X21586Y-20726D01*
X21582Y-20891D01*
X21613Y-20974D01*
X21525Y-20885D01*
X21525Y-20716D01*
X21445Y-20523D01*
X21298Y-20375D01*
X21105Y-20295D01*
X20896Y-20295D01*
X20703Y-20375D01*
X20555Y-20522D01*
X20499Y-20655D01*
X20445Y-20523D01*
X20298Y-20375D01*
X20105Y-20295D01*
X19896Y-20295D01*
X19703Y-20375D01*
X19555Y-20522D01*
X19499Y-20655D01*
X19445Y-20523D01*
X19298Y-20375D01*
X19105Y-20295D01*
X18896Y-20295D01*
X18703Y-20375D01*
X18555Y-20522D01*
X18475Y-20715D01*
X18475Y-20924D01*
X18555Y-21117D01*
X18702Y-21265D01*
X18895Y-21345D01*
X19065Y-21345D01*
X20219Y-22499D01*
X20324Y-22569D01*
X20325Y-22569D01*
X20449Y-22594D01*
X34600Y-22594D01*
X35551Y-23545D01*
X35551Y-23743D01*
X35635Y-23945D01*
X35789Y-24099D01*
X35991Y-24183D01*
X36209Y-24183D01*
X36411Y-24099D01*
X36565Y-23945D01*
X36649Y-23743D01*
X36649Y-26283D01*
X36565Y-26081D01*
X36411Y-25927D01*
X36209Y-25843D01*
X36011Y-25843D01*
X35026Y-24858D01*
X35486Y-24858D01*
X35550Y-24922D01*
X35550Y-25120D01*
X35634Y-25322D01*
X35788Y-25476D01*
X35990Y-25560D01*
X36208Y-25560D01*
X36410Y-25476D01*
X36564Y-25322D01*
X36648Y-25120D01*
X36648Y-24902D01*
X36564Y-24700D01*
X36410Y-24546D01*
X36208Y-24462D01*
X36010Y-24462D01*
X35851Y-24303D01*
X35745Y-24233D01*
X35621Y-24208D01*
X25354Y-24208D01*
X25445Y-24118D01*
X25525Y-23925D01*
X25525Y-23716D01*
X25445Y-23523D01*
X25298Y-23375D01*
X25105Y-23295D01*
X24896Y-23295D01*
X24703Y-23375D01*
X24555Y-23522D01*
X24499Y-23655D01*
X24445Y-23523D01*
X24298Y-23375D01*
X24105Y-23295D01*
X23896Y-23295D01*
X23703Y-23375D01*
X23555Y-23522D01*
X23499Y-23655D01*
X23445Y-23523D01*
X23298Y-23375D01*
X23105Y-23295D01*
X22896Y-23295D01*
X22703Y-23375D01*
X22582Y-23495D01*
X22417Y-23495D01*
X22298Y-23375D01*
X22105Y-23295D01*
X21896Y-23295D01*
X21703Y-23375D01*
X21555Y-23522D01*
X21499Y-23655D01*
X21445Y-23523D01*
X21298Y-23375D01*
X21105Y-23295D01*
X20896Y-23295D01*
X20703Y-23375D01*
X20555Y-23522D01*
X20499Y-23655D01*
X20445Y-23523D01*
X20298Y-23375D01*
X20105Y-23295D01*
X19896Y-23295D01*
X19703Y-23375D01*
X19555Y-23522D01*
X19499Y-23655D01*
X19445Y-23523D01*
X19298Y-23375D01*
X19105Y-23295D01*
X18896Y-23295D01*
X18703Y-23375D01*
X18555Y-23522D01*
X18475Y-23715D01*
X18475Y-23924D01*
X18555Y-24117D01*
X18702Y-24265D01*
X18895Y-24345D01*
X19065Y-24345D01*
X19994Y-25273D01*
X19996Y-25276D01*
X20101Y-25345D01*
X20102Y-25346D01*
X20200Y-25365D01*
X20225Y-25371D01*
X20225Y-25370D01*
X20226Y-25371D01*
X22636Y-25371D01*
X22555Y-25452D01*
X22475Y-25645D01*
X22475Y-25854D01*
X22555Y-26047D01*
X22702Y-26195D01*
X22895Y-26275D01*
X23104Y-26275D01*
X23297Y-26195D01*
X23445Y-26048D01*
X23525Y-25855D01*
X23525Y-25646D01*
X23445Y-25453D01*
X23363Y-25371D01*
X24826Y-25371D01*
X24774Y-25391D01*
X24755Y-25404D01*
X24730Y-25473D01*
X25000Y-25743D01*
X25270Y-25473D01*
X25245Y-25404D01*
X25171Y-25371D01*
X33243Y-25371D01*
X35552Y-27679D01*
X35552Y-27878D01*
X35636Y-28080D01*
X35790Y-28234D01*
X35992Y-28318D01*
X36210Y-28318D01*
X36412Y-28234D01*
X36566Y-28080D01*
X36650Y-27878D01*
X36650Y-29750D01*
X33525Y-29750D01*
X33525Y-27205D01*
X33525Y-26797D01*
X33369Y-26420D01*
X33081Y-26132D01*
X32705Y-25975D01*
X32297Y-25975D01*
X31920Y-26131D01*
X31632Y-26419D01*
X31475Y-26795D01*
X31475Y-27203D01*
X31631Y-27580D01*
X31919Y-27868D01*
X32295Y-28025D01*
X32703Y-28025D01*
X33080Y-27869D01*
X33368Y-27581D01*
X33525Y-27205D01*
X33525Y-29750D01*
X31616Y-29750D01*
X31806Y-29672D01*
X31957Y-29520D01*
X32040Y-29322D01*
X32040Y-29107D01*
X32040Y-28679D01*
X31958Y-28480D01*
X31806Y-28329D01*
X31608Y-28246D01*
X31393Y-28246D01*
X31194Y-28328D01*
X31043Y-28480D01*
X31000Y-28582D01*
X30958Y-28480D01*
X30806Y-28329D01*
X30608Y-28246D01*
X30393Y-28246D01*
X30194Y-28328D01*
X30043Y-28480D01*
X30000Y-28582D01*
X29958Y-28480D01*
X29806Y-28329D01*
X29608Y-28246D01*
X29393Y-28246D01*
X29194Y-28328D01*
X29043Y-28480D01*
X29000Y-28582D01*
X28958Y-28480D01*
X28806Y-28329D01*
X28608Y-28246D01*
X28393Y-28246D01*
X28194Y-28328D01*
X28043Y-28480D01*
X28000Y-28582D01*
X27958Y-28480D01*
X27806Y-28329D01*
X27608Y-28246D01*
X27393Y-28246D01*
X27194Y-28328D01*
X27043Y-28480D01*
X27000Y-28582D01*
X26958Y-28480D01*
X26806Y-28329D01*
X26608Y-28246D01*
X26393Y-28246D01*
X26194Y-28328D01*
X26043Y-28480D01*
X25960Y-28678D01*
X25960Y-28893D01*
X25960Y-29321D01*
X26042Y-29520D01*
X26194Y-29671D01*
X26382Y-29750D01*
X25418Y-29750D01*
X25418Y-25679D01*
X25359Y-25524D01*
X25346Y-25505D01*
X25277Y-25480D01*
X25007Y-25750D01*
X25277Y-26020D01*
X25346Y-25995D01*
X25414Y-25844D01*
X25418Y-25679D01*
X25418Y-29750D01*
X25270Y-29750D01*
X25270Y-26027D01*
X25000Y-25757D01*
X24993Y-25764D01*
X24993Y-25750D01*
X24723Y-25480D01*
X24654Y-25505D01*
X24586Y-25656D01*
X24582Y-25821D01*
X24641Y-25976D01*
X24654Y-25995D01*
X24723Y-26020D01*
X24993Y-25750D01*
X24993Y-25764D01*
X24730Y-26027D01*
X24755Y-26096D01*
X24906Y-26164D01*
X25071Y-26168D01*
X25226Y-26109D01*
X25245Y-26096D01*
X25270Y-26027D01*
X25270Y-29750D01*
X24616Y-29750D01*
X24806Y-29672D01*
X24957Y-29520D01*
X25040Y-29322D01*
X25040Y-29107D01*
X25040Y-28679D01*
X24958Y-28480D01*
X24806Y-28329D01*
X24608Y-28246D01*
X24393Y-28246D01*
X24194Y-28328D01*
X24043Y-28480D01*
X24000Y-28582D01*
X23958Y-28480D01*
X23806Y-28329D01*
X23608Y-28246D01*
X23393Y-28246D01*
X23194Y-28328D01*
X23043Y-28480D01*
X22960Y-28678D01*
X22960Y-28893D01*
X22960Y-29321D01*
X23042Y-29520D01*
X23194Y-29671D01*
X23382Y-29750D01*
X22950Y-29750D01*
X22950Y-29295D01*
X22950Y-29005D01*
X22950Y-28995D01*
X22950Y-28705D01*
X22879Y-28540D01*
X22751Y-28415D01*
X22575Y-28357D01*
X22505Y-28388D01*
X22505Y-28995D01*
X22950Y-28995D01*
X22950Y-29005D01*
X22505Y-29005D01*
X22505Y-29612D01*
X22575Y-29643D01*
X22751Y-29585D01*
X22879Y-29460D01*
X22950Y-29295D01*
X22950Y-29750D01*
X22495Y-29750D01*
X22495Y-29612D01*
X22495Y-29005D01*
X22495Y-28995D01*
X22495Y-28388D01*
X22425Y-28357D01*
X22249Y-28415D01*
X22121Y-28540D01*
X22050Y-28705D01*
X22050Y-28995D01*
X22495Y-28995D01*
X22495Y-29005D01*
X22050Y-29005D01*
X22050Y-29295D01*
X22121Y-29460D01*
X22249Y-29585D01*
X22425Y-29643D01*
X22495Y-29612D01*
X22495Y-29750D01*
X21616Y-29750D01*
X21806Y-29672D01*
X21957Y-29520D01*
X22040Y-29322D01*
X22040Y-29107D01*
X22040Y-28679D01*
X21958Y-28480D01*
X21806Y-28329D01*
X21608Y-28246D01*
X21393Y-28246D01*
X21194Y-28328D01*
X21043Y-28480D01*
X21000Y-28582D01*
X20958Y-28480D01*
X20806Y-28329D01*
X20608Y-28246D01*
X20393Y-28246D01*
X20194Y-28328D01*
X20043Y-28480D01*
X20000Y-28582D01*
X19958Y-28480D01*
X19806Y-28329D01*
X19608Y-28246D01*
X19393Y-28246D01*
X19194Y-28328D01*
X19043Y-28480D01*
X18960Y-28678D01*
X18960Y-28893D01*
X18960Y-29321D01*
X19042Y-29520D01*
X19194Y-29671D01*
X19382Y-29750D01*
X12699Y-29750D01*
X12868Y-29581D01*
X13025Y-29205D01*
X13025Y-28797D01*
X12869Y-28420D01*
X12581Y-28132D01*
X12205Y-27975D01*
X11797Y-27975D01*
X11420Y-28131D01*
X11132Y-28419D01*
X10975Y-28795D01*
X10975Y-29203D01*
X11131Y-29580D01*
X11301Y-29750D01*
X10250Y-29750D01*
X10250Y-09250D01*
X11801Y-09250D01*
X11632Y-09419D01*
X11475Y-09795D01*
X11475Y-10203D01*
X11631Y-10580D01*
X11919Y-10868D01*
X12295Y-11025D01*
X12703Y-11025D01*
X13080Y-10869D01*
X13368Y-10581D01*
X13525Y-10205D01*
X13525Y-09797D01*
X13369Y-09420D01*
X13199Y-09250D01*
X15783Y-09250D01*
X15594Y-09328D01*
X15443Y-09480D01*
X15360Y-09678D01*
X15360Y-09893D01*
X15360Y-10321D01*
X15442Y-10520D01*
X15594Y-10671D01*
X15792Y-10754D01*
X16007Y-10754D01*
X16206Y-10672D01*
X16357Y-10520D01*
X16399Y-10417D01*
X16442Y-10520D01*
X16594Y-10671D01*
X16792Y-10754D01*
X17007Y-10754D01*
X17206Y-10672D01*
X17357Y-10520D01*
X17399Y-10417D01*
X17442Y-10520D01*
X17575Y-10652D01*
X17575Y-10678D01*
X17600Y-10802D01*
X17670Y-10908D01*
X17776Y-10978D01*
X17900Y-11003D01*
X20863Y-11003D01*
X23015Y-13155D01*
X22896Y-13155D01*
X22703Y-13235D01*
X22555Y-13382D01*
X22475Y-13575D01*
X22475Y-13784D01*
X22555Y-13977D01*
X22701Y-14124D01*
X22418Y-14124D01*
X22418Y-13609D01*
X22359Y-13454D01*
X22346Y-13435D01*
X22277Y-13410D01*
X22270Y-13417D01*
X22270Y-13403D01*
X22245Y-13334D01*
X22094Y-13266D01*
X21929Y-13262D01*
X21774Y-13321D01*
X21755Y-13334D01*
X21730Y-13403D01*
X22000Y-13673D01*
X22270Y-13403D01*
X22270Y-13417D01*
X22007Y-13680D01*
X22277Y-13950D01*
X22346Y-13925D01*
X22414Y-13774D01*
X22418Y-13609D01*
X22418Y-14124D01*
X21903Y-14124D01*
X21846Y-14067D01*
X21906Y-14094D01*
X22071Y-14098D01*
X22226Y-14039D01*
X22245Y-14026D01*
X22270Y-13957D01*
X22035Y-13722D01*
X22000Y-13687D01*
X21993Y-13680D01*
X21958Y-13645D01*
X21723Y-13410D01*
X21654Y-13435D01*
X21586Y-13586D01*
X21582Y-13751D01*
X21613Y-13834D01*
X21525Y-13745D01*
X21525Y-13576D01*
X21445Y-13383D01*
X21298Y-13235D01*
X21105Y-13155D01*
X20896Y-13155D01*
X20703Y-13235D01*
X20555Y-13382D01*
X20499Y-13515D01*
X20445Y-13383D01*
X20298Y-13235D01*
X20105Y-13155D01*
X19896Y-13155D01*
X19703Y-13235D01*
X19555Y-13382D01*
X19499Y-13515D01*
X19445Y-13383D01*
X19298Y-13235D01*
X19105Y-13155D01*
X18896Y-13155D01*
X18703Y-13235D01*
X18555Y-13382D01*
X18475Y-13575D01*
X18475Y-13784D01*
X18555Y-13977D01*
X18702Y-14125D01*
X18895Y-14205D01*
X19065Y-14205D01*
X20270Y-15410D01*
X20375Y-15480D01*
X20376Y-15480D01*
X20500Y-15505D01*
X27225Y-15505D01*
X28860Y-17140D01*
X25260Y-17140D01*
X25297Y-17125D01*
X25445Y-16978D01*
X25525Y-16785D01*
X25525Y-16576D01*
X25445Y-16383D01*
X25298Y-16235D01*
X25105Y-16155D01*
X24896Y-16155D01*
X24703Y-16235D01*
X24555Y-16382D01*
X24499Y-16515D01*
X24445Y-16383D01*
X24298Y-16235D01*
X24105Y-16155D01*
X23896Y-16155D01*
X23703Y-16235D01*
X23555Y-16382D01*
X23499Y-16515D01*
X23445Y-16383D01*
X23298Y-16235D01*
X23105Y-16155D01*
X22896Y-16155D01*
X22703Y-16235D01*
X22582Y-16355D01*
X22417Y-16355D01*
X22298Y-16235D01*
X22105Y-16155D01*
X21896Y-16155D01*
X21703Y-16235D01*
X21555Y-16382D01*
X21499Y-16515D01*
X21445Y-16383D01*
X21298Y-16235D01*
X21105Y-16155D01*
X20896Y-16155D01*
X20703Y-16235D01*
X20555Y-16382D01*
X20499Y-16515D01*
X20445Y-16383D01*
X20298Y-16235D01*
X20105Y-16155D01*
X19896Y-16155D01*
X19703Y-16235D01*
X19555Y-16382D01*
X19499Y-16515D01*
X19445Y-16383D01*
X19298Y-16235D01*
X19105Y-16155D01*
X18896Y-16155D01*
X18703Y-16235D01*
X18555Y-16382D01*
X18475Y-16575D01*
X18475Y-16784D01*
X18555Y-16977D01*
X18702Y-17125D01*
X18895Y-17205D01*
X19065Y-17205D01*
X20336Y-18475D01*
X20338Y-18478D01*
X20443Y-18547D01*
X20444Y-18548D01*
X20568Y-18573D01*
X22504Y-18573D01*
X22475Y-18645D01*
X22475Y-18854D01*
X22555Y-19047D01*
X22702Y-19195D01*
X22895Y-19275D01*
X23104Y-19275D01*
X23297Y-19195D01*
X23445Y-19048D01*
X23525Y-18855D01*
X23525Y-18646D01*
X23494Y-18573D01*
X24623Y-18573D01*
X24586Y-18656D01*
X24582Y-18821D01*
X24641Y-18976D01*
X24654Y-18995D01*
X24723Y-19020D01*
X24958Y-18785D01*
X24993Y-18750D01*
X25000Y-18743D01*
X25007Y-18750D01*
X25042Y-18785D01*
X25277Y-19020D01*
X25346Y-18995D01*
X25414Y-18844D01*
X25418Y-18679D01*
X25377Y-18573D01*
X34712Y-18573D01*
X35551Y-19412D01*
X35551Y-19610D01*
X35635Y-19812D01*
X35789Y-19966D01*
X35991Y-20050D01*
X36209Y-20050D01*
X36411Y-19966D01*
X36565Y-19812D01*
X36649Y-19610D01*
X36649Y-19392D01*
X36565Y-19190D01*
X36411Y-19036D01*
X36209Y-18952D01*
X36011Y-18952D01*
X35254Y-18195D01*
X35550Y-18195D01*
X35550Y-18232D01*
X35634Y-18434D01*
X35788Y-18588D01*
X35990Y-18672D01*
X36208Y-18672D01*
X36410Y-18588D01*
X36564Y-18434D01*
X36648Y-18232D01*
X36648Y-18014D01*
X36564Y-17812D01*
X36410Y-17658D01*
X36208Y-17574D01*
X35990Y-17574D01*
X35981Y-17577D01*
X35970Y-17570D01*
X35846Y-17545D01*
X35759Y-17545D01*
X36010Y-17294D01*
X36208Y-17294D01*
X36410Y-17210D01*
X36564Y-17056D01*
X36648Y-16854D01*
X36648Y-16636D01*
X36564Y-16434D01*
X36410Y-16280D01*
X36208Y-16196D01*
X35990Y-16196D01*
X35788Y-16280D01*
X35634Y-16434D01*
X35550Y-16636D01*
X35550Y-16834D01*
X35244Y-17140D01*
X34783Y-17140D01*
X36009Y-15914D01*
X36208Y-15914D01*
X36410Y-15830D01*
X36564Y-15676D01*
X36648Y-15474D01*
X36648Y-15256D01*
X36564Y-15054D01*
X36410Y-14900D01*
X36208Y-14816D01*
X35990Y-14816D01*
X35788Y-14900D01*
X35634Y-15054D01*
X35550Y-15256D01*
X35550Y-15454D01*
X34294Y-16710D01*
X33239Y-16710D01*
X33368Y-16581D01*
X33525Y-16205D01*
X33525Y-15797D01*
X33369Y-15420D01*
X33111Y-15162D01*
X35251Y-15162D01*
X35375Y-15137D01*
X35481Y-15067D01*
X36010Y-14538D01*
X36208Y-14538D01*
X36410Y-14454D01*
X36564Y-14300D01*
X36648Y-14098D01*
X36648Y-13880D01*
X36564Y-13678D01*
X36410Y-13524D01*
X36208Y-13440D01*
X35990Y-13440D01*
X35788Y-13524D01*
X35634Y-13678D01*
X35550Y-13880D01*
X35550Y-14078D01*
X35116Y-14512D01*
X34657Y-14512D01*
X36009Y-13160D01*
X36207Y-13160D01*
X36409Y-13076D01*
X36563Y-12922D01*
X36647Y-12720D01*
X36647Y-12502D01*
X36563Y-12300D01*
X36543Y-12280D01*
X36543Y-11158D01*
X36481Y-10994D01*
X36465Y-10973D01*
X36394Y-10945D01*
X36387Y-10952D01*
X36387Y-10938D01*
X36359Y-10867D01*
X36199Y-10795D01*
X36024Y-10789D01*
X35860Y-10851D01*
X35839Y-10867D01*
X35811Y-10938D01*
X36099Y-11226D01*
X36387Y-10938D01*
X36387Y-10952D01*
X36106Y-11233D01*
X36394Y-11521D01*
X36465Y-11493D01*
X36537Y-11333D01*
X36543Y-11158D01*
X36543Y-12280D01*
X36409Y-12146D01*
X36387Y-12136D01*
X36387Y-11528D01*
X36099Y-11240D01*
X36092Y-11247D01*
X36092Y-11233D01*
X35804Y-10945D01*
X35733Y-10973D01*
X35661Y-11133D01*
X35655Y-11308D01*
X35717Y-11472D01*
X35733Y-11493D01*
X35804Y-11521D01*
X36092Y-11233D01*
X36092Y-11247D01*
X35811Y-11528D01*
X35839Y-11599D01*
X35999Y-11671D01*
X36174Y-11677D01*
X36338Y-11615D01*
X36359Y-11599D01*
X36387Y-11528D01*
X36387Y-12136D01*
X36207Y-12062D01*
X35989Y-12062D01*
X35787Y-12146D01*
X35633Y-12300D01*
X35549Y-12502D01*
X35549Y-12700D01*
X34125Y-14124D01*
X25458Y-14124D01*
X25486Y-14096D01*
X25524Y-14005D01*
X25524Y-13906D01*
X25524Y-13356D01*
X25486Y-13264D01*
X25416Y-13194D01*
X25325Y-13156D01*
X25226Y-13156D01*
X24676Y-13156D01*
X24584Y-13194D01*
X24514Y-13264D01*
X24476Y-13355D01*
X24476Y-13454D01*
X24476Y-13457D01*
X24445Y-13383D01*
X24298Y-13235D01*
X24105Y-13155D01*
X23934Y-13155D01*
X21328Y-10548D01*
X21357Y-10520D01*
X21399Y-10417D01*
X21442Y-10520D01*
X21594Y-10671D01*
X21792Y-10754D01*
X22007Y-10754D01*
X22206Y-10672D01*
X22357Y-10520D01*
X22399Y-10417D01*
X22442Y-10520D01*
X22594Y-10671D01*
X22792Y-10754D01*
X23007Y-10754D01*
X23206Y-10672D01*
X23357Y-10520D01*
X23440Y-10322D01*
X23440Y-10107D01*
X23440Y-09679D01*
X23358Y-09480D01*
X23206Y-09329D01*
X23017Y-09250D01*
X24383Y-09250D01*
X24194Y-09328D01*
X24043Y-09480D01*
X23960Y-09678D01*
X23960Y-09893D01*
X23960Y-10321D01*
X24042Y-10520D01*
X24194Y-10671D01*
X24392Y-10754D01*
X24607Y-10754D01*
X24806Y-10672D01*
X24957Y-10520D01*
X24999Y-10417D01*
X25042Y-10520D01*
X25194Y-10671D01*
X25392Y-10754D01*
X25607Y-10754D01*
X25806Y-10672D01*
X25957Y-10520D01*
X25999Y-10417D01*
X26042Y-10520D01*
X26194Y-10671D01*
X26392Y-10754D01*
X26607Y-10754D01*
X26806Y-10672D01*
X26957Y-10520D01*
X26999Y-10417D01*
X27042Y-10520D01*
X27194Y-10671D01*
X27392Y-10754D01*
X27607Y-10754D01*
X27806Y-10672D01*
X27957Y-10520D01*
X27999Y-10417D01*
X28042Y-10520D01*
X28194Y-10671D01*
X28392Y-10754D01*
X28607Y-10754D01*
X28806Y-10672D01*
X28957Y-10520D01*
X28999Y-10417D01*
X29042Y-10520D01*
X29194Y-10671D01*
X29392Y-10754D01*
X29607Y-10754D01*
X29806Y-10672D01*
X29957Y-10520D01*
X29999Y-10417D01*
X30042Y-10520D01*
X30194Y-10671D01*
X30392Y-10754D01*
X30607Y-10754D01*
X30806Y-10672D01*
X30957Y-10520D01*
X30999Y-10417D01*
X31042Y-10520D01*
X31194Y-10671D01*
X31392Y-10754D01*
X31607Y-10754D01*
X31806Y-10672D01*
X31957Y-10520D01*
X32040Y-10322D01*
X32040Y-10107D01*
X32040Y-09679D01*
X31958Y-09480D01*
X31806Y-09329D01*
X31617Y-09250D01*
X37250Y-09250D01*
X37250Y-29750D01*
M02*
