M48
;DRILL file {PCBnew (2011-aug-04)-testing} date Mon 24 Sep 2012 03:04:38 PM PDT
;FORMAT={2:4/ absolute / inch / suppress trailing zeros}
FMAT,2
INCH,LZ
T1C0.032
T2C0.035
T3C0.125
%
G90
G05
M72
T1
X0159Y-01
X0169Y-01
X0179Y-01
X0189Y-01
X019Y-01368
X019Y-01668
X019Y-02082
X019Y-02382
X0195Y-029
X0199Y-01
X02Y-01368
X02Y-01668
X02Y-02082
X02Y-02382
X0205Y-029
X0209Y-01
X021Y-01368
X021Y-01668
X021Y-02082
X021Y-02382
X0215Y-029
X0219Y-01
X022Y-01368
X022Y-01668
X022Y-02082
X022Y-02382
X0225Y-029
X0229Y-01
X023Y-01368
X023Y-01668
X023Y-01875
X023Y-02082
X023Y-02382
X023Y-02575
X0235Y-029
X024Y-01368
X024Y-01668
X024Y-02082
X024Y-02382
X0245Y-01
X0245Y-029
X025Y-01368
X025Y-01668
X025Y-01875
X025Y-02082
X025Y-02382
X025Y-02575
X0255Y-01
X0265Y-01
X0265Y-029
X0275Y-01
X0275Y-029
X0285Y-01
X0285Y-029
X0295Y-01
X0295Y-029
X0305Y-01
X0305Y-029
X0315Y-01
X0315Y-029
T2
X036098Y-012611
X036099Y-011233
X036099Y-013989
X036099Y-015365
X036099Y-016745
X036099Y-018123
X036099Y-025011
X0361Y-019501
X0361Y-02088
X0361Y-022256
X0361Y-023634
X0361Y-026392
X036101Y-027769
T3
X012Y-029
X0125Y-01
X0325Y-016
X0325Y-027
T0
M30
