G04 (created by PCBNEW-RS274X (2011-aug-04)-testing) date Mon 24 Sep 2012 03:04:33 PM PDT*
G01*
G70*
G90*
%MOIN*%
G04 Gerber Fmt 3.4, Leading zero omitted, Abs format*
%FSLAX34Y34*%
G04 APERTURE LIST*
%ADD10C,0.006000*%
%ADD11C,0.012000*%
%ADD12C,0.008000*%
%ADD13C,0.015000*%
%ADD14C,0.011300*%
G04 APERTURE END LIST*
G54D10*
G54D11*
X11674Y-26113D02*
X10874Y-26113D01*
X11445Y-25913D01*
X10874Y-25713D01*
X11674Y-25713D01*
X11598Y-25084D02*
X11636Y-25113D01*
X11674Y-25199D01*
X11674Y-25256D01*
X11636Y-25341D01*
X11560Y-25399D01*
X11483Y-25427D01*
X11331Y-25456D01*
X11217Y-25456D01*
X11064Y-25427D01*
X10988Y-25399D01*
X10912Y-25341D01*
X10874Y-25256D01*
X10874Y-25199D01*
X10912Y-25113D01*
X10950Y-25084D01*
X11674Y-24827D02*
X10874Y-24827D01*
X10874Y-24599D01*
X10912Y-24541D01*
X10950Y-24513D01*
X11026Y-24484D01*
X11140Y-24484D01*
X11217Y-24513D01*
X11255Y-24541D01*
X11293Y-24599D01*
X11293Y-24827D01*
X11140Y-23970D02*
X11674Y-23970D01*
X10836Y-24113D02*
X11407Y-24256D01*
X11407Y-23884D01*
X10950Y-23685D02*
X10912Y-23656D01*
X10874Y-23599D01*
X10874Y-23456D01*
X10912Y-23399D01*
X10950Y-23370D01*
X11026Y-23342D01*
X11102Y-23342D01*
X11217Y-23370D01*
X11674Y-23713D01*
X11674Y-23342D01*
X10874Y-22828D02*
X10874Y-22942D01*
X10912Y-22999D01*
X10950Y-23028D01*
X11064Y-23085D01*
X11217Y-23114D01*
X11521Y-23114D01*
X11598Y-23085D01*
X11636Y-23057D01*
X11674Y-22999D01*
X11674Y-22885D01*
X11636Y-22828D01*
X11598Y-22799D01*
X11521Y-22771D01*
X11331Y-22771D01*
X11255Y-22799D01*
X11217Y-22828D01*
X11179Y-22885D01*
X11179Y-22999D01*
X11217Y-23057D01*
X11255Y-23085D01*
X11331Y-23114D01*
X11674Y-22200D02*
X11674Y-22543D01*
X11674Y-22371D02*
X10874Y-22371D01*
X10988Y-22428D01*
X11064Y-22486D01*
X11102Y-22543D01*
X11674Y-21486D02*
X10874Y-21486D01*
X10874Y-21258D01*
X10912Y-21200D01*
X10950Y-21172D01*
X11026Y-21143D01*
X11140Y-21143D01*
X11217Y-21172D01*
X11255Y-21200D01*
X11293Y-21258D01*
X11293Y-21486D01*
X11674Y-20800D02*
X11636Y-20858D01*
X11598Y-20886D01*
X11521Y-20915D01*
X11293Y-20915D01*
X11217Y-20886D01*
X11179Y-20858D01*
X11140Y-20800D01*
X11140Y-20715D01*
X11179Y-20658D01*
X11217Y-20629D01*
X11293Y-20600D01*
X11521Y-20600D01*
X11598Y-20629D01*
X11636Y-20658D01*
X11674Y-20715D01*
X11674Y-20800D01*
X11140Y-20429D02*
X11140Y-20200D01*
X10874Y-20343D02*
X11560Y-20343D01*
X11636Y-20315D01*
X11674Y-20257D01*
X11674Y-20200D01*
X11636Y-19772D02*
X11674Y-19829D01*
X11674Y-19943D01*
X11636Y-20000D01*
X11560Y-20029D01*
X11255Y-20029D01*
X11179Y-20000D01*
X11140Y-19943D01*
X11140Y-19829D01*
X11179Y-19772D01*
X11255Y-19743D01*
X11331Y-19743D01*
X11407Y-20029D01*
X11140Y-19486D02*
X11674Y-19486D01*
X11217Y-19486D02*
X11179Y-19458D01*
X11140Y-19400D01*
X11140Y-19315D01*
X11179Y-19258D01*
X11255Y-19229D01*
X11674Y-19229D01*
X11140Y-19029D02*
X11140Y-18800D01*
X10874Y-18943D02*
X11560Y-18943D01*
X11636Y-18915D01*
X11674Y-18857D01*
X11674Y-18800D01*
X11674Y-18600D02*
X11140Y-18600D01*
X10874Y-18600D02*
X10912Y-18629D01*
X10950Y-18600D01*
X10912Y-18572D01*
X10874Y-18600D01*
X10950Y-18600D01*
X11674Y-18228D02*
X11636Y-18286D01*
X11598Y-18314D01*
X11521Y-18343D01*
X11293Y-18343D01*
X11217Y-18314D01*
X11179Y-18286D01*
X11140Y-18228D01*
X11140Y-18143D01*
X11179Y-18086D01*
X11217Y-18057D01*
X11293Y-18028D01*
X11521Y-18028D01*
X11598Y-18057D01*
X11636Y-18086D01*
X11674Y-18143D01*
X11674Y-18228D01*
X11674Y-17771D02*
X11140Y-17771D01*
X11217Y-17771D02*
X11179Y-17743D01*
X11140Y-17685D01*
X11140Y-17600D01*
X11179Y-17543D01*
X11255Y-17514D01*
X11674Y-17514D01*
X11255Y-17514D02*
X11179Y-17485D01*
X11140Y-17428D01*
X11140Y-17343D01*
X11179Y-17285D01*
X11255Y-17257D01*
X11674Y-17257D01*
X11636Y-16743D02*
X11674Y-16800D01*
X11674Y-16914D01*
X11636Y-16971D01*
X11560Y-17000D01*
X11255Y-17000D01*
X11179Y-16971D01*
X11140Y-16914D01*
X11140Y-16800D01*
X11179Y-16743D01*
X11255Y-16714D01*
X11331Y-16714D01*
X11407Y-17000D01*
X11140Y-16543D02*
X11140Y-16314D01*
X10874Y-16457D02*
X11560Y-16457D01*
X11636Y-16429D01*
X11674Y-16371D01*
X11674Y-16314D01*
X11636Y-15886D02*
X11674Y-15943D01*
X11674Y-16057D01*
X11636Y-16114D01*
X11560Y-16143D01*
X11255Y-16143D01*
X11179Y-16114D01*
X11140Y-16057D01*
X11140Y-15943D01*
X11179Y-15886D01*
X11255Y-15857D01*
X11331Y-15857D01*
X11407Y-16143D01*
X11674Y-15600D02*
X11140Y-15600D01*
X11293Y-15600D02*
X11217Y-15572D01*
X11179Y-15543D01*
X11140Y-15486D01*
X11140Y-15429D01*
X11636Y-14801D02*
X11674Y-14715D01*
X11674Y-14572D01*
X11636Y-14515D01*
X11598Y-14486D01*
X11521Y-14458D01*
X11445Y-14458D01*
X11369Y-14486D01*
X11331Y-14515D01*
X11293Y-14572D01*
X11255Y-14686D01*
X11217Y-14744D01*
X11179Y-14772D01*
X11102Y-14801D01*
X11026Y-14801D01*
X10950Y-14772D01*
X10912Y-14744D01*
X10874Y-14686D01*
X10874Y-14544D01*
X10912Y-14458D01*
X11674Y-14201D02*
X10874Y-14201D01*
X11674Y-13944D02*
X11255Y-13944D01*
X11179Y-13973D01*
X11140Y-14030D01*
X11140Y-14115D01*
X11179Y-14173D01*
X11217Y-14201D01*
X11674Y-13658D02*
X11140Y-13658D01*
X10874Y-13658D02*
X10912Y-13687D01*
X10950Y-13658D01*
X10912Y-13630D01*
X10874Y-13658D01*
X10950Y-13658D01*
X11636Y-13144D02*
X11674Y-13201D01*
X11674Y-13315D01*
X11636Y-13372D01*
X11560Y-13401D01*
X11255Y-13401D01*
X11179Y-13372D01*
X11140Y-13315D01*
X11140Y-13201D01*
X11179Y-13144D01*
X11255Y-13115D01*
X11331Y-13115D01*
X11407Y-13401D01*
X11674Y-12772D02*
X11636Y-12830D01*
X11560Y-12858D01*
X10874Y-12858D01*
X11674Y-12287D02*
X10874Y-12287D01*
X11636Y-12287D02*
X11674Y-12344D01*
X11674Y-12458D01*
X11636Y-12516D01*
X11598Y-12544D01*
X11521Y-12573D01*
X11293Y-12573D01*
X11217Y-12544D01*
X11179Y-12516D01*
X11140Y-12458D01*
X11140Y-12344D01*
X11179Y-12287D01*
X12914Y-23357D02*
X12114Y-23357D01*
X12114Y-22957D02*
X12114Y-22843D01*
X12152Y-22785D01*
X12228Y-22728D01*
X12380Y-22700D01*
X12647Y-22700D01*
X12800Y-22728D01*
X12876Y-22785D01*
X12914Y-22843D01*
X12914Y-22957D01*
X12876Y-23014D01*
X12800Y-23071D01*
X12647Y-23100D01*
X12380Y-23100D01*
X12228Y-23071D01*
X12152Y-23014D01*
X12114Y-22957D01*
X12914Y-21642D02*
X12533Y-21842D01*
X12914Y-21985D02*
X12114Y-21985D01*
X12114Y-21757D01*
X12152Y-21699D01*
X12190Y-21671D01*
X12266Y-21642D01*
X12380Y-21642D01*
X12457Y-21671D01*
X12495Y-21699D01*
X12533Y-21757D01*
X12533Y-21985D01*
X12914Y-21299D02*
X12876Y-21357D01*
X12838Y-21385D01*
X12761Y-21414D01*
X12533Y-21414D01*
X12457Y-21385D01*
X12419Y-21357D01*
X12380Y-21299D01*
X12380Y-21214D01*
X12419Y-21157D01*
X12457Y-21128D01*
X12533Y-21099D01*
X12761Y-21099D01*
X12838Y-21128D01*
X12876Y-21157D01*
X12914Y-21214D01*
X12914Y-21299D01*
X12914Y-20585D02*
X12114Y-20585D01*
X12876Y-20585D02*
X12914Y-20642D01*
X12914Y-20756D01*
X12876Y-20814D01*
X12838Y-20842D01*
X12761Y-20871D01*
X12533Y-20871D01*
X12457Y-20842D01*
X12419Y-20814D01*
X12380Y-20756D01*
X12380Y-20642D01*
X12419Y-20585D01*
X12876Y-20071D02*
X12914Y-20128D01*
X12914Y-20242D01*
X12876Y-20299D01*
X12800Y-20328D01*
X12495Y-20328D01*
X12419Y-20299D01*
X12380Y-20242D01*
X12380Y-20128D01*
X12419Y-20071D01*
X12495Y-20042D01*
X12571Y-20042D01*
X12647Y-20328D01*
X12914Y-19699D02*
X12876Y-19757D01*
X12838Y-19785D01*
X12761Y-19814D01*
X12533Y-19814D01*
X12457Y-19785D01*
X12419Y-19757D01*
X12380Y-19699D01*
X12380Y-19614D01*
X12419Y-19557D01*
X12457Y-19528D01*
X12533Y-19499D01*
X12761Y-19499D01*
X12838Y-19528D01*
X12876Y-19557D01*
X12914Y-19614D01*
X12914Y-19699D01*
X12914Y-18785D02*
X12114Y-18785D01*
X12380Y-18499D02*
X12914Y-18499D01*
X12457Y-18499D02*
X12419Y-18471D01*
X12380Y-18413D01*
X12380Y-18328D01*
X12419Y-18271D01*
X12495Y-18242D01*
X12914Y-18242D01*
X12876Y-17699D02*
X12914Y-17756D01*
X12914Y-17870D01*
X12876Y-17928D01*
X12838Y-17956D01*
X12761Y-17985D01*
X12533Y-17985D01*
X12457Y-17956D01*
X12419Y-17928D01*
X12380Y-17870D01*
X12380Y-17756D01*
X12419Y-17699D01*
X12838Y-17442D02*
X12876Y-17414D01*
X12914Y-17442D01*
X12876Y-17471D01*
X12838Y-17442D01*
X12914Y-17442D01*
X12114Y-16785D02*
X12914Y-16585D01*
X12114Y-16385D01*
X12914Y-15871D02*
X12914Y-16214D01*
X12914Y-16042D02*
X12114Y-16042D01*
X12228Y-16099D01*
X12304Y-16157D01*
X12342Y-16214D01*
X12838Y-15614D02*
X12876Y-15586D01*
X12914Y-15614D01*
X12876Y-15643D01*
X12838Y-15614D01*
X12914Y-15614D01*
X12114Y-15214D02*
X12114Y-15157D01*
X12152Y-15100D01*
X12190Y-15071D01*
X12266Y-15042D01*
X12419Y-15014D01*
X12609Y-15014D01*
X12761Y-15042D01*
X12838Y-15071D01*
X12876Y-15100D01*
X12914Y-15157D01*
X12914Y-15214D01*
X12876Y-15271D01*
X12838Y-15300D01*
X12761Y-15328D01*
X12609Y-15357D01*
X12419Y-15357D01*
X12266Y-15328D01*
X12190Y-15300D01*
X12152Y-15271D01*
X12114Y-15214D01*
G54D12*
X31571Y-28186D02*
X31571Y-27995D01*
X31743Y-28224D02*
X31143Y-28091D01*
X31743Y-27957D01*
X31743Y-27824D02*
X31143Y-27824D01*
X31143Y-27729D01*
X31171Y-27671D01*
X31229Y-27633D01*
X31286Y-27614D01*
X31400Y-27595D01*
X31486Y-27595D01*
X31600Y-27614D01*
X31657Y-27633D01*
X31714Y-27671D01*
X31743Y-27729D01*
X31743Y-27824D01*
X31143Y-27233D02*
X31143Y-27424D01*
X31429Y-27443D01*
X31400Y-27424D01*
X31371Y-27386D01*
X31371Y-27290D01*
X31400Y-27252D01*
X31429Y-27233D01*
X31486Y-27214D01*
X31629Y-27214D01*
X31686Y-27233D01*
X31714Y-27252D01*
X31743Y-27290D01*
X31743Y-27386D01*
X31714Y-27424D01*
X31686Y-27443D01*
X30571Y-28186D02*
X30571Y-27995D01*
X30743Y-28224D02*
X30143Y-28091D01*
X30743Y-27957D01*
X30743Y-27824D02*
X30143Y-27824D01*
X30143Y-27729D01*
X30171Y-27671D01*
X30229Y-27633D01*
X30286Y-27614D01*
X30400Y-27595D01*
X30486Y-27595D01*
X30600Y-27614D01*
X30657Y-27633D01*
X30714Y-27671D01*
X30743Y-27729D01*
X30743Y-27824D01*
X30343Y-27252D02*
X30743Y-27252D01*
X30114Y-27348D02*
X30543Y-27443D01*
X30543Y-27195D01*
X29571Y-28186D02*
X29571Y-27995D01*
X29743Y-28224D02*
X29143Y-28091D01*
X29743Y-27957D01*
X29743Y-27824D02*
X29143Y-27824D01*
X29143Y-27729D01*
X29171Y-27671D01*
X29229Y-27633D01*
X29286Y-27614D01*
X29400Y-27595D01*
X29486Y-27595D01*
X29600Y-27614D01*
X29657Y-27633D01*
X29714Y-27671D01*
X29743Y-27729D01*
X29743Y-27824D01*
X29143Y-27462D02*
X29143Y-27214D01*
X29371Y-27348D01*
X29371Y-27290D01*
X29400Y-27252D01*
X29429Y-27233D01*
X29486Y-27214D01*
X29629Y-27214D01*
X29686Y-27233D01*
X29714Y-27252D01*
X29743Y-27290D01*
X29743Y-27405D01*
X29714Y-27443D01*
X29686Y-27462D01*
X28571Y-28186D02*
X28571Y-27995D01*
X28743Y-28224D02*
X28143Y-28091D01*
X28743Y-27957D01*
X28743Y-27824D02*
X28143Y-27824D01*
X28143Y-27729D01*
X28171Y-27671D01*
X28229Y-27633D01*
X28286Y-27614D01*
X28400Y-27595D01*
X28486Y-27595D01*
X28600Y-27614D01*
X28657Y-27633D01*
X28714Y-27671D01*
X28743Y-27729D01*
X28743Y-27824D01*
X28200Y-27443D02*
X28171Y-27424D01*
X28143Y-27386D01*
X28143Y-27290D01*
X28171Y-27252D01*
X28200Y-27233D01*
X28257Y-27214D01*
X28314Y-27214D01*
X28400Y-27233D01*
X28743Y-27462D01*
X28743Y-27214D01*
X27571Y-28186D02*
X27571Y-27995D01*
X27743Y-28224D02*
X27143Y-28091D01*
X27743Y-27957D01*
X27743Y-27824D02*
X27143Y-27824D01*
X27143Y-27729D01*
X27171Y-27671D01*
X27229Y-27633D01*
X27286Y-27614D01*
X27400Y-27595D01*
X27486Y-27595D01*
X27600Y-27614D01*
X27657Y-27633D01*
X27714Y-27671D01*
X27743Y-27729D01*
X27743Y-27824D01*
X27743Y-27214D02*
X27743Y-27443D01*
X27743Y-27329D02*
X27143Y-27329D01*
X27229Y-27367D01*
X27286Y-27405D01*
X27314Y-27443D01*
X26571Y-28186D02*
X26571Y-27995D01*
X26743Y-28224D02*
X26143Y-28091D01*
X26743Y-27957D01*
X26743Y-27824D02*
X26143Y-27824D01*
X26143Y-27729D01*
X26171Y-27671D01*
X26229Y-27633D01*
X26286Y-27614D01*
X26400Y-27595D01*
X26486Y-27595D01*
X26600Y-27614D01*
X26657Y-27633D01*
X26714Y-27671D01*
X26743Y-27729D01*
X26743Y-27824D01*
X26143Y-27348D02*
X26143Y-27309D01*
X26171Y-27271D01*
X26200Y-27252D01*
X26257Y-27233D01*
X26371Y-27214D01*
X26514Y-27214D01*
X26629Y-27233D01*
X26686Y-27252D01*
X26714Y-27271D01*
X26743Y-27309D01*
X26743Y-27348D01*
X26714Y-27386D01*
X26686Y-27405D01*
X26629Y-27424D01*
X26514Y-27443D01*
X26371Y-27443D01*
X26257Y-27424D01*
X26200Y-27405D01*
X26171Y-27386D01*
X26143Y-27348D01*
X24193Y-28238D02*
X24793Y-28105D01*
X24193Y-27971D01*
X24793Y-27838D02*
X24193Y-27838D01*
X24793Y-27648D02*
X24193Y-27648D01*
X24793Y-27419D01*
X24193Y-27419D01*
X23221Y-28004D02*
X23193Y-28042D01*
X23193Y-28099D01*
X23221Y-28157D01*
X23279Y-28195D01*
X23336Y-28214D01*
X23450Y-28233D01*
X23536Y-28233D01*
X23650Y-28214D01*
X23707Y-28195D01*
X23764Y-28157D01*
X23793Y-28099D01*
X23793Y-28061D01*
X23764Y-28004D01*
X23736Y-27985D01*
X23536Y-27985D01*
X23536Y-28061D01*
X23793Y-27814D02*
X23193Y-27814D01*
X23793Y-27585D01*
X23193Y-27585D01*
X23793Y-27395D02*
X23193Y-27395D01*
X23193Y-27300D01*
X23221Y-27242D01*
X23279Y-27204D01*
X23336Y-27185D01*
X23450Y-27166D01*
X23536Y-27166D01*
X23650Y-27185D01*
X23707Y-27204D01*
X23764Y-27242D01*
X23793Y-27300D01*
X23793Y-27395D01*
X22221Y-28004D02*
X22193Y-28042D01*
X22193Y-28099D01*
X22221Y-28157D01*
X22279Y-28195D01*
X22336Y-28214D01*
X22450Y-28233D01*
X22536Y-28233D01*
X22650Y-28214D01*
X22707Y-28195D01*
X22764Y-28157D01*
X22793Y-28099D01*
X22793Y-28061D01*
X22764Y-28004D01*
X22736Y-27985D01*
X22536Y-27985D01*
X22536Y-28061D01*
X22793Y-27814D02*
X22193Y-27814D01*
X22793Y-27585D01*
X22193Y-27585D01*
X22793Y-27395D02*
X22193Y-27395D01*
X22193Y-27300D01*
X22221Y-27242D01*
X22279Y-27204D01*
X22336Y-27185D01*
X22450Y-27166D01*
X22536Y-27166D01*
X22650Y-27185D01*
X22707Y-27204D01*
X22764Y-27242D01*
X22793Y-27300D01*
X22793Y-27395D01*
X21193Y-27976D02*
X21193Y-28167D01*
X21479Y-28186D01*
X21450Y-28167D01*
X21421Y-28129D01*
X21421Y-28033D01*
X21450Y-27995D01*
X21479Y-27976D01*
X21536Y-27957D01*
X21679Y-27957D01*
X21736Y-27976D01*
X21764Y-27995D01*
X21793Y-28033D01*
X21793Y-28129D01*
X21764Y-28167D01*
X21736Y-28186D01*
X21193Y-27843D02*
X21793Y-27710D01*
X21193Y-27576D01*
X20243Y-28195D02*
X20243Y-27947D01*
X20471Y-28081D01*
X20471Y-28023D01*
X20500Y-27985D01*
X20529Y-27966D01*
X20586Y-27947D01*
X20729Y-27947D01*
X20786Y-27966D01*
X20814Y-27985D01*
X20843Y-28023D01*
X20843Y-28138D01*
X20814Y-28176D01*
X20786Y-28195D01*
X20243Y-27833D02*
X20843Y-27700D01*
X20243Y-27566D01*
X20243Y-27471D02*
X20243Y-27223D01*
X20471Y-27357D01*
X20471Y-27299D01*
X20500Y-27261D01*
X20529Y-27242D01*
X20586Y-27223D01*
X20729Y-27223D01*
X20786Y-27242D01*
X20814Y-27261D01*
X20843Y-27299D01*
X20843Y-27414D01*
X20814Y-27452D01*
X20786Y-27471D01*
X19793Y-27969D02*
X19507Y-28103D01*
X19793Y-28198D02*
X19193Y-28198D01*
X19193Y-28045D01*
X19221Y-28007D01*
X19250Y-27988D01*
X19307Y-27969D01*
X19393Y-27969D01*
X19450Y-27988D01*
X19479Y-28007D01*
X19507Y-28045D01*
X19507Y-28198D01*
X19764Y-27817D02*
X19793Y-27760D01*
X19793Y-27664D01*
X19764Y-27626D01*
X19736Y-27607D01*
X19679Y-27588D01*
X19621Y-27588D01*
X19564Y-27607D01*
X19536Y-27626D01*
X19507Y-27664D01*
X19479Y-27741D01*
X19450Y-27779D01*
X19421Y-27798D01*
X19364Y-27817D01*
X19307Y-27817D01*
X19250Y-27798D01*
X19221Y-27779D01*
X19193Y-27741D01*
X19193Y-27645D01*
X19221Y-27588D01*
X19193Y-27474D02*
X19193Y-27245D01*
X19793Y-27360D02*
X19193Y-27360D01*
X31793Y-11266D02*
X31507Y-11400D01*
X31793Y-11495D02*
X31193Y-11495D01*
X31193Y-11342D01*
X31221Y-11304D01*
X31250Y-11285D01*
X31307Y-11266D01*
X31393Y-11266D01*
X31450Y-11285D01*
X31479Y-11304D01*
X31507Y-11342D01*
X31507Y-11495D01*
X31193Y-11133D02*
X31793Y-10866D01*
X31193Y-10866D02*
X31793Y-11133D01*
X30193Y-11455D02*
X30193Y-11226D01*
X30793Y-11341D02*
X30193Y-11341D01*
X30193Y-11131D02*
X30793Y-10864D01*
X30193Y-10864D02*
X30793Y-11131D01*
X29793Y-11495D02*
X29193Y-11495D01*
X29193Y-11400D01*
X29221Y-11342D01*
X29279Y-11304D01*
X29336Y-11285D01*
X29450Y-11266D01*
X29536Y-11266D01*
X29650Y-11285D01*
X29707Y-11304D01*
X29764Y-11342D01*
X29793Y-11400D01*
X29793Y-11495D01*
X29250Y-11114D02*
X29221Y-11095D01*
X29193Y-11057D01*
X29193Y-10961D01*
X29221Y-10923D01*
X29250Y-10904D01*
X29307Y-10885D01*
X29364Y-10885D01*
X29450Y-10904D01*
X29793Y-11133D01*
X29793Y-10885D01*
X28793Y-11495D02*
X28193Y-11495D01*
X28193Y-11400D01*
X28221Y-11342D01*
X28279Y-11304D01*
X28336Y-11285D01*
X28450Y-11266D01*
X28536Y-11266D01*
X28650Y-11285D01*
X28707Y-11304D01*
X28764Y-11342D01*
X28793Y-11400D01*
X28793Y-11495D01*
X28193Y-11133D02*
X28193Y-10885D01*
X28421Y-11019D01*
X28421Y-10961D01*
X28450Y-10923D01*
X28479Y-10904D01*
X28536Y-10885D01*
X28679Y-10885D01*
X28736Y-10904D01*
X28764Y-10923D01*
X28793Y-10961D01*
X28793Y-11076D01*
X28764Y-11114D01*
X28736Y-11133D01*
X27793Y-11495D02*
X27193Y-11495D01*
X27193Y-11400D01*
X27221Y-11342D01*
X27279Y-11304D01*
X27336Y-11285D01*
X27450Y-11266D01*
X27536Y-11266D01*
X27650Y-11285D01*
X27707Y-11304D01*
X27764Y-11342D01*
X27793Y-11400D01*
X27793Y-11495D01*
X27393Y-10923D02*
X27793Y-10923D01*
X27164Y-11019D02*
X27593Y-11114D01*
X27593Y-10866D01*
X26736Y-11607D02*
X26764Y-11626D01*
X26793Y-11683D01*
X26793Y-11721D01*
X26764Y-11779D01*
X26707Y-11817D01*
X26650Y-11836D01*
X26536Y-11855D01*
X26450Y-11855D01*
X26336Y-11836D01*
X26279Y-11817D01*
X26221Y-11779D01*
X26193Y-11721D01*
X26193Y-11683D01*
X26221Y-11626D01*
X26250Y-11607D01*
X26764Y-11455D02*
X26793Y-11398D01*
X26793Y-11302D01*
X26764Y-11264D01*
X26736Y-11245D01*
X26679Y-11226D01*
X26621Y-11226D01*
X26564Y-11245D01*
X26536Y-11264D01*
X26507Y-11302D01*
X26479Y-11379D01*
X26450Y-11417D01*
X26421Y-11436D01*
X26364Y-11455D01*
X26307Y-11455D01*
X26250Y-11436D01*
X26221Y-11417D01*
X26193Y-11379D01*
X26193Y-11283D01*
X26221Y-11226D01*
X26193Y-10979D02*
X26193Y-10940D01*
X26221Y-10902D01*
X26250Y-10883D01*
X26307Y-10864D01*
X26421Y-10845D01*
X26564Y-10845D01*
X26679Y-10864D01*
X26736Y-10883D01*
X26764Y-10902D01*
X26793Y-10940D01*
X26793Y-10979D01*
X26764Y-11017D01*
X26736Y-11036D01*
X26679Y-11055D01*
X26564Y-11074D01*
X26421Y-11074D01*
X26307Y-11055D01*
X26250Y-11036D01*
X26221Y-11017D01*
X26193Y-10979D01*
X25736Y-11607D02*
X25764Y-11626D01*
X25793Y-11683D01*
X25793Y-11721D01*
X25764Y-11779D01*
X25707Y-11817D01*
X25650Y-11836D01*
X25536Y-11855D01*
X25450Y-11855D01*
X25336Y-11836D01*
X25279Y-11817D01*
X25221Y-11779D01*
X25193Y-11721D01*
X25193Y-11683D01*
X25221Y-11626D01*
X25250Y-11607D01*
X25764Y-11455D02*
X25793Y-11398D01*
X25793Y-11302D01*
X25764Y-11264D01*
X25736Y-11245D01*
X25679Y-11226D01*
X25621Y-11226D01*
X25564Y-11245D01*
X25536Y-11264D01*
X25507Y-11302D01*
X25479Y-11379D01*
X25450Y-11417D01*
X25421Y-11436D01*
X25364Y-11455D01*
X25307Y-11455D01*
X25250Y-11436D01*
X25221Y-11417D01*
X25193Y-11379D01*
X25193Y-11283D01*
X25221Y-11226D01*
X25793Y-10845D02*
X25793Y-11074D01*
X25793Y-10960D02*
X25193Y-10960D01*
X25279Y-10998D01*
X25336Y-11036D01*
X25364Y-11074D01*
X24793Y-11495D02*
X24193Y-11495D01*
X24193Y-11400D01*
X24221Y-11342D01*
X24279Y-11304D01*
X24336Y-11285D01*
X24450Y-11266D01*
X24536Y-11266D01*
X24650Y-11285D01*
X24707Y-11304D01*
X24764Y-11342D01*
X24793Y-11400D01*
X24793Y-11495D01*
X24193Y-11133D02*
X24193Y-10866D01*
X24793Y-11038D01*
X23193Y-11495D02*
X22593Y-11495D01*
X22593Y-11400D01*
X22621Y-11342D01*
X22679Y-11304D01*
X22736Y-11285D01*
X22850Y-11266D01*
X22936Y-11266D01*
X23050Y-11285D01*
X23107Y-11304D01*
X23164Y-11342D01*
X23193Y-11400D01*
X23193Y-11495D01*
X22850Y-11038D02*
X22821Y-11076D01*
X22793Y-11095D01*
X22736Y-11114D01*
X22707Y-11114D01*
X22650Y-11095D01*
X22621Y-11076D01*
X22593Y-11038D01*
X22593Y-10961D01*
X22621Y-10923D01*
X22650Y-10904D01*
X22707Y-10885D01*
X22736Y-10885D01*
X22793Y-10904D01*
X22821Y-10923D01*
X22850Y-10961D01*
X22850Y-11038D01*
X22879Y-11076D01*
X22907Y-11095D01*
X22964Y-11114D01*
X23079Y-11114D01*
X23136Y-11095D01*
X23164Y-11076D01*
X23193Y-11038D01*
X23193Y-10961D01*
X23164Y-10923D01*
X23136Y-10904D01*
X23079Y-10885D01*
X22964Y-10885D01*
X22907Y-10904D01*
X22879Y-10923D01*
X22850Y-10961D01*
X22243Y-11495D02*
X21643Y-11495D01*
X21643Y-11400D01*
X21671Y-11342D01*
X21729Y-11304D01*
X21786Y-11285D01*
X21900Y-11266D01*
X21986Y-11266D01*
X22100Y-11285D01*
X22157Y-11304D01*
X22214Y-11342D01*
X22243Y-11400D01*
X22243Y-11495D01*
X22243Y-11076D02*
X22243Y-11000D01*
X22214Y-10961D01*
X22186Y-10942D01*
X22100Y-10904D01*
X21986Y-10885D01*
X21757Y-10885D01*
X21700Y-10904D01*
X21671Y-10923D01*
X21643Y-10961D01*
X21643Y-11038D01*
X21671Y-11076D01*
X21700Y-11095D01*
X21757Y-11114D01*
X21900Y-11114D01*
X21957Y-11095D01*
X21986Y-11076D01*
X22014Y-11038D01*
X22014Y-10961D01*
X21986Y-10923D01*
X21957Y-10904D01*
X21900Y-10885D01*
X21193Y-11836D02*
X20593Y-11836D01*
X20593Y-11741D01*
X20621Y-11683D01*
X20679Y-11645D01*
X20736Y-11626D01*
X20850Y-11607D01*
X20936Y-11607D01*
X21050Y-11626D01*
X21107Y-11645D01*
X21164Y-11683D01*
X21193Y-11741D01*
X21193Y-11836D01*
X21193Y-11226D02*
X21193Y-11455D01*
X21193Y-11341D02*
X20593Y-11341D01*
X20679Y-11379D01*
X20736Y-11417D01*
X20764Y-11455D01*
X20593Y-10979D02*
X20593Y-10940D01*
X20621Y-10902D01*
X20650Y-10883D01*
X20707Y-10864D01*
X20821Y-10845D01*
X20964Y-10845D01*
X21079Y-10864D01*
X21136Y-10883D01*
X21164Y-10902D01*
X21193Y-10940D01*
X21193Y-10979D01*
X21164Y-11017D01*
X21136Y-11036D01*
X21079Y-11055D01*
X20964Y-11074D01*
X20821Y-11074D01*
X20707Y-11055D01*
X20650Y-11036D01*
X20621Y-11017D01*
X20593Y-10979D01*
X20193Y-12128D02*
X19593Y-12128D01*
X20021Y-11994D01*
X19593Y-11861D01*
X20193Y-11861D01*
X19593Y-11595D02*
X19593Y-11518D01*
X19621Y-11480D01*
X19679Y-11442D01*
X19793Y-11423D01*
X19993Y-11423D01*
X20107Y-11442D01*
X20164Y-11480D01*
X20193Y-11518D01*
X20193Y-11595D01*
X20164Y-11633D01*
X20107Y-11671D01*
X19993Y-11690D01*
X19793Y-11690D01*
X19679Y-11671D01*
X19621Y-11633D01*
X19593Y-11595D01*
X20164Y-11271D02*
X20193Y-11214D01*
X20193Y-11118D01*
X20164Y-11080D01*
X20136Y-11061D01*
X20079Y-11042D01*
X20021Y-11042D01*
X19964Y-11061D01*
X19936Y-11080D01*
X19907Y-11118D01*
X19879Y-11195D01*
X19850Y-11233D01*
X19821Y-11252D01*
X19764Y-11271D01*
X19707Y-11271D01*
X19650Y-11252D01*
X19621Y-11233D01*
X19593Y-11195D01*
X19593Y-11099D01*
X19621Y-11042D01*
X20193Y-10871D02*
X19593Y-10871D01*
X19193Y-12128D02*
X18593Y-12128D01*
X19021Y-11994D01*
X18593Y-11861D01*
X19193Y-11861D01*
X19193Y-11671D02*
X18593Y-11671D01*
X19164Y-11500D02*
X19193Y-11443D01*
X19193Y-11347D01*
X19164Y-11309D01*
X19136Y-11290D01*
X19079Y-11271D01*
X19021Y-11271D01*
X18964Y-11290D01*
X18936Y-11309D01*
X18907Y-11347D01*
X18879Y-11424D01*
X18850Y-11462D01*
X18821Y-11481D01*
X18764Y-11500D01*
X18707Y-11500D01*
X18650Y-11481D01*
X18621Y-11462D01*
X18593Y-11424D01*
X18593Y-11328D01*
X18621Y-11271D01*
X18593Y-11024D02*
X18593Y-10947D01*
X18621Y-10909D01*
X18679Y-10871D01*
X18793Y-10852D01*
X18993Y-10852D01*
X19107Y-10871D01*
X19164Y-10909D01*
X19193Y-10947D01*
X19193Y-11024D01*
X19164Y-11062D01*
X19107Y-11100D01*
X18993Y-11119D01*
X18793Y-11119D01*
X18679Y-11100D01*
X18621Y-11062D01*
X18593Y-11024D01*
X18164Y-11864D02*
X18193Y-11807D01*
X18193Y-11711D01*
X18164Y-11673D01*
X18136Y-11654D01*
X18079Y-11635D01*
X18021Y-11635D01*
X17964Y-11654D01*
X17936Y-11673D01*
X17907Y-11711D01*
X17879Y-11788D01*
X17850Y-11826D01*
X17821Y-11845D01*
X17764Y-11864D01*
X17707Y-11864D01*
X17650Y-11845D01*
X17621Y-11826D01*
X17593Y-11788D01*
X17593Y-11692D01*
X17621Y-11635D01*
X18136Y-11235D02*
X18164Y-11254D01*
X18193Y-11311D01*
X18193Y-11349D01*
X18164Y-11407D01*
X18107Y-11445D01*
X18050Y-11464D01*
X17936Y-11483D01*
X17850Y-11483D01*
X17736Y-11464D01*
X17679Y-11445D01*
X17621Y-11407D01*
X17593Y-11349D01*
X17593Y-11311D01*
X17621Y-11254D01*
X17650Y-11235D01*
X18193Y-11064D02*
X17593Y-11064D01*
X18193Y-10835D02*
X17850Y-11007D01*
X17593Y-10835D02*
X17936Y-11064D01*
X16621Y-11654D02*
X16593Y-11692D01*
X16593Y-11749D01*
X16621Y-11807D01*
X16679Y-11845D01*
X16736Y-11864D01*
X16850Y-11883D01*
X16936Y-11883D01*
X17050Y-11864D01*
X17107Y-11845D01*
X17164Y-11807D01*
X17193Y-11749D01*
X17193Y-11711D01*
X17164Y-11654D01*
X17136Y-11635D01*
X16936Y-11635D01*
X16936Y-11711D01*
X17193Y-11464D02*
X16593Y-11464D01*
X17193Y-11235D01*
X16593Y-11235D01*
X17193Y-11045D02*
X16593Y-11045D01*
X16593Y-10950D01*
X16621Y-10892D01*
X16679Y-10854D01*
X16736Y-10835D01*
X16850Y-10816D01*
X16936Y-10816D01*
X17050Y-10835D01*
X17107Y-10854D01*
X17164Y-10892D01*
X17193Y-10950D01*
X17193Y-11045D01*
X16021Y-12148D02*
X16021Y-11957D01*
X16193Y-12186D02*
X15593Y-12053D01*
X16193Y-11919D01*
X16193Y-11557D02*
X15907Y-11691D01*
X16193Y-11786D02*
X15593Y-11786D01*
X15593Y-11633D01*
X15621Y-11595D01*
X15650Y-11576D01*
X15707Y-11557D01*
X15793Y-11557D01*
X15850Y-11576D01*
X15879Y-11595D01*
X15907Y-11633D01*
X15907Y-11786D01*
X15879Y-11386D02*
X15879Y-11252D01*
X16193Y-11195D02*
X16193Y-11386D01*
X15593Y-11386D01*
X15593Y-11195D01*
X15879Y-10890D02*
X15879Y-11024D01*
X16193Y-11024D02*
X15593Y-11024D01*
X15593Y-10833D01*
G54D13*
X26000Y-23320D02*
X18000Y-23320D01*
X18000Y-21320D02*
X26000Y-21320D01*
X26000Y-21320D02*
X26000Y-23320D01*
X26000Y-22820D02*
X25500Y-22820D01*
X25500Y-22820D02*
X25500Y-21820D01*
X25500Y-21820D02*
X26000Y-21820D01*
X18000Y-23320D02*
X18000Y-21320D01*
X26000Y-16180D02*
X18000Y-16180D01*
X18000Y-14180D02*
X26000Y-14180D01*
X26000Y-14180D02*
X26000Y-16180D01*
X26000Y-15680D02*
X25500Y-15680D01*
X25500Y-15680D02*
X25500Y-14680D01*
X25500Y-14680D02*
X26000Y-14680D01*
X18000Y-16180D02*
X18000Y-14180D01*
X34683Y-10326D02*
X34683Y-28673D01*
X37477Y-10327D02*
X37477Y-28673D01*
X34682Y-28674D02*
X37438Y-28674D01*
X34683Y-10325D02*
X37478Y-10325D01*
G54D11*
X22600Y-25350D02*
X25400Y-25350D01*
X25400Y-25350D02*
X25400Y-26150D01*
X25400Y-26150D02*
X22600Y-26150D01*
X22600Y-26150D02*
X22600Y-25350D01*
X22600Y-25550D02*
X22800Y-25350D01*
X22600Y-18350D02*
X25400Y-18350D01*
X25400Y-18350D02*
X25400Y-19150D01*
X25400Y-19150D02*
X22600Y-19150D01*
X22600Y-19150D02*
X22600Y-18350D01*
X22600Y-18550D02*
X22800Y-18350D01*
G54D13*
X37500Y-30000D02*
X37500Y-09000D01*
X37500Y-09000D02*
X10000Y-09000D01*
X10000Y-30000D02*
X37500Y-30000D01*
X10000Y-30000D02*
X10000Y-09000D01*
G54D14*
X17057Y-22043D02*
X17057Y-22529D01*
X17079Y-22586D01*
X17100Y-22614D01*
X17143Y-22643D01*
X17229Y-22643D01*
X17271Y-22614D01*
X17293Y-22586D01*
X17314Y-22529D01*
X17314Y-22043D01*
X17764Y-22643D02*
X17507Y-22643D01*
X17635Y-22643D02*
X17635Y-22043D01*
X17592Y-22129D01*
X17550Y-22186D01*
X17507Y-22214D01*
X18582Y-22643D02*
X18582Y-22043D01*
X18732Y-22471D01*
X18882Y-22043D01*
X18882Y-22643D01*
X19353Y-22586D02*
X19332Y-22614D01*
X19268Y-22643D01*
X19225Y-22643D01*
X19160Y-22614D01*
X19118Y-22557D01*
X19096Y-22500D01*
X19075Y-22386D01*
X19075Y-22300D01*
X19096Y-22186D01*
X19118Y-22129D01*
X19160Y-22071D01*
X19225Y-22043D01*
X19268Y-22043D01*
X19332Y-22071D01*
X19353Y-22100D01*
X19546Y-22643D02*
X19546Y-22043D01*
X19718Y-22043D01*
X19760Y-22071D01*
X19782Y-22100D01*
X19803Y-22157D01*
X19803Y-22243D01*
X19782Y-22300D01*
X19760Y-22329D01*
X19718Y-22357D01*
X19546Y-22357D01*
X20189Y-22243D02*
X20189Y-22643D01*
X20082Y-22014D02*
X19975Y-22443D01*
X20253Y-22443D01*
X20404Y-22100D02*
X20425Y-22071D01*
X20468Y-22043D01*
X20575Y-22043D01*
X20618Y-22071D01*
X20639Y-22100D01*
X20661Y-22157D01*
X20661Y-22214D01*
X20639Y-22300D01*
X20382Y-22643D01*
X20661Y-22643D01*
X21047Y-22043D02*
X20961Y-22043D01*
X20918Y-22071D01*
X20897Y-22100D01*
X20854Y-22186D01*
X20833Y-22300D01*
X20833Y-22529D01*
X20854Y-22586D01*
X20876Y-22614D01*
X20918Y-22643D01*
X21004Y-22643D01*
X21047Y-22614D01*
X21068Y-22586D01*
X21090Y-22529D01*
X21090Y-22386D01*
X21068Y-22329D01*
X21047Y-22300D01*
X21004Y-22271D01*
X20918Y-22271D01*
X20876Y-22300D01*
X20854Y-22329D01*
X20833Y-22386D01*
X21519Y-22643D02*
X21262Y-22643D01*
X21390Y-22643D02*
X21390Y-22043D01*
X21347Y-22129D01*
X21305Y-22186D01*
X21262Y-22214D01*
X21712Y-22414D02*
X22055Y-22414D01*
X22269Y-22643D02*
X22269Y-22043D01*
X22441Y-22043D01*
X22483Y-22071D01*
X22505Y-22100D01*
X22526Y-22157D01*
X22526Y-22243D01*
X22505Y-22300D01*
X22483Y-22329D01*
X22441Y-22357D01*
X22269Y-22357D01*
X22719Y-22643D02*
X22719Y-22043D01*
X22826Y-22043D01*
X22891Y-22071D01*
X22933Y-22129D01*
X22955Y-22186D01*
X22976Y-22300D01*
X22976Y-22386D01*
X22955Y-22500D01*
X22933Y-22557D01*
X22891Y-22614D01*
X22826Y-22643D01*
X22719Y-22643D01*
X23169Y-22643D02*
X23169Y-22043D01*
X23383Y-22643D02*
X23383Y-22043D01*
X23555Y-22043D01*
X23597Y-22071D01*
X23619Y-22100D01*
X23640Y-22157D01*
X23640Y-22243D01*
X23619Y-22300D01*
X23597Y-22329D01*
X23555Y-22357D01*
X23383Y-22357D01*
X16957Y-14843D02*
X16957Y-15329D01*
X16979Y-15386D01*
X17000Y-15414D01*
X17043Y-15443D01*
X17129Y-15443D01*
X17171Y-15414D01*
X17193Y-15386D01*
X17214Y-15329D01*
X17214Y-14843D01*
X17407Y-14900D02*
X17428Y-14871D01*
X17471Y-14843D01*
X17578Y-14843D01*
X17621Y-14871D01*
X17642Y-14900D01*
X17664Y-14957D01*
X17664Y-15014D01*
X17642Y-15100D01*
X17385Y-15443D01*
X17664Y-15443D01*
X18582Y-15443D02*
X18582Y-14843D01*
X18732Y-15271D01*
X18882Y-14843D01*
X18882Y-15443D01*
X19353Y-15386D02*
X19332Y-15414D01*
X19268Y-15443D01*
X19225Y-15443D01*
X19160Y-15414D01*
X19118Y-15357D01*
X19096Y-15300D01*
X19075Y-15186D01*
X19075Y-15100D01*
X19096Y-14986D01*
X19118Y-14929D01*
X19160Y-14871D01*
X19225Y-14843D01*
X19268Y-14843D01*
X19332Y-14871D01*
X19353Y-14900D01*
X19546Y-15443D02*
X19546Y-14843D01*
X19718Y-14843D01*
X19760Y-14871D01*
X19782Y-14900D01*
X19803Y-14957D01*
X19803Y-15043D01*
X19782Y-15100D01*
X19760Y-15129D01*
X19718Y-15157D01*
X19546Y-15157D01*
X20189Y-15043D02*
X20189Y-15443D01*
X20082Y-14814D02*
X19975Y-15243D01*
X20253Y-15243D01*
X20404Y-14900D02*
X20425Y-14871D01*
X20468Y-14843D01*
X20575Y-14843D01*
X20618Y-14871D01*
X20639Y-14900D01*
X20661Y-14957D01*
X20661Y-15014D01*
X20639Y-15100D01*
X20382Y-15443D01*
X20661Y-15443D01*
X21047Y-14843D02*
X20961Y-14843D01*
X20918Y-14871D01*
X20897Y-14900D01*
X20854Y-14986D01*
X20833Y-15100D01*
X20833Y-15329D01*
X20854Y-15386D01*
X20876Y-15414D01*
X20918Y-15443D01*
X21004Y-15443D01*
X21047Y-15414D01*
X21068Y-15386D01*
X21090Y-15329D01*
X21090Y-15186D01*
X21068Y-15129D01*
X21047Y-15100D01*
X21004Y-15071D01*
X20918Y-15071D01*
X20876Y-15100D01*
X20854Y-15129D01*
X20833Y-15186D01*
X21519Y-15443D02*
X21262Y-15443D01*
X21390Y-15443D02*
X21390Y-14843D01*
X21347Y-14929D01*
X21305Y-14986D01*
X21262Y-15014D01*
X21712Y-15214D02*
X22055Y-15214D01*
X22269Y-15443D02*
X22269Y-14843D01*
X22441Y-14843D01*
X22483Y-14871D01*
X22505Y-14900D01*
X22526Y-14957D01*
X22526Y-15043D01*
X22505Y-15100D01*
X22483Y-15129D01*
X22441Y-15157D01*
X22269Y-15157D01*
X22719Y-15443D02*
X22719Y-14843D01*
X22826Y-14843D01*
X22891Y-14871D01*
X22933Y-14929D01*
X22955Y-14986D01*
X22976Y-15100D01*
X22976Y-15186D01*
X22955Y-15300D01*
X22933Y-15357D01*
X22891Y-15414D01*
X22826Y-15443D01*
X22719Y-15443D01*
X23169Y-15443D02*
X23169Y-14843D01*
X23383Y-15443D02*
X23383Y-14843D01*
X23555Y-14843D01*
X23597Y-14871D01*
X23619Y-14900D01*
X23640Y-14957D01*
X23640Y-15043D01*
X23619Y-15100D01*
X23597Y-15129D01*
X23555Y-15157D01*
X23383Y-15157D01*
G54D11*
X35558Y-29543D02*
X35558Y-28943D01*
X35786Y-28943D01*
X35844Y-28971D01*
X35872Y-29000D01*
X35901Y-29057D01*
X35901Y-29143D01*
X35872Y-29200D01*
X35844Y-29229D01*
X35786Y-29257D01*
X35558Y-29257D01*
X36472Y-29543D02*
X36129Y-29543D01*
X36301Y-29543D02*
X36301Y-28943D01*
X36244Y-29029D01*
X36186Y-29086D01*
X36129Y-29114D01*
G54D12*
X22034Y-25924D02*
X22015Y-25943D01*
X21958Y-25962D01*
X21920Y-25962D01*
X21862Y-25943D01*
X21824Y-25905D01*
X21805Y-25867D01*
X21786Y-25790D01*
X21786Y-25733D01*
X21805Y-25657D01*
X21824Y-25619D01*
X21862Y-25581D01*
X21920Y-25562D01*
X21958Y-25562D01*
X22015Y-25581D01*
X22034Y-25600D01*
X22415Y-25962D02*
X22186Y-25962D01*
X22300Y-25962D02*
X22300Y-25562D01*
X22262Y-25619D01*
X22224Y-25657D01*
X22186Y-25676D01*
X25643Y-25562D02*
X25682Y-25562D01*
X25720Y-25581D01*
X25739Y-25600D01*
X25758Y-25638D01*
X25777Y-25714D01*
X25777Y-25810D01*
X25758Y-25886D01*
X25739Y-25924D01*
X25720Y-25943D01*
X25682Y-25962D01*
X25643Y-25962D01*
X25605Y-25943D01*
X25586Y-25924D01*
X25567Y-25886D01*
X25548Y-25810D01*
X25548Y-25714D01*
X25567Y-25638D01*
X25586Y-25600D01*
X25605Y-25581D01*
X25643Y-25562D01*
X25948Y-25924D02*
X25967Y-25943D01*
X25948Y-25962D01*
X25929Y-25943D01*
X25948Y-25924D01*
X25948Y-25962D01*
X26348Y-25962D02*
X26119Y-25962D01*
X26233Y-25962D02*
X26233Y-25562D01*
X26195Y-25619D01*
X26157Y-25657D01*
X26119Y-25676D01*
X26691Y-25695D02*
X26691Y-25962D01*
X26519Y-25695D02*
X26519Y-25905D01*
X26538Y-25943D01*
X26576Y-25962D01*
X26634Y-25962D01*
X26672Y-25943D01*
X26691Y-25924D01*
X27015Y-25752D02*
X26881Y-25752D01*
X26881Y-25962D02*
X26881Y-25562D01*
X27072Y-25562D01*
X21934Y-18924D02*
X21915Y-18943D01*
X21858Y-18962D01*
X21820Y-18962D01*
X21762Y-18943D01*
X21724Y-18905D01*
X21705Y-18867D01*
X21686Y-18790D01*
X21686Y-18733D01*
X21705Y-18657D01*
X21724Y-18619D01*
X21762Y-18581D01*
X21820Y-18562D01*
X21858Y-18562D01*
X21915Y-18581D01*
X21934Y-18600D01*
X22086Y-18600D02*
X22105Y-18581D01*
X22143Y-18562D01*
X22239Y-18562D01*
X22277Y-18581D01*
X22296Y-18600D01*
X22315Y-18638D01*
X22315Y-18676D01*
X22296Y-18733D01*
X22067Y-18962D01*
X22315Y-18962D01*
X25643Y-18562D02*
X25682Y-18562D01*
X25720Y-18581D01*
X25739Y-18600D01*
X25758Y-18638D01*
X25777Y-18714D01*
X25777Y-18810D01*
X25758Y-18886D01*
X25739Y-18924D01*
X25720Y-18943D01*
X25682Y-18962D01*
X25643Y-18962D01*
X25605Y-18943D01*
X25586Y-18924D01*
X25567Y-18886D01*
X25548Y-18810D01*
X25548Y-18714D01*
X25567Y-18638D01*
X25586Y-18600D01*
X25605Y-18581D01*
X25643Y-18562D01*
X25948Y-18924D02*
X25967Y-18943D01*
X25948Y-18962D01*
X25929Y-18943D01*
X25948Y-18924D01*
X25948Y-18962D01*
X26348Y-18962D02*
X26119Y-18962D01*
X26233Y-18962D02*
X26233Y-18562D01*
X26195Y-18619D01*
X26157Y-18657D01*
X26119Y-18676D01*
X26691Y-18695D02*
X26691Y-18962D01*
X26519Y-18695D02*
X26519Y-18905D01*
X26538Y-18943D01*
X26576Y-18962D01*
X26634Y-18962D01*
X26672Y-18943D01*
X26691Y-18924D01*
X27015Y-18752D02*
X26881Y-18752D01*
X26881Y-18962D02*
X26881Y-18562D01*
X27072Y-18562D01*
M02*
