G04 (created by PCBNEW (2013-mar-13)-testing) date Sat 24 Aug 2013 07:59:04 PM PDT*
%MOIN*%
G04 Gerber Fmt 3.4, Leading zero omitted, Abs format*
%FSLAX34Y34*%
G01*
G70*
G90*
G04 APERTURE LIST*
%ADD10C,0.005906*%
%ADD11O,0.080000X0.120000*%
%ADD12C,0.175000*%
%ADD13R,0.082000X0.110000*%
%ADD14O,0.082000X0.110000*%
%ADD15C,0.085000*%
%ADD16O,0.120000X0.085000*%
G04 APERTURE END LIST*
G54D10*
G54D11*
X31500Y-29000D03*
X30500Y-29000D03*
X29500Y-29000D03*
X26500Y-29000D03*
X27500Y-29000D03*
X28500Y-29000D03*
X24500Y-29000D03*
X23500Y-29000D03*
X22500Y-29000D03*
X20500Y-29000D03*
X19500Y-29000D03*
X31500Y-10000D03*
X30500Y-10000D03*
X29500Y-10000D03*
X28500Y-10000D03*
X27500Y-10000D03*
X26500Y-10000D03*
X25500Y-10000D03*
X24500Y-10000D03*
X22900Y-10000D03*
X21900Y-10000D03*
X20900Y-10000D03*
X19900Y-10000D03*
X18900Y-10000D03*
X17900Y-10000D03*
X16900Y-10000D03*
X15900Y-10000D03*
X21500Y-29000D03*
G54D12*
X32500Y-27000D03*
X32500Y-16000D03*
X12500Y-10000D03*
X12000Y-29000D03*
G54D13*
X26250Y-21750D03*
G54D14*
X25250Y-21750D03*
X24250Y-21750D03*
X23250Y-21750D03*
X22250Y-21750D03*
X21250Y-21750D03*
X20250Y-21750D03*
X20250Y-24750D03*
X21250Y-24750D03*
X22250Y-24750D03*
X23250Y-24750D03*
X24250Y-24750D03*
X25250Y-24750D03*
X26250Y-24750D03*
G54D13*
X26250Y-14250D03*
G54D14*
X25250Y-14250D03*
X24250Y-14250D03*
X23250Y-14250D03*
X22250Y-14250D03*
X21250Y-14250D03*
X20250Y-14250D03*
X20250Y-17250D03*
X21250Y-17250D03*
X22250Y-17250D03*
X23250Y-17250D03*
X24250Y-17250D03*
X25250Y-17250D03*
X26250Y-17250D03*
G54D15*
X30000Y-24750D03*
X30000Y-22750D03*
X30000Y-17250D03*
X30000Y-15250D03*
G54D16*
X37126Y-27769D03*
X37125Y-26392D03*
X37124Y-25011D03*
X37125Y-23634D03*
X37125Y-22256D03*
X37125Y-20880D03*
X37125Y-19501D03*
X37124Y-18123D03*
X37124Y-16745D03*
X37124Y-15365D03*
X37123Y-12611D03*
X37124Y-13989D03*
X37124Y-11233D03*
M02*
