G04 (created by PCBNEW (2013-mar-13)-testing) date Sat 24 Aug 2013 07:59:04 PM PDT*
%MOIN*%
G04 Gerber Fmt 3.4, Leading zero omitted, Abs format*
%FSLAX34Y34*%
G01*
G70*
G90*
G04 APERTURE LIST*
%ADD10C,0.005906*%
%ADD11O,0.060000X0.100000*%
%ADD12C,0.155000*%
%ADD13R,0.062000X0.090000*%
%ADD14O,0.062000X0.090000*%
%ADD15C,0.065000*%
%ADD16O,0.100000X0.065000*%
%ADD17C,0.020000*%
%ADD18C,0.010000*%
G04 APERTURE END LIST*
G54D10*
G54D11*
X31500Y-29000D03*
X30500Y-29000D03*
X29500Y-29000D03*
X26500Y-29000D03*
X27500Y-29000D03*
X28500Y-29000D03*
X24500Y-29000D03*
X23500Y-29000D03*
X22500Y-29000D03*
X20500Y-29000D03*
X19500Y-29000D03*
X31500Y-10000D03*
X30500Y-10000D03*
X29500Y-10000D03*
X28500Y-10000D03*
X27500Y-10000D03*
X26500Y-10000D03*
X25500Y-10000D03*
X24500Y-10000D03*
X22900Y-10000D03*
X21900Y-10000D03*
X20900Y-10000D03*
X19900Y-10000D03*
X18900Y-10000D03*
X17900Y-10000D03*
X16900Y-10000D03*
X15900Y-10000D03*
X21500Y-29000D03*
G54D12*
X32500Y-27000D03*
X32500Y-16000D03*
X12500Y-10000D03*
X12000Y-29000D03*
G54D13*
X26250Y-21750D03*
G54D14*
X25250Y-21750D03*
X24250Y-21750D03*
X23250Y-21750D03*
X22250Y-21750D03*
X21250Y-21750D03*
X20250Y-21750D03*
X20250Y-24750D03*
X21250Y-24750D03*
X22250Y-24750D03*
X23250Y-24750D03*
X24250Y-24750D03*
X25250Y-24750D03*
X26250Y-24750D03*
G54D13*
X26250Y-14250D03*
G54D14*
X25250Y-14250D03*
X24250Y-14250D03*
X23250Y-14250D03*
X22250Y-14250D03*
X21250Y-14250D03*
X20250Y-14250D03*
X20250Y-17250D03*
X21250Y-17250D03*
X22250Y-17250D03*
X23250Y-17250D03*
X24250Y-17250D03*
X25250Y-17250D03*
X26250Y-17250D03*
G54D15*
X30000Y-24750D03*
X30000Y-22750D03*
X30000Y-17250D03*
X30000Y-15250D03*
G54D16*
X37126Y-27769D03*
X37125Y-26392D03*
X37124Y-25011D03*
X37125Y-23634D03*
X37125Y-22256D03*
X37125Y-20880D03*
X37125Y-19501D03*
X37124Y-18123D03*
X37124Y-16745D03*
X37124Y-15365D03*
X37123Y-12611D03*
X37124Y-13989D03*
X37124Y-11233D03*
G54D17*
X26250Y-24750D02*
X30000Y-24750D01*
X26250Y-17250D02*
X30000Y-17250D01*
X24250Y-17250D02*
X23250Y-17250D01*
X24250Y-24750D02*
X23250Y-24750D01*
X23476Y-27976D02*
X20250Y-24750D01*
X36218Y-27976D02*
X23476Y-27976D01*
X36425Y-27769D02*
X36218Y-27976D01*
X37125Y-27769D02*
X36425Y-27769D01*
X22903Y-25403D02*
X22250Y-24750D01*
X36031Y-25403D02*
X22903Y-25403D01*
X36423Y-25010D02*
X36031Y-25403D01*
X37124Y-25010D02*
X36423Y-25010D01*
X37125Y-26392D02*
X36424Y-26392D01*
X36024Y-25991D02*
X36424Y-26392D01*
X22491Y-25991D02*
X36024Y-25991D01*
X21250Y-24750D02*
X22491Y-25991D01*
X21916Y-23416D02*
X20250Y-21750D01*
X36207Y-23416D02*
X21916Y-23416D01*
X36424Y-23634D02*
X36207Y-23416D01*
X37125Y-23634D02*
X36424Y-23634D01*
X23120Y-20880D02*
X22250Y-21750D01*
X37125Y-20880D02*
X23120Y-20880D01*
X21917Y-22417D02*
X21250Y-21750D01*
X29457Y-22417D02*
X21917Y-22417D01*
X29660Y-22214D02*
X29457Y-22417D01*
X36383Y-22214D02*
X29660Y-22214D01*
X36424Y-22255D02*
X36383Y-22214D01*
X37125Y-22255D02*
X36424Y-22255D01*
X22500Y-19500D02*
X20250Y-17250D01*
X37125Y-19500D02*
X22500Y-19500D01*
X37124Y-16745D02*
X36423Y-16745D01*
X22910Y-17910D02*
X22250Y-17250D01*
X35258Y-17910D02*
X22910Y-17910D01*
X36423Y-16745D02*
X35258Y-17910D01*
X22210Y-18210D02*
X21250Y-17250D01*
X36336Y-18210D02*
X22210Y-18210D01*
X36423Y-18122D02*
X36336Y-18210D01*
X37124Y-18122D02*
X36423Y-18122D01*
X22385Y-16385D02*
X20250Y-14250D01*
X30694Y-16385D02*
X22385Y-16385D01*
X32071Y-15008D02*
X30694Y-16385D01*
X36067Y-15008D02*
X32071Y-15008D01*
X36423Y-15365D02*
X36067Y-15008D01*
X37124Y-15365D02*
X36423Y-15365D01*
X23781Y-15781D02*
X22250Y-14250D01*
X30352Y-15781D02*
X23781Y-15781D01*
X33523Y-12610D02*
X30352Y-15781D01*
X37122Y-12610D02*
X33523Y-12610D01*
X32569Y-13989D02*
X37124Y-13989D01*
X30477Y-16081D02*
X32569Y-13989D01*
X23081Y-16081D02*
X30477Y-16081D01*
X21250Y-14250D02*
X23081Y-16081D01*
X17900Y-10000D02*
X17900Y-10850D01*
X25250Y-13450D02*
X25250Y-14250D01*
X24550Y-12750D02*
X25250Y-13450D01*
X19800Y-12750D02*
X24550Y-12750D01*
X17900Y-10850D02*
X19800Y-12750D01*
X30000Y-15000D02*
X30000Y-15250D01*
X33767Y-11232D02*
X30000Y-15000D01*
X37124Y-11232D02*
X33767Y-11232D01*
X24000Y-15000D02*
X23250Y-14250D01*
X30000Y-15000D02*
X24000Y-15000D01*
G54D10*
G36*
X23282Y-21775D02*
X23275Y-21775D01*
X23275Y-21782D01*
X23225Y-21782D01*
X23225Y-21775D01*
X23217Y-21775D01*
X23217Y-21725D01*
X23225Y-21725D01*
X23225Y-21717D01*
X23275Y-21717D01*
X23275Y-21725D01*
X23282Y-21725D01*
X23282Y-21775D01*
X23282Y-21775D01*
G37*
G54D18*
X23282Y-21775D02*
X23275Y-21775D01*
X23275Y-21782D01*
X23225Y-21782D01*
X23225Y-21775D01*
X23217Y-21775D01*
X23217Y-21725D01*
X23225Y-21725D01*
X23225Y-21717D01*
X23275Y-21717D01*
X23275Y-21725D01*
X23282Y-21725D01*
X23282Y-21775D01*
G54D10*
G36*
X30040Y-22755D02*
X30005Y-22790D01*
X30000Y-22785D01*
X29994Y-22790D01*
X29959Y-22755D01*
X29964Y-22750D01*
X29959Y-22744D01*
X29994Y-22709D01*
X30000Y-22714D01*
X30005Y-22709D01*
X30040Y-22744D01*
X30035Y-22750D01*
X30040Y-22755D01*
X30040Y-22755D01*
G37*
G54D18*
X30040Y-22755D02*
X30005Y-22790D01*
X30000Y-22785D01*
X29994Y-22790D01*
X29959Y-22755D01*
X29964Y-22750D01*
X29959Y-22744D01*
X29994Y-22709D01*
X30000Y-22714D01*
X30005Y-22709D01*
X30040Y-22744D01*
X30035Y-22750D01*
X30040Y-22755D01*
G54D10*
G36*
X38250Y-29750D02*
X38060Y-29750D01*
X38060Y-11378D01*
X38060Y-11087D01*
X38024Y-10959D01*
X37864Y-10702D01*
X37618Y-10526D01*
X37324Y-10458D01*
X37149Y-10458D01*
X37149Y-11208D01*
X37961Y-11208D01*
X38060Y-11087D01*
X38060Y-11378D01*
X37961Y-11258D01*
X37149Y-11258D01*
X37149Y-12008D01*
X37324Y-12008D01*
X37618Y-11939D01*
X37864Y-11763D01*
X38024Y-11506D01*
X38060Y-11378D01*
X38060Y-29750D01*
X37788Y-29750D01*
X37788Y-27769D01*
X37752Y-27587D01*
X37649Y-27433D01*
X37495Y-27330D01*
X37313Y-27294D01*
X36938Y-27294D01*
X36756Y-27330D01*
X36602Y-27433D01*
X36544Y-27519D01*
X36425Y-27519D01*
X36330Y-27538D01*
X36249Y-27592D01*
X36114Y-27726D01*
X33081Y-27726D01*
X33283Y-27524D01*
X33424Y-27184D01*
X33425Y-26816D01*
X33284Y-26476D01*
X33050Y-26241D01*
X35921Y-26241D01*
X36248Y-26568D01*
X36329Y-26622D01*
X36329Y-26622D01*
X36424Y-26642D01*
X36544Y-26642D01*
X36601Y-26727D01*
X36755Y-26830D01*
X36937Y-26867D01*
X37312Y-26867D01*
X37494Y-26830D01*
X37648Y-26727D01*
X37751Y-26573D01*
X37787Y-26392D01*
X37787Y-23634D01*
X37751Y-23452D01*
X37648Y-23298D01*
X37494Y-23195D01*
X37312Y-23159D01*
X36937Y-23159D01*
X36755Y-23195D01*
X36601Y-23298D01*
X36543Y-23384D01*
X36528Y-23384D01*
X36384Y-23239D01*
X36302Y-23185D01*
X36207Y-23166D01*
X30665Y-23166D01*
X30773Y-22910D01*
X30776Y-22601D01*
X30720Y-22464D01*
X36295Y-22464D01*
X36329Y-22486D01*
X36424Y-22505D01*
X36424Y-22505D01*
X36424Y-22505D01*
X36543Y-22505D01*
X36601Y-22591D01*
X36755Y-22694D01*
X36937Y-22731D01*
X37312Y-22731D01*
X37494Y-22694D01*
X37648Y-22591D01*
X37751Y-22437D01*
X37787Y-22256D01*
X37751Y-22074D01*
X37648Y-21920D01*
X37494Y-21817D01*
X37312Y-21781D01*
X36937Y-21781D01*
X36755Y-21817D01*
X36601Y-21920D01*
X36544Y-22005D01*
X36512Y-22005D01*
X36479Y-21983D01*
X36383Y-21964D01*
X29660Y-21964D01*
X29564Y-21983D01*
X29483Y-22037D01*
X29354Y-22167D01*
X26710Y-22167D01*
X26710Y-21270D01*
X26687Y-21215D01*
X26644Y-21172D01*
X26589Y-21150D01*
X26530Y-21150D01*
X25910Y-21150D01*
X25855Y-21172D01*
X25812Y-21215D01*
X25790Y-21270D01*
X25790Y-21329D01*
X25790Y-22167D01*
X25615Y-22167D01*
X25674Y-22077D01*
X25710Y-21901D01*
X25710Y-21598D01*
X25674Y-21422D01*
X25575Y-21272D01*
X25426Y-21173D01*
X25250Y-21138D01*
X25073Y-21173D01*
X24924Y-21272D01*
X24825Y-21422D01*
X24790Y-21598D01*
X24790Y-21901D01*
X24825Y-22077D01*
X24884Y-22167D01*
X24615Y-22167D01*
X24674Y-22077D01*
X24710Y-21901D01*
X24710Y-21598D01*
X24674Y-21422D01*
X24575Y-21272D01*
X24426Y-21173D01*
X24250Y-21138D01*
X24073Y-21173D01*
X23925Y-21272D01*
X23823Y-21130D01*
X36544Y-21130D01*
X36601Y-21215D01*
X36755Y-21318D01*
X36937Y-21355D01*
X37312Y-21355D01*
X37494Y-21318D01*
X37648Y-21215D01*
X37751Y-21061D01*
X37787Y-20880D01*
X37787Y-19501D01*
X37751Y-19319D01*
X37648Y-19165D01*
X37494Y-19062D01*
X37312Y-19026D01*
X36937Y-19026D01*
X36755Y-19062D01*
X36601Y-19165D01*
X36544Y-19250D01*
X22604Y-19250D01*
X21206Y-17853D01*
X21250Y-17861D01*
X21426Y-17826D01*
X21454Y-17807D01*
X22033Y-18387D01*
X22114Y-18441D01*
X22210Y-18460D01*
X36336Y-18460D01*
X36432Y-18441D01*
X36513Y-18387D01*
X36527Y-18372D01*
X36543Y-18372D01*
X36600Y-18458D01*
X36754Y-18561D01*
X36936Y-18598D01*
X37311Y-18598D01*
X37493Y-18561D01*
X37647Y-18458D01*
X37750Y-18304D01*
X37786Y-18123D01*
X37750Y-17941D01*
X37647Y-17787D01*
X37493Y-17684D01*
X37311Y-17648D01*
X36936Y-17648D01*
X36754Y-17684D01*
X36600Y-17787D01*
X36543Y-17872D01*
X36423Y-17872D01*
X36423Y-17872D01*
X36328Y-17892D01*
X36247Y-17946D01*
X36232Y-17960D01*
X35561Y-17960D01*
X36527Y-16995D01*
X36543Y-16995D01*
X36600Y-17080D01*
X36754Y-17183D01*
X36936Y-17220D01*
X37311Y-17220D01*
X37493Y-17183D01*
X37647Y-17080D01*
X37750Y-16926D01*
X37786Y-16745D01*
X37786Y-15365D01*
X37750Y-15183D01*
X37647Y-15029D01*
X37493Y-14926D01*
X37311Y-14890D01*
X36936Y-14890D01*
X36754Y-14926D01*
X36600Y-15029D01*
X36543Y-15115D01*
X36527Y-15115D01*
X36244Y-14832D01*
X36163Y-14777D01*
X36067Y-14758D01*
X32153Y-14758D01*
X32673Y-14239D01*
X36543Y-14239D01*
X36600Y-14324D01*
X36754Y-14427D01*
X36936Y-14464D01*
X37311Y-14464D01*
X37493Y-14427D01*
X37647Y-14324D01*
X37750Y-14170D01*
X37786Y-13989D01*
X37750Y-13807D01*
X37647Y-13653D01*
X37493Y-13550D01*
X37311Y-13514D01*
X36936Y-13514D01*
X36754Y-13550D01*
X36600Y-13653D01*
X36542Y-13739D01*
X32748Y-13739D01*
X33626Y-12860D01*
X36541Y-12860D01*
X36599Y-12946D01*
X36753Y-13049D01*
X36935Y-13086D01*
X37310Y-13086D01*
X37492Y-13049D01*
X37646Y-12946D01*
X37749Y-12792D01*
X37785Y-12611D01*
X37749Y-12429D01*
X37646Y-12275D01*
X37492Y-12172D01*
X37310Y-12136D01*
X37099Y-12136D01*
X37099Y-12008D01*
X37099Y-11258D01*
X37099Y-11208D01*
X37099Y-10458D01*
X36924Y-10458D01*
X36629Y-10526D01*
X36383Y-10702D01*
X36223Y-10959D01*
X36187Y-11087D01*
X36286Y-11208D01*
X37099Y-11208D01*
X37099Y-11258D01*
X36286Y-11258D01*
X36187Y-11378D01*
X36223Y-11506D01*
X36383Y-11763D01*
X36629Y-11939D01*
X36924Y-12008D01*
X37099Y-12008D01*
X37099Y-12136D01*
X36935Y-12136D01*
X36753Y-12172D01*
X36599Y-12275D01*
X36542Y-12360D01*
X33523Y-12360D01*
X33427Y-12380D01*
X33346Y-12434D01*
X31950Y-13830D01*
X31950Y-10212D01*
X31950Y-9787D01*
X31915Y-9615D01*
X31818Y-9469D01*
X31672Y-9371D01*
X31500Y-9337D01*
X31327Y-9371D01*
X31181Y-9469D01*
X31084Y-9615D01*
X31050Y-9787D01*
X31050Y-10212D01*
X31084Y-10384D01*
X31181Y-10530D01*
X31327Y-10628D01*
X31500Y-10662D01*
X31672Y-10628D01*
X31818Y-10530D01*
X31915Y-10384D01*
X31950Y-10212D01*
X31950Y-13830D01*
X30950Y-14830D01*
X30950Y-10212D01*
X30950Y-9787D01*
X30915Y-9615D01*
X30818Y-9469D01*
X30672Y-9371D01*
X30500Y-9337D01*
X30327Y-9371D01*
X30181Y-9469D01*
X30084Y-9615D01*
X30050Y-9787D01*
X30050Y-10212D01*
X30084Y-10384D01*
X30181Y-10530D01*
X30327Y-10628D01*
X30500Y-10662D01*
X30672Y-10628D01*
X30818Y-10530D01*
X30915Y-10384D01*
X30950Y-10212D01*
X30950Y-14830D01*
X30748Y-15032D01*
X30660Y-14816D01*
X30653Y-14806D01*
X30496Y-14788D01*
X30461Y-14824D01*
X30461Y-14753D01*
X30444Y-14596D01*
X30160Y-14476D01*
X29950Y-14474D01*
X29950Y-10212D01*
X29950Y-9787D01*
X29915Y-9615D01*
X29818Y-9469D01*
X29672Y-9371D01*
X29500Y-9337D01*
X29327Y-9371D01*
X29181Y-9469D01*
X29084Y-9615D01*
X29050Y-9787D01*
X29050Y-10212D01*
X29084Y-10384D01*
X29181Y-10530D01*
X29327Y-10628D01*
X29500Y-10662D01*
X29672Y-10628D01*
X29818Y-10530D01*
X29915Y-10384D01*
X29950Y-10212D01*
X29950Y-14474D01*
X29851Y-14473D01*
X29566Y-14589D01*
X29556Y-14596D01*
X29538Y-14753D01*
X30000Y-15214D01*
X30461Y-14753D01*
X30461Y-14824D01*
X30035Y-15250D01*
X30040Y-15255D01*
X30005Y-15290D01*
X30000Y-15285D01*
X29994Y-15290D01*
X29959Y-15255D01*
X29964Y-15250D01*
X29503Y-14788D01*
X29346Y-14806D01*
X29226Y-15089D01*
X29223Y-15398D01*
X29277Y-15531D01*
X28950Y-15531D01*
X28950Y-10212D01*
X28950Y-9787D01*
X28915Y-9615D01*
X28818Y-9469D01*
X28672Y-9371D01*
X28500Y-9337D01*
X28327Y-9371D01*
X28181Y-9469D01*
X28084Y-9615D01*
X28050Y-9787D01*
X28050Y-10212D01*
X28084Y-10384D01*
X28181Y-10530D01*
X28327Y-10628D01*
X28500Y-10662D01*
X28672Y-10628D01*
X28818Y-10530D01*
X28915Y-10384D01*
X28950Y-10212D01*
X28950Y-15531D01*
X27950Y-15531D01*
X27950Y-10212D01*
X27950Y-9787D01*
X27915Y-9615D01*
X27818Y-9469D01*
X27672Y-9371D01*
X27500Y-9337D01*
X27327Y-9371D01*
X27181Y-9469D01*
X27084Y-9615D01*
X27050Y-9787D01*
X27050Y-10212D01*
X27084Y-10384D01*
X27181Y-10530D01*
X27327Y-10628D01*
X27500Y-10662D01*
X27672Y-10628D01*
X27818Y-10530D01*
X27915Y-10384D01*
X27950Y-10212D01*
X27950Y-15531D01*
X26950Y-15531D01*
X26950Y-10212D01*
X26950Y-9787D01*
X26915Y-9615D01*
X26818Y-9469D01*
X26672Y-9371D01*
X26500Y-9337D01*
X26327Y-9371D01*
X26181Y-9469D01*
X26084Y-9615D01*
X26050Y-9787D01*
X26050Y-10212D01*
X26084Y-10384D01*
X26181Y-10530D01*
X26327Y-10628D01*
X26500Y-10662D01*
X26672Y-10628D01*
X26818Y-10530D01*
X26915Y-10384D01*
X26950Y-10212D01*
X26950Y-15531D01*
X26710Y-15531D01*
X26710Y-14729D01*
X26710Y-14670D01*
X26710Y-13770D01*
X26687Y-13715D01*
X26644Y-13672D01*
X26589Y-13650D01*
X26530Y-13650D01*
X25950Y-13650D01*
X25950Y-10212D01*
X25950Y-9787D01*
X25915Y-9615D01*
X25818Y-9469D01*
X25672Y-9371D01*
X25500Y-9337D01*
X25327Y-9371D01*
X25181Y-9469D01*
X25084Y-9615D01*
X25050Y-9787D01*
X25050Y-10212D01*
X25084Y-10384D01*
X25181Y-10530D01*
X25327Y-10628D01*
X25500Y-10662D01*
X25672Y-10628D01*
X25818Y-10530D01*
X25915Y-10384D01*
X25950Y-10212D01*
X25950Y-13650D01*
X25910Y-13650D01*
X25855Y-13672D01*
X25812Y-13715D01*
X25790Y-13770D01*
X25790Y-13829D01*
X25790Y-14729D01*
X25812Y-14784D01*
X25855Y-14827D01*
X25910Y-14850D01*
X25969Y-14850D01*
X26589Y-14850D01*
X26644Y-14827D01*
X26687Y-14784D01*
X26710Y-14729D01*
X26710Y-15531D01*
X25710Y-15531D01*
X25710Y-14401D01*
X25710Y-14098D01*
X25674Y-13922D01*
X25575Y-13772D01*
X25500Y-13722D01*
X25500Y-13450D01*
X25480Y-13354D01*
X25426Y-13273D01*
X24950Y-12796D01*
X24950Y-10212D01*
X24950Y-9787D01*
X24915Y-9615D01*
X24818Y-9469D01*
X24672Y-9371D01*
X24500Y-9337D01*
X24327Y-9371D01*
X24181Y-9469D01*
X24084Y-9615D01*
X24050Y-9787D01*
X24050Y-10212D01*
X24084Y-10384D01*
X24181Y-10530D01*
X24327Y-10628D01*
X24500Y-10662D01*
X24672Y-10628D01*
X24818Y-10530D01*
X24915Y-10384D01*
X24950Y-10212D01*
X24950Y-12796D01*
X24726Y-12573D01*
X24645Y-12519D01*
X24550Y-12500D01*
X23350Y-12500D01*
X23350Y-10212D01*
X23350Y-9787D01*
X23315Y-9615D01*
X23218Y-9469D01*
X23072Y-9371D01*
X22900Y-9337D01*
X22727Y-9371D01*
X22581Y-9469D01*
X22484Y-9615D01*
X22450Y-9787D01*
X22450Y-10212D01*
X22484Y-10384D01*
X22581Y-10530D01*
X22727Y-10628D01*
X22900Y-10662D01*
X23072Y-10628D01*
X23218Y-10530D01*
X23315Y-10384D01*
X23350Y-10212D01*
X23350Y-12500D01*
X22350Y-12500D01*
X22350Y-10212D01*
X22350Y-9787D01*
X22315Y-9615D01*
X22218Y-9469D01*
X22072Y-9371D01*
X21900Y-9337D01*
X21727Y-9371D01*
X21581Y-9469D01*
X21484Y-9615D01*
X21450Y-9787D01*
X21450Y-10212D01*
X21484Y-10384D01*
X21581Y-10530D01*
X21727Y-10628D01*
X21900Y-10662D01*
X22072Y-10628D01*
X22218Y-10530D01*
X22315Y-10384D01*
X22350Y-10212D01*
X22350Y-12500D01*
X21350Y-12500D01*
X21350Y-10212D01*
X21350Y-9787D01*
X21315Y-9615D01*
X21218Y-9469D01*
X21072Y-9371D01*
X20900Y-9337D01*
X20727Y-9371D01*
X20581Y-9469D01*
X20484Y-9615D01*
X20450Y-9787D01*
X20450Y-10212D01*
X20484Y-10384D01*
X20581Y-10530D01*
X20727Y-10628D01*
X20900Y-10662D01*
X21072Y-10628D01*
X21218Y-10530D01*
X21315Y-10384D01*
X21350Y-10212D01*
X21350Y-12500D01*
X20350Y-12500D01*
X20350Y-10212D01*
X20350Y-9787D01*
X20315Y-9615D01*
X20218Y-9469D01*
X20072Y-9371D01*
X19900Y-9337D01*
X19727Y-9371D01*
X19581Y-9469D01*
X19484Y-9615D01*
X19450Y-9787D01*
X19450Y-10212D01*
X19484Y-10384D01*
X19581Y-10530D01*
X19727Y-10628D01*
X19900Y-10662D01*
X20072Y-10628D01*
X20218Y-10530D01*
X20315Y-10384D01*
X20350Y-10212D01*
X20350Y-12500D01*
X19903Y-12500D01*
X19350Y-11946D01*
X19350Y-10212D01*
X19350Y-9787D01*
X19315Y-9615D01*
X19218Y-9469D01*
X19072Y-9371D01*
X18900Y-9337D01*
X18727Y-9371D01*
X18581Y-9469D01*
X18484Y-9615D01*
X18450Y-9787D01*
X18450Y-10212D01*
X18484Y-10384D01*
X18581Y-10530D01*
X18727Y-10628D01*
X18900Y-10662D01*
X19072Y-10628D01*
X19218Y-10530D01*
X19315Y-10384D01*
X19350Y-10212D01*
X19350Y-11946D01*
X18150Y-10746D01*
X18150Y-10576D01*
X18218Y-10530D01*
X18315Y-10384D01*
X18350Y-10212D01*
X18350Y-9787D01*
X18315Y-9615D01*
X18218Y-9469D01*
X18072Y-9371D01*
X17900Y-9337D01*
X17727Y-9371D01*
X17581Y-9469D01*
X17484Y-9615D01*
X17450Y-9787D01*
X17450Y-10212D01*
X17484Y-10384D01*
X17581Y-10530D01*
X17650Y-10576D01*
X17650Y-10850D01*
X17669Y-10945D01*
X17723Y-11026D01*
X19623Y-12926D01*
X19704Y-12980D01*
X19800Y-13000D01*
X19800Y-13000D01*
X19800Y-13000D01*
X24446Y-13000D01*
X25000Y-13553D01*
X25000Y-13722D01*
X24924Y-13772D01*
X24825Y-13922D01*
X24790Y-14098D01*
X24790Y-14401D01*
X24825Y-14577D01*
X24924Y-14727D01*
X25073Y-14826D01*
X25250Y-14861D01*
X25426Y-14826D01*
X25575Y-14727D01*
X25674Y-14577D01*
X25710Y-14401D01*
X25710Y-15531D01*
X23884Y-15531D01*
X23468Y-15115D01*
X23517Y-15101D01*
X23769Y-14945D01*
X23925Y-14727D01*
X24073Y-14826D01*
X24250Y-14861D01*
X24426Y-14826D01*
X24575Y-14727D01*
X24674Y-14577D01*
X24710Y-14401D01*
X24710Y-14098D01*
X24674Y-13922D01*
X24575Y-13772D01*
X24426Y-13673D01*
X24250Y-13638D01*
X24073Y-13673D01*
X23925Y-13772D01*
X23769Y-13554D01*
X23517Y-13398D01*
X23393Y-13363D01*
X23275Y-13462D01*
X23275Y-14225D01*
X23282Y-14225D01*
X23282Y-14275D01*
X23275Y-14275D01*
X23275Y-14282D01*
X23225Y-14282D01*
X23225Y-14275D01*
X23217Y-14275D01*
X23217Y-14225D01*
X23225Y-14225D01*
X23225Y-13462D01*
X23106Y-13363D01*
X22982Y-13398D01*
X22730Y-13554D01*
X22574Y-13772D01*
X22426Y-13673D01*
X22250Y-13638D01*
X22073Y-13673D01*
X21924Y-13772D01*
X21825Y-13922D01*
X21790Y-14098D01*
X21790Y-14401D01*
X21798Y-14445D01*
X21710Y-14356D01*
X21710Y-14098D01*
X21674Y-13922D01*
X21575Y-13772D01*
X21426Y-13673D01*
X21250Y-13638D01*
X21073Y-13673D01*
X20924Y-13772D01*
X20825Y-13922D01*
X20790Y-14098D01*
X20790Y-14401D01*
X20798Y-14445D01*
X20710Y-14356D01*
X20710Y-14098D01*
X20674Y-13922D01*
X20575Y-13772D01*
X20426Y-13673D01*
X20250Y-13638D01*
X20073Y-13673D01*
X19924Y-13772D01*
X19825Y-13922D01*
X19790Y-14098D01*
X19790Y-14401D01*
X19825Y-14577D01*
X19924Y-14727D01*
X20073Y-14826D01*
X20250Y-14861D01*
X20426Y-14826D01*
X20454Y-14807D01*
X22208Y-16561D01*
X22289Y-16616D01*
X22385Y-16635D01*
X30694Y-16635D01*
X30790Y-16616D01*
X30871Y-16561D01*
X31575Y-15858D01*
X31574Y-16183D01*
X31715Y-16523D01*
X31975Y-16783D01*
X32315Y-16924D01*
X32683Y-16925D01*
X33023Y-16784D01*
X33283Y-16524D01*
X33424Y-16184D01*
X33425Y-15816D01*
X33284Y-15476D01*
X33067Y-15258D01*
X35964Y-15258D01*
X36247Y-15541D01*
X36328Y-15595D01*
X36328Y-15595D01*
X36423Y-15615D01*
X36543Y-15615D01*
X36600Y-15700D01*
X36754Y-15803D01*
X36936Y-15840D01*
X37311Y-15840D01*
X37493Y-15803D01*
X37647Y-15700D01*
X37750Y-15546D01*
X37786Y-15365D01*
X37786Y-16745D01*
X37750Y-16563D01*
X37647Y-16409D01*
X37493Y-16306D01*
X37311Y-16270D01*
X36936Y-16270D01*
X36754Y-16306D01*
X36600Y-16409D01*
X36543Y-16495D01*
X36423Y-16495D01*
X36328Y-16514D01*
X36247Y-16568D01*
X35155Y-17660D01*
X30251Y-17660D01*
X30268Y-17652D01*
X30402Y-17519D01*
X30474Y-17344D01*
X30475Y-17155D01*
X30402Y-16981D01*
X30269Y-16847D01*
X30094Y-16775D01*
X29905Y-16774D01*
X29731Y-16847D01*
X29597Y-16980D01*
X29589Y-17000D01*
X26690Y-17000D01*
X26674Y-16922D01*
X26575Y-16772D01*
X26426Y-16673D01*
X26250Y-16638D01*
X26073Y-16673D01*
X25924Y-16772D01*
X25825Y-16922D01*
X25790Y-17098D01*
X25790Y-17401D01*
X25825Y-17577D01*
X25879Y-17660D01*
X25620Y-17660D01*
X25674Y-17577D01*
X25710Y-17401D01*
X25710Y-17098D01*
X25674Y-16922D01*
X25575Y-16772D01*
X25426Y-16673D01*
X25250Y-16638D01*
X25073Y-16673D01*
X24924Y-16772D01*
X24825Y-16922D01*
X24790Y-17098D01*
X24790Y-17401D01*
X24825Y-17577D01*
X24879Y-17660D01*
X24620Y-17660D01*
X24674Y-17577D01*
X24710Y-17401D01*
X24710Y-17098D01*
X24674Y-16922D01*
X24575Y-16772D01*
X24426Y-16673D01*
X24250Y-16638D01*
X24073Y-16673D01*
X23924Y-16772D01*
X23825Y-16922D01*
X23809Y-17000D01*
X23690Y-17000D01*
X23674Y-16922D01*
X23575Y-16772D01*
X23426Y-16673D01*
X23250Y-16638D01*
X23073Y-16673D01*
X22924Y-16772D01*
X22825Y-16922D01*
X22790Y-17098D01*
X22790Y-17401D01*
X22798Y-17445D01*
X22710Y-17356D01*
X22710Y-17098D01*
X22674Y-16922D01*
X22575Y-16772D01*
X22426Y-16673D01*
X22250Y-16638D01*
X22073Y-16673D01*
X21924Y-16772D01*
X21825Y-16922D01*
X21790Y-17098D01*
X21790Y-17401D01*
X21798Y-17445D01*
X21710Y-17356D01*
X21710Y-17098D01*
X21674Y-16922D01*
X21575Y-16772D01*
X21426Y-16673D01*
X21250Y-16638D01*
X21073Y-16673D01*
X20924Y-16772D01*
X20825Y-16922D01*
X20790Y-17098D01*
X20790Y-17401D01*
X20798Y-17445D01*
X20710Y-17356D01*
X20710Y-17098D01*
X20674Y-16922D01*
X20575Y-16772D01*
X20426Y-16673D01*
X20250Y-16638D01*
X20073Y-16673D01*
X19924Y-16772D01*
X19825Y-16922D01*
X19790Y-17098D01*
X19790Y-17401D01*
X19825Y-17577D01*
X19924Y-17727D01*
X20073Y-17826D01*
X20250Y-17861D01*
X20426Y-17826D01*
X20454Y-17807D01*
X22324Y-19677D01*
X22405Y-19731D01*
X22500Y-19750D01*
X36543Y-19750D01*
X36601Y-19836D01*
X36755Y-19939D01*
X36937Y-19976D01*
X37312Y-19976D01*
X37494Y-19939D01*
X37648Y-19836D01*
X37751Y-19682D01*
X37787Y-19501D01*
X37787Y-20880D01*
X37751Y-20698D01*
X37648Y-20544D01*
X37494Y-20441D01*
X37312Y-20405D01*
X36937Y-20405D01*
X36755Y-20441D01*
X36601Y-20544D01*
X36544Y-20630D01*
X23120Y-20630D01*
X23024Y-20649D01*
X22943Y-20703D01*
X22454Y-21192D01*
X22426Y-21173D01*
X22250Y-21138D01*
X22073Y-21173D01*
X21924Y-21272D01*
X21825Y-21422D01*
X21790Y-21598D01*
X21790Y-21901D01*
X21798Y-21945D01*
X21710Y-21856D01*
X21710Y-21598D01*
X21674Y-21422D01*
X21575Y-21272D01*
X21426Y-21173D01*
X21250Y-21138D01*
X21073Y-21173D01*
X20924Y-21272D01*
X20825Y-21422D01*
X20790Y-21598D01*
X20790Y-21901D01*
X20798Y-21945D01*
X20710Y-21856D01*
X20710Y-21598D01*
X20674Y-21422D01*
X20575Y-21272D01*
X20426Y-21173D01*
X20250Y-21138D01*
X20073Y-21173D01*
X19924Y-21272D01*
X19825Y-21422D01*
X19790Y-21598D01*
X19790Y-21901D01*
X19825Y-22077D01*
X19924Y-22227D01*
X20073Y-22326D01*
X20250Y-22361D01*
X20426Y-22326D01*
X20454Y-22307D01*
X21739Y-23593D01*
X21820Y-23647D01*
X21916Y-23666D01*
X36103Y-23666D01*
X36248Y-23810D01*
X36329Y-23864D01*
X36424Y-23884D01*
X36544Y-23884D01*
X36601Y-23969D01*
X36755Y-24072D01*
X36937Y-24109D01*
X37312Y-24109D01*
X37494Y-24072D01*
X37648Y-23969D01*
X37751Y-23815D01*
X37787Y-23634D01*
X37787Y-26392D01*
X37751Y-26210D01*
X37648Y-26056D01*
X37494Y-25953D01*
X37312Y-25917D01*
X36937Y-25917D01*
X36755Y-25953D01*
X36601Y-26056D01*
X36544Y-26142D01*
X36528Y-26142D01*
X36201Y-25815D01*
X36120Y-25760D01*
X36024Y-25741D01*
X22595Y-25741D01*
X22206Y-25353D01*
X22250Y-25361D01*
X22426Y-25326D01*
X22454Y-25307D01*
X22726Y-25579D01*
X22807Y-25634D01*
X22903Y-25653D01*
X36031Y-25653D01*
X36127Y-25634D01*
X36208Y-25579D01*
X36527Y-25260D01*
X36542Y-25260D01*
X36600Y-25346D01*
X36754Y-25449D01*
X36936Y-25486D01*
X37311Y-25486D01*
X37493Y-25449D01*
X37647Y-25346D01*
X37750Y-25192D01*
X37786Y-25011D01*
X37750Y-24829D01*
X37647Y-24675D01*
X37493Y-24572D01*
X37311Y-24536D01*
X36936Y-24536D01*
X36754Y-24572D01*
X36600Y-24675D01*
X36543Y-24760D01*
X36423Y-24760D01*
X36328Y-24780D01*
X36247Y-24834D01*
X35928Y-25153D01*
X30268Y-25153D01*
X30268Y-25152D01*
X30402Y-25019D01*
X30474Y-24844D01*
X30475Y-24655D01*
X30402Y-24481D01*
X30269Y-24347D01*
X30094Y-24275D01*
X29905Y-24274D01*
X29731Y-24347D01*
X29597Y-24480D01*
X29589Y-24500D01*
X26690Y-24500D01*
X26674Y-24422D01*
X26575Y-24272D01*
X26426Y-24173D01*
X26250Y-24138D01*
X26073Y-24173D01*
X25924Y-24272D01*
X25825Y-24422D01*
X25790Y-24598D01*
X25790Y-24901D01*
X25825Y-25077D01*
X25875Y-25153D01*
X25624Y-25153D01*
X25674Y-25077D01*
X25710Y-24901D01*
X25710Y-24598D01*
X25674Y-24422D01*
X25575Y-24272D01*
X25426Y-24173D01*
X25250Y-24138D01*
X25073Y-24173D01*
X24924Y-24272D01*
X24825Y-24422D01*
X24790Y-24598D01*
X24790Y-24901D01*
X24825Y-25077D01*
X24875Y-25153D01*
X24624Y-25153D01*
X24674Y-25077D01*
X24710Y-24901D01*
X24710Y-24598D01*
X24674Y-24422D01*
X24575Y-24272D01*
X24426Y-24173D01*
X24250Y-24138D01*
X24073Y-24173D01*
X23924Y-24272D01*
X23825Y-24422D01*
X23809Y-24500D01*
X23690Y-24500D01*
X23674Y-24422D01*
X23575Y-24272D01*
X23426Y-24173D01*
X23250Y-24138D01*
X23073Y-24173D01*
X22924Y-24272D01*
X22825Y-24422D01*
X22790Y-24598D01*
X22790Y-24901D01*
X22798Y-24945D01*
X22710Y-24856D01*
X22710Y-24598D01*
X22674Y-24422D01*
X22575Y-24272D01*
X22426Y-24173D01*
X22250Y-24138D01*
X22073Y-24173D01*
X21924Y-24272D01*
X21825Y-24422D01*
X21790Y-24598D01*
X21790Y-24901D01*
X21798Y-24945D01*
X21710Y-24856D01*
X21710Y-24598D01*
X21674Y-24422D01*
X21575Y-24272D01*
X21426Y-24173D01*
X21250Y-24138D01*
X21073Y-24173D01*
X20924Y-24272D01*
X20825Y-24422D01*
X20790Y-24598D01*
X20790Y-24901D01*
X20798Y-24945D01*
X20710Y-24856D01*
X20710Y-24598D01*
X20674Y-24422D01*
X20575Y-24272D01*
X20426Y-24173D01*
X20250Y-24138D01*
X20073Y-24173D01*
X19924Y-24272D01*
X19825Y-24422D01*
X19790Y-24598D01*
X19790Y-24901D01*
X19825Y-25077D01*
X19924Y-25227D01*
X20073Y-25326D01*
X20250Y-25361D01*
X20426Y-25326D01*
X20454Y-25307D01*
X23299Y-28153D01*
X23380Y-28207D01*
X23476Y-28226D01*
X36218Y-28226D01*
X36314Y-28207D01*
X36395Y-28153D01*
X36529Y-28019D01*
X36545Y-28019D01*
X36602Y-28104D01*
X36756Y-28207D01*
X36938Y-28244D01*
X37313Y-28244D01*
X37495Y-28207D01*
X37649Y-28104D01*
X37752Y-27950D01*
X37788Y-27769D01*
X37788Y-29750D01*
X31950Y-29750D01*
X31950Y-29212D01*
X31950Y-28787D01*
X31915Y-28615D01*
X31818Y-28469D01*
X31672Y-28371D01*
X31500Y-28337D01*
X31327Y-28371D01*
X31181Y-28469D01*
X31084Y-28615D01*
X31050Y-28787D01*
X31050Y-29212D01*
X31084Y-29384D01*
X31181Y-29530D01*
X31327Y-29628D01*
X31500Y-29662D01*
X31672Y-29628D01*
X31818Y-29530D01*
X31915Y-29384D01*
X31950Y-29212D01*
X31950Y-29750D01*
X30950Y-29750D01*
X30950Y-29212D01*
X30950Y-28787D01*
X30915Y-28615D01*
X30818Y-28469D01*
X30672Y-28371D01*
X30500Y-28337D01*
X30327Y-28371D01*
X30181Y-28469D01*
X30084Y-28615D01*
X30050Y-28787D01*
X30050Y-29212D01*
X30084Y-29384D01*
X30181Y-29530D01*
X30327Y-29628D01*
X30500Y-29662D01*
X30672Y-29628D01*
X30818Y-29530D01*
X30915Y-29384D01*
X30950Y-29212D01*
X30950Y-29750D01*
X29950Y-29750D01*
X29950Y-29212D01*
X29950Y-28787D01*
X29915Y-28615D01*
X29818Y-28469D01*
X29672Y-28371D01*
X29500Y-28337D01*
X29327Y-28371D01*
X29181Y-28469D01*
X29084Y-28615D01*
X29050Y-28787D01*
X29050Y-29212D01*
X29084Y-29384D01*
X29181Y-29530D01*
X29327Y-29628D01*
X29500Y-29662D01*
X29672Y-29628D01*
X29818Y-29530D01*
X29915Y-29384D01*
X29950Y-29212D01*
X29950Y-29750D01*
X28950Y-29750D01*
X28950Y-29212D01*
X28950Y-28787D01*
X28915Y-28615D01*
X28818Y-28469D01*
X28672Y-28371D01*
X28500Y-28337D01*
X28327Y-28371D01*
X28181Y-28469D01*
X28084Y-28615D01*
X28050Y-28787D01*
X28050Y-29212D01*
X28084Y-29384D01*
X28181Y-29530D01*
X28327Y-29628D01*
X28500Y-29662D01*
X28672Y-29628D01*
X28818Y-29530D01*
X28915Y-29384D01*
X28950Y-29212D01*
X28950Y-29750D01*
X27950Y-29750D01*
X27950Y-29212D01*
X27950Y-28787D01*
X27915Y-28615D01*
X27818Y-28469D01*
X27672Y-28371D01*
X27500Y-28337D01*
X27327Y-28371D01*
X27181Y-28469D01*
X27084Y-28615D01*
X27050Y-28787D01*
X27050Y-29212D01*
X27084Y-29384D01*
X27181Y-29530D01*
X27327Y-29628D01*
X27500Y-29662D01*
X27672Y-29628D01*
X27818Y-29530D01*
X27915Y-29384D01*
X27950Y-29212D01*
X27950Y-29750D01*
X26950Y-29750D01*
X26950Y-29212D01*
X26950Y-28787D01*
X26915Y-28615D01*
X26818Y-28469D01*
X26672Y-28371D01*
X26500Y-28337D01*
X26327Y-28371D01*
X26181Y-28469D01*
X26084Y-28615D01*
X26050Y-28787D01*
X26050Y-29212D01*
X26084Y-29384D01*
X26181Y-29530D01*
X26327Y-29628D01*
X26500Y-29662D01*
X26672Y-29628D01*
X26818Y-29530D01*
X26915Y-29384D01*
X26950Y-29212D01*
X26950Y-29750D01*
X24950Y-29750D01*
X24950Y-29212D01*
X24950Y-28787D01*
X24915Y-28615D01*
X24818Y-28469D01*
X24672Y-28371D01*
X24500Y-28337D01*
X24327Y-28371D01*
X24181Y-28469D01*
X24084Y-28615D01*
X24050Y-28787D01*
X24050Y-29212D01*
X24084Y-29384D01*
X24181Y-29530D01*
X24327Y-29628D01*
X24500Y-29662D01*
X24672Y-29628D01*
X24818Y-29530D01*
X24915Y-29384D01*
X24950Y-29212D01*
X24950Y-29750D01*
X23009Y-29750D01*
X23012Y-29748D01*
X23175Y-29521D01*
X23181Y-29530D01*
X23327Y-29628D01*
X23500Y-29662D01*
X23672Y-29628D01*
X23818Y-29530D01*
X23915Y-29384D01*
X23950Y-29212D01*
X23950Y-28787D01*
X23915Y-28615D01*
X23818Y-28469D01*
X23672Y-28371D01*
X23500Y-28337D01*
X23327Y-28371D01*
X23181Y-28469D01*
X23175Y-28478D01*
X23012Y-28251D01*
X22763Y-28097D01*
X22641Y-28063D01*
X22525Y-28162D01*
X22525Y-28975D01*
X22532Y-28975D01*
X22532Y-29025D01*
X22525Y-29025D01*
X22525Y-29032D01*
X22475Y-29032D01*
X22475Y-29025D01*
X22467Y-29025D01*
X22467Y-28975D01*
X22475Y-28975D01*
X22475Y-28162D01*
X22358Y-28063D01*
X22236Y-28097D01*
X21987Y-28251D01*
X21824Y-28478D01*
X21818Y-28469D01*
X21672Y-28371D01*
X21500Y-28337D01*
X21327Y-28371D01*
X21181Y-28469D01*
X21084Y-28615D01*
X21050Y-28787D01*
X21050Y-29212D01*
X21084Y-29384D01*
X21181Y-29530D01*
X21327Y-29628D01*
X21500Y-29662D01*
X21672Y-29628D01*
X21818Y-29530D01*
X21824Y-29521D01*
X21987Y-29748D01*
X21990Y-29750D01*
X20950Y-29750D01*
X20950Y-29212D01*
X20950Y-28787D01*
X20915Y-28615D01*
X20818Y-28469D01*
X20672Y-28371D01*
X20500Y-28337D01*
X20327Y-28371D01*
X20181Y-28469D01*
X20084Y-28615D01*
X20050Y-28787D01*
X20050Y-29212D01*
X20084Y-29384D01*
X20181Y-29530D01*
X20327Y-29628D01*
X20500Y-29662D01*
X20672Y-29628D01*
X20818Y-29530D01*
X20915Y-29384D01*
X20950Y-29212D01*
X20950Y-29750D01*
X19950Y-29750D01*
X19950Y-29212D01*
X19950Y-28787D01*
X19915Y-28615D01*
X19818Y-28469D01*
X19672Y-28371D01*
X19500Y-28337D01*
X19327Y-28371D01*
X19181Y-28469D01*
X19084Y-28615D01*
X19050Y-28787D01*
X19050Y-29212D01*
X19084Y-29384D01*
X19181Y-29530D01*
X19327Y-29628D01*
X19500Y-29662D01*
X19672Y-29628D01*
X19818Y-29530D01*
X19915Y-29384D01*
X19950Y-29212D01*
X19950Y-29750D01*
X17350Y-29750D01*
X17350Y-10212D01*
X17350Y-9787D01*
X17315Y-9615D01*
X17218Y-9469D01*
X17072Y-9371D01*
X16900Y-9337D01*
X16727Y-9371D01*
X16581Y-9469D01*
X16484Y-9615D01*
X16450Y-9787D01*
X16450Y-10212D01*
X16484Y-10384D01*
X16581Y-10530D01*
X16727Y-10628D01*
X16900Y-10662D01*
X17072Y-10628D01*
X17218Y-10530D01*
X17315Y-10384D01*
X17350Y-10212D01*
X17350Y-29750D01*
X16350Y-29750D01*
X16350Y-10212D01*
X16350Y-9787D01*
X16315Y-9615D01*
X16218Y-9469D01*
X16072Y-9371D01*
X15900Y-9337D01*
X15727Y-9371D01*
X15581Y-9469D01*
X15484Y-9615D01*
X15450Y-9787D01*
X15450Y-10212D01*
X15484Y-10384D01*
X15581Y-10530D01*
X15727Y-10628D01*
X15900Y-10662D01*
X16072Y-10628D01*
X16218Y-10530D01*
X16315Y-10384D01*
X16350Y-10212D01*
X16350Y-29750D01*
X12557Y-29750D01*
X12783Y-29524D01*
X12924Y-29184D01*
X12925Y-28816D01*
X12784Y-28476D01*
X12524Y-28216D01*
X12184Y-28075D01*
X11816Y-28074D01*
X11476Y-28215D01*
X11216Y-28475D01*
X11075Y-28815D01*
X11074Y-29183D01*
X11215Y-29523D01*
X11441Y-29750D01*
X10250Y-29750D01*
X10250Y-9250D01*
X11942Y-9250D01*
X11716Y-9475D01*
X11575Y-9815D01*
X11574Y-10183D01*
X11715Y-10523D01*
X11975Y-10783D01*
X12315Y-10924D01*
X12683Y-10925D01*
X13023Y-10784D01*
X13283Y-10524D01*
X13424Y-10184D01*
X13425Y-9816D01*
X13284Y-9476D01*
X13058Y-9250D01*
X38250Y-9250D01*
X38250Y-29750D01*
X38250Y-29750D01*
G37*
G54D18*
X38250Y-29750D02*
X38060Y-29750D01*
X38060Y-11378D01*
X38060Y-11087D01*
X38024Y-10959D01*
X37864Y-10702D01*
X37618Y-10526D01*
X37324Y-10458D01*
X37149Y-10458D01*
X37149Y-11208D01*
X37961Y-11208D01*
X38060Y-11087D01*
X38060Y-11378D01*
X37961Y-11258D01*
X37149Y-11258D01*
X37149Y-12008D01*
X37324Y-12008D01*
X37618Y-11939D01*
X37864Y-11763D01*
X38024Y-11506D01*
X38060Y-11378D01*
X38060Y-29750D01*
X37788Y-29750D01*
X37788Y-27769D01*
X37752Y-27587D01*
X37649Y-27433D01*
X37495Y-27330D01*
X37313Y-27294D01*
X36938Y-27294D01*
X36756Y-27330D01*
X36602Y-27433D01*
X36544Y-27519D01*
X36425Y-27519D01*
X36330Y-27538D01*
X36249Y-27592D01*
X36114Y-27726D01*
X33081Y-27726D01*
X33283Y-27524D01*
X33424Y-27184D01*
X33425Y-26816D01*
X33284Y-26476D01*
X33050Y-26241D01*
X35921Y-26241D01*
X36248Y-26568D01*
X36329Y-26622D01*
X36329Y-26622D01*
X36424Y-26642D01*
X36544Y-26642D01*
X36601Y-26727D01*
X36755Y-26830D01*
X36937Y-26867D01*
X37312Y-26867D01*
X37494Y-26830D01*
X37648Y-26727D01*
X37751Y-26573D01*
X37787Y-26392D01*
X37787Y-23634D01*
X37751Y-23452D01*
X37648Y-23298D01*
X37494Y-23195D01*
X37312Y-23159D01*
X36937Y-23159D01*
X36755Y-23195D01*
X36601Y-23298D01*
X36543Y-23384D01*
X36528Y-23384D01*
X36384Y-23239D01*
X36302Y-23185D01*
X36207Y-23166D01*
X30665Y-23166D01*
X30773Y-22910D01*
X30776Y-22601D01*
X30720Y-22464D01*
X36295Y-22464D01*
X36329Y-22486D01*
X36424Y-22505D01*
X36424Y-22505D01*
X36424Y-22505D01*
X36543Y-22505D01*
X36601Y-22591D01*
X36755Y-22694D01*
X36937Y-22731D01*
X37312Y-22731D01*
X37494Y-22694D01*
X37648Y-22591D01*
X37751Y-22437D01*
X37787Y-22256D01*
X37751Y-22074D01*
X37648Y-21920D01*
X37494Y-21817D01*
X37312Y-21781D01*
X36937Y-21781D01*
X36755Y-21817D01*
X36601Y-21920D01*
X36544Y-22005D01*
X36512Y-22005D01*
X36479Y-21983D01*
X36383Y-21964D01*
X29660Y-21964D01*
X29564Y-21983D01*
X29483Y-22037D01*
X29354Y-22167D01*
X26710Y-22167D01*
X26710Y-21270D01*
X26687Y-21215D01*
X26644Y-21172D01*
X26589Y-21150D01*
X26530Y-21150D01*
X25910Y-21150D01*
X25855Y-21172D01*
X25812Y-21215D01*
X25790Y-21270D01*
X25790Y-21329D01*
X25790Y-22167D01*
X25615Y-22167D01*
X25674Y-22077D01*
X25710Y-21901D01*
X25710Y-21598D01*
X25674Y-21422D01*
X25575Y-21272D01*
X25426Y-21173D01*
X25250Y-21138D01*
X25073Y-21173D01*
X24924Y-21272D01*
X24825Y-21422D01*
X24790Y-21598D01*
X24790Y-21901D01*
X24825Y-22077D01*
X24884Y-22167D01*
X24615Y-22167D01*
X24674Y-22077D01*
X24710Y-21901D01*
X24710Y-21598D01*
X24674Y-21422D01*
X24575Y-21272D01*
X24426Y-21173D01*
X24250Y-21138D01*
X24073Y-21173D01*
X23925Y-21272D01*
X23823Y-21130D01*
X36544Y-21130D01*
X36601Y-21215D01*
X36755Y-21318D01*
X36937Y-21355D01*
X37312Y-21355D01*
X37494Y-21318D01*
X37648Y-21215D01*
X37751Y-21061D01*
X37787Y-20880D01*
X37787Y-19501D01*
X37751Y-19319D01*
X37648Y-19165D01*
X37494Y-19062D01*
X37312Y-19026D01*
X36937Y-19026D01*
X36755Y-19062D01*
X36601Y-19165D01*
X36544Y-19250D01*
X22604Y-19250D01*
X21206Y-17853D01*
X21250Y-17861D01*
X21426Y-17826D01*
X21454Y-17807D01*
X22033Y-18387D01*
X22114Y-18441D01*
X22210Y-18460D01*
X36336Y-18460D01*
X36432Y-18441D01*
X36513Y-18387D01*
X36527Y-18372D01*
X36543Y-18372D01*
X36600Y-18458D01*
X36754Y-18561D01*
X36936Y-18598D01*
X37311Y-18598D01*
X37493Y-18561D01*
X37647Y-18458D01*
X37750Y-18304D01*
X37786Y-18123D01*
X37750Y-17941D01*
X37647Y-17787D01*
X37493Y-17684D01*
X37311Y-17648D01*
X36936Y-17648D01*
X36754Y-17684D01*
X36600Y-17787D01*
X36543Y-17872D01*
X36423Y-17872D01*
X36423Y-17872D01*
X36328Y-17892D01*
X36247Y-17946D01*
X36232Y-17960D01*
X35561Y-17960D01*
X36527Y-16995D01*
X36543Y-16995D01*
X36600Y-17080D01*
X36754Y-17183D01*
X36936Y-17220D01*
X37311Y-17220D01*
X37493Y-17183D01*
X37647Y-17080D01*
X37750Y-16926D01*
X37786Y-16745D01*
X37786Y-15365D01*
X37750Y-15183D01*
X37647Y-15029D01*
X37493Y-14926D01*
X37311Y-14890D01*
X36936Y-14890D01*
X36754Y-14926D01*
X36600Y-15029D01*
X36543Y-15115D01*
X36527Y-15115D01*
X36244Y-14832D01*
X36163Y-14777D01*
X36067Y-14758D01*
X32153Y-14758D01*
X32673Y-14239D01*
X36543Y-14239D01*
X36600Y-14324D01*
X36754Y-14427D01*
X36936Y-14464D01*
X37311Y-14464D01*
X37493Y-14427D01*
X37647Y-14324D01*
X37750Y-14170D01*
X37786Y-13989D01*
X37750Y-13807D01*
X37647Y-13653D01*
X37493Y-13550D01*
X37311Y-13514D01*
X36936Y-13514D01*
X36754Y-13550D01*
X36600Y-13653D01*
X36542Y-13739D01*
X32748Y-13739D01*
X33626Y-12860D01*
X36541Y-12860D01*
X36599Y-12946D01*
X36753Y-13049D01*
X36935Y-13086D01*
X37310Y-13086D01*
X37492Y-13049D01*
X37646Y-12946D01*
X37749Y-12792D01*
X37785Y-12611D01*
X37749Y-12429D01*
X37646Y-12275D01*
X37492Y-12172D01*
X37310Y-12136D01*
X37099Y-12136D01*
X37099Y-12008D01*
X37099Y-11258D01*
X37099Y-11208D01*
X37099Y-10458D01*
X36924Y-10458D01*
X36629Y-10526D01*
X36383Y-10702D01*
X36223Y-10959D01*
X36187Y-11087D01*
X36286Y-11208D01*
X37099Y-11208D01*
X37099Y-11258D01*
X36286Y-11258D01*
X36187Y-11378D01*
X36223Y-11506D01*
X36383Y-11763D01*
X36629Y-11939D01*
X36924Y-12008D01*
X37099Y-12008D01*
X37099Y-12136D01*
X36935Y-12136D01*
X36753Y-12172D01*
X36599Y-12275D01*
X36542Y-12360D01*
X33523Y-12360D01*
X33427Y-12380D01*
X33346Y-12434D01*
X31950Y-13830D01*
X31950Y-10212D01*
X31950Y-9787D01*
X31915Y-9615D01*
X31818Y-9469D01*
X31672Y-9371D01*
X31500Y-9337D01*
X31327Y-9371D01*
X31181Y-9469D01*
X31084Y-9615D01*
X31050Y-9787D01*
X31050Y-10212D01*
X31084Y-10384D01*
X31181Y-10530D01*
X31327Y-10628D01*
X31500Y-10662D01*
X31672Y-10628D01*
X31818Y-10530D01*
X31915Y-10384D01*
X31950Y-10212D01*
X31950Y-13830D01*
X30950Y-14830D01*
X30950Y-10212D01*
X30950Y-9787D01*
X30915Y-9615D01*
X30818Y-9469D01*
X30672Y-9371D01*
X30500Y-9337D01*
X30327Y-9371D01*
X30181Y-9469D01*
X30084Y-9615D01*
X30050Y-9787D01*
X30050Y-10212D01*
X30084Y-10384D01*
X30181Y-10530D01*
X30327Y-10628D01*
X30500Y-10662D01*
X30672Y-10628D01*
X30818Y-10530D01*
X30915Y-10384D01*
X30950Y-10212D01*
X30950Y-14830D01*
X30748Y-15032D01*
X30660Y-14816D01*
X30653Y-14806D01*
X30496Y-14788D01*
X30461Y-14824D01*
X30461Y-14753D01*
X30444Y-14596D01*
X30160Y-14476D01*
X29950Y-14474D01*
X29950Y-10212D01*
X29950Y-9787D01*
X29915Y-9615D01*
X29818Y-9469D01*
X29672Y-9371D01*
X29500Y-9337D01*
X29327Y-9371D01*
X29181Y-9469D01*
X29084Y-9615D01*
X29050Y-9787D01*
X29050Y-10212D01*
X29084Y-10384D01*
X29181Y-10530D01*
X29327Y-10628D01*
X29500Y-10662D01*
X29672Y-10628D01*
X29818Y-10530D01*
X29915Y-10384D01*
X29950Y-10212D01*
X29950Y-14474D01*
X29851Y-14473D01*
X29566Y-14589D01*
X29556Y-14596D01*
X29538Y-14753D01*
X30000Y-15214D01*
X30461Y-14753D01*
X30461Y-14824D01*
X30035Y-15250D01*
X30040Y-15255D01*
X30005Y-15290D01*
X30000Y-15285D01*
X29994Y-15290D01*
X29959Y-15255D01*
X29964Y-15250D01*
X29503Y-14788D01*
X29346Y-14806D01*
X29226Y-15089D01*
X29223Y-15398D01*
X29277Y-15531D01*
X28950Y-15531D01*
X28950Y-10212D01*
X28950Y-9787D01*
X28915Y-9615D01*
X28818Y-9469D01*
X28672Y-9371D01*
X28500Y-9337D01*
X28327Y-9371D01*
X28181Y-9469D01*
X28084Y-9615D01*
X28050Y-9787D01*
X28050Y-10212D01*
X28084Y-10384D01*
X28181Y-10530D01*
X28327Y-10628D01*
X28500Y-10662D01*
X28672Y-10628D01*
X28818Y-10530D01*
X28915Y-10384D01*
X28950Y-10212D01*
X28950Y-15531D01*
X27950Y-15531D01*
X27950Y-10212D01*
X27950Y-9787D01*
X27915Y-9615D01*
X27818Y-9469D01*
X27672Y-9371D01*
X27500Y-9337D01*
X27327Y-9371D01*
X27181Y-9469D01*
X27084Y-9615D01*
X27050Y-9787D01*
X27050Y-10212D01*
X27084Y-10384D01*
X27181Y-10530D01*
X27327Y-10628D01*
X27500Y-10662D01*
X27672Y-10628D01*
X27818Y-10530D01*
X27915Y-10384D01*
X27950Y-10212D01*
X27950Y-15531D01*
X26950Y-15531D01*
X26950Y-10212D01*
X26950Y-9787D01*
X26915Y-9615D01*
X26818Y-9469D01*
X26672Y-9371D01*
X26500Y-9337D01*
X26327Y-9371D01*
X26181Y-9469D01*
X26084Y-9615D01*
X26050Y-9787D01*
X26050Y-10212D01*
X26084Y-10384D01*
X26181Y-10530D01*
X26327Y-10628D01*
X26500Y-10662D01*
X26672Y-10628D01*
X26818Y-10530D01*
X26915Y-10384D01*
X26950Y-10212D01*
X26950Y-15531D01*
X26710Y-15531D01*
X26710Y-14729D01*
X26710Y-14670D01*
X26710Y-13770D01*
X26687Y-13715D01*
X26644Y-13672D01*
X26589Y-13650D01*
X26530Y-13650D01*
X25950Y-13650D01*
X25950Y-10212D01*
X25950Y-9787D01*
X25915Y-9615D01*
X25818Y-9469D01*
X25672Y-9371D01*
X25500Y-9337D01*
X25327Y-9371D01*
X25181Y-9469D01*
X25084Y-9615D01*
X25050Y-9787D01*
X25050Y-10212D01*
X25084Y-10384D01*
X25181Y-10530D01*
X25327Y-10628D01*
X25500Y-10662D01*
X25672Y-10628D01*
X25818Y-10530D01*
X25915Y-10384D01*
X25950Y-10212D01*
X25950Y-13650D01*
X25910Y-13650D01*
X25855Y-13672D01*
X25812Y-13715D01*
X25790Y-13770D01*
X25790Y-13829D01*
X25790Y-14729D01*
X25812Y-14784D01*
X25855Y-14827D01*
X25910Y-14850D01*
X25969Y-14850D01*
X26589Y-14850D01*
X26644Y-14827D01*
X26687Y-14784D01*
X26710Y-14729D01*
X26710Y-15531D01*
X25710Y-15531D01*
X25710Y-14401D01*
X25710Y-14098D01*
X25674Y-13922D01*
X25575Y-13772D01*
X25500Y-13722D01*
X25500Y-13450D01*
X25480Y-13354D01*
X25426Y-13273D01*
X24950Y-12796D01*
X24950Y-10212D01*
X24950Y-9787D01*
X24915Y-9615D01*
X24818Y-9469D01*
X24672Y-9371D01*
X24500Y-9337D01*
X24327Y-9371D01*
X24181Y-9469D01*
X24084Y-9615D01*
X24050Y-9787D01*
X24050Y-10212D01*
X24084Y-10384D01*
X24181Y-10530D01*
X24327Y-10628D01*
X24500Y-10662D01*
X24672Y-10628D01*
X24818Y-10530D01*
X24915Y-10384D01*
X24950Y-10212D01*
X24950Y-12796D01*
X24726Y-12573D01*
X24645Y-12519D01*
X24550Y-12500D01*
X23350Y-12500D01*
X23350Y-10212D01*
X23350Y-9787D01*
X23315Y-9615D01*
X23218Y-9469D01*
X23072Y-9371D01*
X22900Y-9337D01*
X22727Y-9371D01*
X22581Y-9469D01*
X22484Y-9615D01*
X22450Y-9787D01*
X22450Y-10212D01*
X22484Y-10384D01*
X22581Y-10530D01*
X22727Y-10628D01*
X22900Y-10662D01*
X23072Y-10628D01*
X23218Y-10530D01*
X23315Y-10384D01*
X23350Y-10212D01*
X23350Y-12500D01*
X22350Y-12500D01*
X22350Y-10212D01*
X22350Y-9787D01*
X22315Y-9615D01*
X22218Y-9469D01*
X22072Y-9371D01*
X21900Y-9337D01*
X21727Y-9371D01*
X21581Y-9469D01*
X21484Y-9615D01*
X21450Y-9787D01*
X21450Y-10212D01*
X21484Y-10384D01*
X21581Y-10530D01*
X21727Y-10628D01*
X21900Y-10662D01*
X22072Y-10628D01*
X22218Y-10530D01*
X22315Y-10384D01*
X22350Y-10212D01*
X22350Y-12500D01*
X21350Y-12500D01*
X21350Y-10212D01*
X21350Y-9787D01*
X21315Y-9615D01*
X21218Y-9469D01*
X21072Y-9371D01*
X20900Y-9337D01*
X20727Y-9371D01*
X20581Y-9469D01*
X20484Y-9615D01*
X20450Y-9787D01*
X20450Y-10212D01*
X20484Y-10384D01*
X20581Y-10530D01*
X20727Y-10628D01*
X20900Y-10662D01*
X21072Y-10628D01*
X21218Y-10530D01*
X21315Y-10384D01*
X21350Y-10212D01*
X21350Y-12500D01*
X20350Y-12500D01*
X20350Y-10212D01*
X20350Y-9787D01*
X20315Y-9615D01*
X20218Y-9469D01*
X20072Y-9371D01*
X19900Y-9337D01*
X19727Y-9371D01*
X19581Y-9469D01*
X19484Y-9615D01*
X19450Y-9787D01*
X19450Y-10212D01*
X19484Y-10384D01*
X19581Y-10530D01*
X19727Y-10628D01*
X19900Y-10662D01*
X20072Y-10628D01*
X20218Y-10530D01*
X20315Y-10384D01*
X20350Y-10212D01*
X20350Y-12500D01*
X19903Y-12500D01*
X19350Y-11946D01*
X19350Y-10212D01*
X19350Y-9787D01*
X19315Y-9615D01*
X19218Y-9469D01*
X19072Y-9371D01*
X18900Y-9337D01*
X18727Y-9371D01*
X18581Y-9469D01*
X18484Y-9615D01*
X18450Y-9787D01*
X18450Y-10212D01*
X18484Y-10384D01*
X18581Y-10530D01*
X18727Y-10628D01*
X18900Y-10662D01*
X19072Y-10628D01*
X19218Y-10530D01*
X19315Y-10384D01*
X19350Y-10212D01*
X19350Y-11946D01*
X18150Y-10746D01*
X18150Y-10576D01*
X18218Y-10530D01*
X18315Y-10384D01*
X18350Y-10212D01*
X18350Y-9787D01*
X18315Y-9615D01*
X18218Y-9469D01*
X18072Y-9371D01*
X17900Y-9337D01*
X17727Y-9371D01*
X17581Y-9469D01*
X17484Y-9615D01*
X17450Y-9787D01*
X17450Y-10212D01*
X17484Y-10384D01*
X17581Y-10530D01*
X17650Y-10576D01*
X17650Y-10850D01*
X17669Y-10945D01*
X17723Y-11026D01*
X19623Y-12926D01*
X19704Y-12980D01*
X19800Y-13000D01*
X19800Y-13000D01*
X19800Y-13000D01*
X24446Y-13000D01*
X25000Y-13553D01*
X25000Y-13722D01*
X24924Y-13772D01*
X24825Y-13922D01*
X24790Y-14098D01*
X24790Y-14401D01*
X24825Y-14577D01*
X24924Y-14727D01*
X25073Y-14826D01*
X25250Y-14861D01*
X25426Y-14826D01*
X25575Y-14727D01*
X25674Y-14577D01*
X25710Y-14401D01*
X25710Y-15531D01*
X23884Y-15531D01*
X23468Y-15115D01*
X23517Y-15101D01*
X23769Y-14945D01*
X23925Y-14727D01*
X24073Y-14826D01*
X24250Y-14861D01*
X24426Y-14826D01*
X24575Y-14727D01*
X24674Y-14577D01*
X24710Y-14401D01*
X24710Y-14098D01*
X24674Y-13922D01*
X24575Y-13772D01*
X24426Y-13673D01*
X24250Y-13638D01*
X24073Y-13673D01*
X23925Y-13772D01*
X23769Y-13554D01*
X23517Y-13398D01*
X23393Y-13363D01*
X23275Y-13462D01*
X23275Y-14225D01*
X23282Y-14225D01*
X23282Y-14275D01*
X23275Y-14275D01*
X23275Y-14282D01*
X23225Y-14282D01*
X23225Y-14275D01*
X23217Y-14275D01*
X23217Y-14225D01*
X23225Y-14225D01*
X23225Y-13462D01*
X23106Y-13363D01*
X22982Y-13398D01*
X22730Y-13554D01*
X22574Y-13772D01*
X22426Y-13673D01*
X22250Y-13638D01*
X22073Y-13673D01*
X21924Y-13772D01*
X21825Y-13922D01*
X21790Y-14098D01*
X21790Y-14401D01*
X21798Y-14445D01*
X21710Y-14356D01*
X21710Y-14098D01*
X21674Y-13922D01*
X21575Y-13772D01*
X21426Y-13673D01*
X21250Y-13638D01*
X21073Y-13673D01*
X20924Y-13772D01*
X20825Y-13922D01*
X20790Y-14098D01*
X20790Y-14401D01*
X20798Y-14445D01*
X20710Y-14356D01*
X20710Y-14098D01*
X20674Y-13922D01*
X20575Y-13772D01*
X20426Y-13673D01*
X20250Y-13638D01*
X20073Y-13673D01*
X19924Y-13772D01*
X19825Y-13922D01*
X19790Y-14098D01*
X19790Y-14401D01*
X19825Y-14577D01*
X19924Y-14727D01*
X20073Y-14826D01*
X20250Y-14861D01*
X20426Y-14826D01*
X20454Y-14807D01*
X22208Y-16561D01*
X22289Y-16616D01*
X22385Y-16635D01*
X30694Y-16635D01*
X30790Y-16616D01*
X30871Y-16561D01*
X31575Y-15858D01*
X31574Y-16183D01*
X31715Y-16523D01*
X31975Y-16783D01*
X32315Y-16924D01*
X32683Y-16925D01*
X33023Y-16784D01*
X33283Y-16524D01*
X33424Y-16184D01*
X33425Y-15816D01*
X33284Y-15476D01*
X33067Y-15258D01*
X35964Y-15258D01*
X36247Y-15541D01*
X36328Y-15595D01*
X36328Y-15595D01*
X36423Y-15615D01*
X36543Y-15615D01*
X36600Y-15700D01*
X36754Y-15803D01*
X36936Y-15840D01*
X37311Y-15840D01*
X37493Y-15803D01*
X37647Y-15700D01*
X37750Y-15546D01*
X37786Y-15365D01*
X37786Y-16745D01*
X37750Y-16563D01*
X37647Y-16409D01*
X37493Y-16306D01*
X37311Y-16270D01*
X36936Y-16270D01*
X36754Y-16306D01*
X36600Y-16409D01*
X36543Y-16495D01*
X36423Y-16495D01*
X36328Y-16514D01*
X36247Y-16568D01*
X35155Y-17660D01*
X30251Y-17660D01*
X30268Y-17652D01*
X30402Y-17519D01*
X30474Y-17344D01*
X30475Y-17155D01*
X30402Y-16981D01*
X30269Y-16847D01*
X30094Y-16775D01*
X29905Y-16774D01*
X29731Y-16847D01*
X29597Y-16980D01*
X29589Y-17000D01*
X26690Y-17000D01*
X26674Y-16922D01*
X26575Y-16772D01*
X26426Y-16673D01*
X26250Y-16638D01*
X26073Y-16673D01*
X25924Y-16772D01*
X25825Y-16922D01*
X25790Y-17098D01*
X25790Y-17401D01*
X25825Y-17577D01*
X25879Y-17660D01*
X25620Y-17660D01*
X25674Y-17577D01*
X25710Y-17401D01*
X25710Y-17098D01*
X25674Y-16922D01*
X25575Y-16772D01*
X25426Y-16673D01*
X25250Y-16638D01*
X25073Y-16673D01*
X24924Y-16772D01*
X24825Y-16922D01*
X24790Y-17098D01*
X24790Y-17401D01*
X24825Y-17577D01*
X24879Y-17660D01*
X24620Y-17660D01*
X24674Y-17577D01*
X24710Y-17401D01*
X24710Y-17098D01*
X24674Y-16922D01*
X24575Y-16772D01*
X24426Y-16673D01*
X24250Y-16638D01*
X24073Y-16673D01*
X23924Y-16772D01*
X23825Y-16922D01*
X23809Y-17000D01*
X23690Y-17000D01*
X23674Y-16922D01*
X23575Y-16772D01*
X23426Y-16673D01*
X23250Y-16638D01*
X23073Y-16673D01*
X22924Y-16772D01*
X22825Y-16922D01*
X22790Y-17098D01*
X22790Y-17401D01*
X22798Y-17445D01*
X22710Y-17356D01*
X22710Y-17098D01*
X22674Y-16922D01*
X22575Y-16772D01*
X22426Y-16673D01*
X22250Y-16638D01*
X22073Y-16673D01*
X21924Y-16772D01*
X21825Y-16922D01*
X21790Y-17098D01*
X21790Y-17401D01*
X21798Y-17445D01*
X21710Y-17356D01*
X21710Y-17098D01*
X21674Y-16922D01*
X21575Y-16772D01*
X21426Y-16673D01*
X21250Y-16638D01*
X21073Y-16673D01*
X20924Y-16772D01*
X20825Y-16922D01*
X20790Y-17098D01*
X20790Y-17401D01*
X20798Y-17445D01*
X20710Y-17356D01*
X20710Y-17098D01*
X20674Y-16922D01*
X20575Y-16772D01*
X20426Y-16673D01*
X20250Y-16638D01*
X20073Y-16673D01*
X19924Y-16772D01*
X19825Y-16922D01*
X19790Y-17098D01*
X19790Y-17401D01*
X19825Y-17577D01*
X19924Y-17727D01*
X20073Y-17826D01*
X20250Y-17861D01*
X20426Y-17826D01*
X20454Y-17807D01*
X22324Y-19677D01*
X22405Y-19731D01*
X22500Y-19750D01*
X36543Y-19750D01*
X36601Y-19836D01*
X36755Y-19939D01*
X36937Y-19976D01*
X37312Y-19976D01*
X37494Y-19939D01*
X37648Y-19836D01*
X37751Y-19682D01*
X37787Y-19501D01*
X37787Y-20880D01*
X37751Y-20698D01*
X37648Y-20544D01*
X37494Y-20441D01*
X37312Y-20405D01*
X36937Y-20405D01*
X36755Y-20441D01*
X36601Y-20544D01*
X36544Y-20630D01*
X23120Y-20630D01*
X23024Y-20649D01*
X22943Y-20703D01*
X22454Y-21192D01*
X22426Y-21173D01*
X22250Y-21138D01*
X22073Y-21173D01*
X21924Y-21272D01*
X21825Y-21422D01*
X21790Y-21598D01*
X21790Y-21901D01*
X21798Y-21945D01*
X21710Y-21856D01*
X21710Y-21598D01*
X21674Y-21422D01*
X21575Y-21272D01*
X21426Y-21173D01*
X21250Y-21138D01*
X21073Y-21173D01*
X20924Y-21272D01*
X20825Y-21422D01*
X20790Y-21598D01*
X20790Y-21901D01*
X20798Y-21945D01*
X20710Y-21856D01*
X20710Y-21598D01*
X20674Y-21422D01*
X20575Y-21272D01*
X20426Y-21173D01*
X20250Y-21138D01*
X20073Y-21173D01*
X19924Y-21272D01*
X19825Y-21422D01*
X19790Y-21598D01*
X19790Y-21901D01*
X19825Y-22077D01*
X19924Y-22227D01*
X20073Y-22326D01*
X20250Y-22361D01*
X20426Y-22326D01*
X20454Y-22307D01*
X21739Y-23593D01*
X21820Y-23647D01*
X21916Y-23666D01*
X36103Y-23666D01*
X36248Y-23810D01*
X36329Y-23864D01*
X36424Y-23884D01*
X36544Y-23884D01*
X36601Y-23969D01*
X36755Y-24072D01*
X36937Y-24109D01*
X37312Y-24109D01*
X37494Y-24072D01*
X37648Y-23969D01*
X37751Y-23815D01*
X37787Y-23634D01*
X37787Y-26392D01*
X37751Y-26210D01*
X37648Y-26056D01*
X37494Y-25953D01*
X37312Y-25917D01*
X36937Y-25917D01*
X36755Y-25953D01*
X36601Y-26056D01*
X36544Y-26142D01*
X36528Y-26142D01*
X36201Y-25815D01*
X36120Y-25760D01*
X36024Y-25741D01*
X22595Y-25741D01*
X22206Y-25353D01*
X22250Y-25361D01*
X22426Y-25326D01*
X22454Y-25307D01*
X22726Y-25579D01*
X22807Y-25634D01*
X22903Y-25653D01*
X36031Y-25653D01*
X36127Y-25634D01*
X36208Y-25579D01*
X36527Y-25260D01*
X36542Y-25260D01*
X36600Y-25346D01*
X36754Y-25449D01*
X36936Y-25486D01*
X37311Y-25486D01*
X37493Y-25449D01*
X37647Y-25346D01*
X37750Y-25192D01*
X37786Y-25011D01*
X37750Y-24829D01*
X37647Y-24675D01*
X37493Y-24572D01*
X37311Y-24536D01*
X36936Y-24536D01*
X36754Y-24572D01*
X36600Y-24675D01*
X36543Y-24760D01*
X36423Y-24760D01*
X36328Y-24780D01*
X36247Y-24834D01*
X35928Y-25153D01*
X30268Y-25153D01*
X30268Y-25152D01*
X30402Y-25019D01*
X30474Y-24844D01*
X30475Y-24655D01*
X30402Y-24481D01*
X30269Y-24347D01*
X30094Y-24275D01*
X29905Y-24274D01*
X29731Y-24347D01*
X29597Y-24480D01*
X29589Y-24500D01*
X26690Y-24500D01*
X26674Y-24422D01*
X26575Y-24272D01*
X26426Y-24173D01*
X26250Y-24138D01*
X26073Y-24173D01*
X25924Y-24272D01*
X25825Y-24422D01*
X25790Y-24598D01*
X25790Y-24901D01*
X25825Y-25077D01*
X25875Y-25153D01*
X25624Y-25153D01*
X25674Y-25077D01*
X25710Y-24901D01*
X25710Y-24598D01*
X25674Y-24422D01*
X25575Y-24272D01*
X25426Y-24173D01*
X25250Y-24138D01*
X25073Y-24173D01*
X24924Y-24272D01*
X24825Y-24422D01*
X24790Y-24598D01*
X24790Y-24901D01*
X24825Y-25077D01*
X24875Y-25153D01*
X24624Y-25153D01*
X24674Y-25077D01*
X24710Y-24901D01*
X24710Y-24598D01*
X24674Y-24422D01*
X24575Y-24272D01*
X24426Y-24173D01*
X24250Y-24138D01*
X24073Y-24173D01*
X23924Y-24272D01*
X23825Y-24422D01*
X23809Y-24500D01*
X23690Y-24500D01*
X23674Y-24422D01*
X23575Y-24272D01*
X23426Y-24173D01*
X23250Y-24138D01*
X23073Y-24173D01*
X22924Y-24272D01*
X22825Y-24422D01*
X22790Y-24598D01*
X22790Y-24901D01*
X22798Y-24945D01*
X22710Y-24856D01*
X22710Y-24598D01*
X22674Y-24422D01*
X22575Y-24272D01*
X22426Y-24173D01*
X22250Y-24138D01*
X22073Y-24173D01*
X21924Y-24272D01*
X21825Y-24422D01*
X21790Y-24598D01*
X21790Y-24901D01*
X21798Y-24945D01*
X21710Y-24856D01*
X21710Y-24598D01*
X21674Y-24422D01*
X21575Y-24272D01*
X21426Y-24173D01*
X21250Y-24138D01*
X21073Y-24173D01*
X20924Y-24272D01*
X20825Y-24422D01*
X20790Y-24598D01*
X20790Y-24901D01*
X20798Y-24945D01*
X20710Y-24856D01*
X20710Y-24598D01*
X20674Y-24422D01*
X20575Y-24272D01*
X20426Y-24173D01*
X20250Y-24138D01*
X20073Y-24173D01*
X19924Y-24272D01*
X19825Y-24422D01*
X19790Y-24598D01*
X19790Y-24901D01*
X19825Y-25077D01*
X19924Y-25227D01*
X20073Y-25326D01*
X20250Y-25361D01*
X20426Y-25326D01*
X20454Y-25307D01*
X23299Y-28153D01*
X23380Y-28207D01*
X23476Y-28226D01*
X36218Y-28226D01*
X36314Y-28207D01*
X36395Y-28153D01*
X36529Y-28019D01*
X36545Y-28019D01*
X36602Y-28104D01*
X36756Y-28207D01*
X36938Y-28244D01*
X37313Y-28244D01*
X37495Y-28207D01*
X37649Y-28104D01*
X37752Y-27950D01*
X37788Y-27769D01*
X37788Y-29750D01*
X31950Y-29750D01*
X31950Y-29212D01*
X31950Y-28787D01*
X31915Y-28615D01*
X31818Y-28469D01*
X31672Y-28371D01*
X31500Y-28337D01*
X31327Y-28371D01*
X31181Y-28469D01*
X31084Y-28615D01*
X31050Y-28787D01*
X31050Y-29212D01*
X31084Y-29384D01*
X31181Y-29530D01*
X31327Y-29628D01*
X31500Y-29662D01*
X31672Y-29628D01*
X31818Y-29530D01*
X31915Y-29384D01*
X31950Y-29212D01*
X31950Y-29750D01*
X30950Y-29750D01*
X30950Y-29212D01*
X30950Y-28787D01*
X30915Y-28615D01*
X30818Y-28469D01*
X30672Y-28371D01*
X30500Y-28337D01*
X30327Y-28371D01*
X30181Y-28469D01*
X30084Y-28615D01*
X30050Y-28787D01*
X30050Y-29212D01*
X30084Y-29384D01*
X30181Y-29530D01*
X30327Y-29628D01*
X30500Y-29662D01*
X30672Y-29628D01*
X30818Y-29530D01*
X30915Y-29384D01*
X30950Y-29212D01*
X30950Y-29750D01*
X29950Y-29750D01*
X29950Y-29212D01*
X29950Y-28787D01*
X29915Y-28615D01*
X29818Y-28469D01*
X29672Y-28371D01*
X29500Y-28337D01*
X29327Y-28371D01*
X29181Y-28469D01*
X29084Y-28615D01*
X29050Y-28787D01*
X29050Y-29212D01*
X29084Y-29384D01*
X29181Y-29530D01*
X29327Y-29628D01*
X29500Y-29662D01*
X29672Y-29628D01*
X29818Y-29530D01*
X29915Y-29384D01*
X29950Y-29212D01*
X29950Y-29750D01*
X28950Y-29750D01*
X28950Y-29212D01*
X28950Y-28787D01*
X28915Y-28615D01*
X28818Y-28469D01*
X28672Y-28371D01*
X28500Y-28337D01*
X28327Y-28371D01*
X28181Y-28469D01*
X28084Y-28615D01*
X28050Y-28787D01*
X28050Y-29212D01*
X28084Y-29384D01*
X28181Y-29530D01*
X28327Y-29628D01*
X28500Y-29662D01*
X28672Y-29628D01*
X28818Y-29530D01*
X28915Y-29384D01*
X28950Y-29212D01*
X28950Y-29750D01*
X27950Y-29750D01*
X27950Y-29212D01*
X27950Y-28787D01*
X27915Y-28615D01*
X27818Y-28469D01*
X27672Y-28371D01*
X27500Y-28337D01*
X27327Y-28371D01*
X27181Y-28469D01*
X27084Y-28615D01*
X27050Y-28787D01*
X27050Y-29212D01*
X27084Y-29384D01*
X27181Y-29530D01*
X27327Y-29628D01*
X27500Y-29662D01*
X27672Y-29628D01*
X27818Y-29530D01*
X27915Y-29384D01*
X27950Y-29212D01*
X27950Y-29750D01*
X26950Y-29750D01*
X26950Y-29212D01*
X26950Y-28787D01*
X26915Y-28615D01*
X26818Y-28469D01*
X26672Y-28371D01*
X26500Y-28337D01*
X26327Y-28371D01*
X26181Y-28469D01*
X26084Y-28615D01*
X26050Y-28787D01*
X26050Y-29212D01*
X26084Y-29384D01*
X26181Y-29530D01*
X26327Y-29628D01*
X26500Y-29662D01*
X26672Y-29628D01*
X26818Y-29530D01*
X26915Y-29384D01*
X26950Y-29212D01*
X26950Y-29750D01*
X24950Y-29750D01*
X24950Y-29212D01*
X24950Y-28787D01*
X24915Y-28615D01*
X24818Y-28469D01*
X24672Y-28371D01*
X24500Y-28337D01*
X24327Y-28371D01*
X24181Y-28469D01*
X24084Y-28615D01*
X24050Y-28787D01*
X24050Y-29212D01*
X24084Y-29384D01*
X24181Y-29530D01*
X24327Y-29628D01*
X24500Y-29662D01*
X24672Y-29628D01*
X24818Y-29530D01*
X24915Y-29384D01*
X24950Y-29212D01*
X24950Y-29750D01*
X23009Y-29750D01*
X23012Y-29748D01*
X23175Y-29521D01*
X23181Y-29530D01*
X23327Y-29628D01*
X23500Y-29662D01*
X23672Y-29628D01*
X23818Y-29530D01*
X23915Y-29384D01*
X23950Y-29212D01*
X23950Y-28787D01*
X23915Y-28615D01*
X23818Y-28469D01*
X23672Y-28371D01*
X23500Y-28337D01*
X23327Y-28371D01*
X23181Y-28469D01*
X23175Y-28478D01*
X23012Y-28251D01*
X22763Y-28097D01*
X22641Y-28063D01*
X22525Y-28162D01*
X22525Y-28975D01*
X22532Y-28975D01*
X22532Y-29025D01*
X22525Y-29025D01*
X22525Y-29032D01*
X22475Y-29032D01*
X22475Y-29025D01*
X22467Y-29025D01*
X22467Y-28975D01*
X22475Y-28975D01*
X22475Y-28162D01*
X22358Y-28063D01*
X22236Y-28097D01*
X21987Y-28251D01*
X21824Y-28478D01*
X21818Y-28469D01*
X21672Y-28371D01*
X21500Y-28337D01*
X21327Y-28371D01*
X21181Y-28469D01*
X21084Y-28615D01*
X21050Y-28787D01*
X21050Y-29212D01*
X21084Y-29384D01*
X21181Y-29530D01*
X21327Y-29628D01*
X21500Y-29662D01*
X21672Y-29628D01*
X21818Y-29530D01*
X21824Y-29521D01*
X21987Y-29748D01*
X21990Y-29750D01*
X20950Y-29750D01*
X20950Y-29212D01*
X20950Y-28787D01*
X20915Y-28615D01*
X20818Y-28469D01*
X20672Y-28371D01*
X20500Y-28337D01*
X20327Y-28371D01*
X20181Y-28469D01*
X20084Y-28615D01*
X20050Y-28787D01*
X20050Y-29212D01*
X20084Y-29384D01*
X20181Y-29530D01*
X20327Y-29628D01*
X20500Y-29662D01*
X20672Y-29628D01*
X20818Y-29530D01*
X20915Y-29384D01*
X20950Y-29212D01*
X20950Y-29750D01*
X19950Y-29750D01*
X19950Y-29212D01*
X19950Y-28787D01*
X19915Y-28615D01*
X19818Y-28469D01*
X19672Y-28371D01*
X19500Y-28337D01*
X19327Y-28371D01*
X19181Y-28469D01*
X19084Y-28615D01*
X19050Y-28787D01*
X19050Y-29212D01*
X19084Y-29384D01*
X19181Y-29530D01*
X19327Y-29628D01*
X19500Y-29662D01*
X19672Y-29628D01*
X19818Y-29530D01*
X19915Y-29384D01*
X19950Y-29212D01*
X19950Y-29750D01*
X17350Y-29750D01*
X17350Y-10212D01*
X17350Y-9787D01*
X17315Y-9615D01*
X17218Y-9469D01*
X17072Y-9371D01*
X16900Y-9337D01*
X16727Y-9371D01*
X16581Y-9469D01*
X16484Y-9615D01*
X16450Y-9787D01*
X16450Y-10212D01*
X16484Y-10384D01*
X16581Y-10530D01*
X16727Y-10628D01*
X16900Y-10662D01*
X17072Y-10628D01*
X17218Y-10530D01*
X17315Y-10384D01*
X17350Y-10212D01*
X17350Y-29750D01*
X16350Y-29750D01*
X16350Y-10212D01*
X16350Y-9787D01*
X16315Y-9615D01*
X16218Y-9469D01*
X16072Y-9371D01*
X15900Y-9337D01*
X15727Y-9371D01*
X15581Y-9469D01*
X15484Y-9615D01*
X15450Y-9787D01*
X15450Y-10212D01*
X15484Y-10384D01*
X15581Y-10530D01*
X15727Y-10628D01*
X15900Y-10662D01*
X16072Y-10628D01*
X16218Y-10530D01*
X16315Y-10384D01*
X16350Y-10212D01*
X16350Y-29750D01*
X12557Y-29750D01*
X12783Y-29524D01*
X12924Y-29184D01*
X12925Y-28816D01*
X12784Y-28476D01*
X12524Y-28216D01*
X12184Y-28075D01*
X11816Y-28074D01*
X11476Y-28215D01*
X11216Y-28475D01*
X11075Y-28815D01*
X11074Y-29183D01*
X11215Y-29523D01*
X11441Y-29750D01*
X10250Y-29750D01*
X10250Y-9250D01*
X11942Y-9250D01*
X11716Y-9475D01*
X11575Y-9815D01*
X11574Y-10183D01*
X11715Y-10523D01*
X11975Y-10783D01*
X12315Y-10924D01*
X12683Y-10925D01*
X13023Y-10784D01*
X13283Y-10524D01*
X13424Y-10184D01*
X13425Y-9816D01*
X13284Y-9476D01*
X13058Y-9250D01*
X38250Y-9250D01*
X38250Y-29750D01*
M02*
